<?xml version="1.0" encoding="utf-8"?>
<!-- Generator: Adobe Illustrator 25.0.1, SVG Export Plug-In . SVG Version: 6.00 Build 0)  -->
<svg version="1.1" xmlns="http://www.w3.org/2000/svg" xmlns:xlink="http://www.w3.org/1999/xlink" x="0px" y="0px"
	 viewBox="0 0 566.9 323" style="enable-background:new 0 0 566.9 323;" xml:space="preserve">
<style type="text/css">
	.st0{display:none;}
	.st1{display:inline;fill:#1EB1A1;stroke:#000000;stroke-miterlimit:10;}
	.st2{opacity:0.6;}
	.st3{fill:#FFFFFF;}
	.st4{fill:none;stroke:#000000;stroke-width:14.4586;stroke-miterlimit:10;}
	.st5{fill:none;stroke:#1CB1A1;stroke-width:12.455;stroke-miterlimit:10;}
	.st6{display:inline;}
	.st7{fill:#B2B2B2;}
	.st8{fill:none;stroke:#9D9D9C;stroke-width:0.25;stroke-miterlimit:10;}
</style>
<g id="Calque_3" class="st0">
	<rect class="st1" width="566.9" height="323"/>
</g>
<g id="Calque_1">
	<g class="st2">
		<path class="st3" d="M63.1,157.4H48.6l0-9.7c0-6,4.6-21.7,25.9-21.7s25.9,15.7,25.9,21.7H85.9c-0.1-2.1-1.4-7.3-11.4-7.3
			c-11.1,0-11.4,6.5-11.4,7.3V157.4z"/>
		<path class="st3" d="M342.6,80h-14.5v-9.7c0-6,4.6-21.7,25.9-21.7c21.2,0,25.9,15.7,25.9,21.7h-14.5C365.3,68.2,364,63,354,63
			c-10,0-11.3,5.2-11.4,7.4L342.6,80z"/>
		<path class="st3" d="M212.2,118.7h-14.5V109c0-6,4.6-21.7,25.9-21.7c21.2,0,25.9,15.7,25.9,21.7H235c-0.1-2.1-1.4-7.3-11.4-7.3
			c-11.1,0-11.4,6.5-11.4,7.3V118.7z"/>
		<rect x="137.7" y="165.8" class="st3" width="22.8" height="14.5"/>
		<rect x="212.2" y="165.8" class="st3" width="22.8" height="14.5"/>
		<path class="st3" d="M354,217.9c-21.2,0-25.9-15.7-25.9-21.7h7.2h7.2c0.1,2.2,1.4,7.3,11.4,7.3c11.1,0,11.4-6.5,11.4-7.3h14.5
			C379.9,202.2,375.3,217.9,354,217.9z"/>
		<polygon class="st3" points="440,196.1 417.2,116.2 417.2,60.6 440,142.4 		"/>
		<polygon class="st3" points="290.9,170 258.1,105.3 271,98.8 290.9,138 		"/>
		<path class="st3" d="M74.5,217.9c-21.2,0-25.9-15.7-25.9-21.7h7.2l7.2,0c0.2,2.3,1.6,7.3,11.4,7.3c11.1,0,11.4-6.5,11.4-7.3h14.5
			C100.4,202.2,95.7,217.9,74.5,217.9z"/>
	</g>
	<path class="st4" d="M167.2,190.7"/>
	<path class="st5" d="M453.9,139.6"/>
	<g>
		<path class="st3" d="M158.1,250.5c0-1.3-1.1-2.6-2.6-2.6c-1.1,0-2,0.6-2.5,1.7c-1.8,4.5-4.4,9.4-7.6,12.6
			c-2.3-1.9-4.5-4.6-6.3-7.3c4.8-3.7,11-8.7,11-17.6c0-5.2-1.7-14.1-9.7-14.1c-8.9,0-11.5,10.6-11.5,16.8c0,4.4,1.2,9.1,3.4,13.5
			c-3,2.5-6,5.7-6,10.3c0,4.2,3.9,8.2,9.5,8.2c3.7,0,7-1.2,9.8-3.2c3,1.8,6.4,2.9,9.8,2.9c1.4,0,2.6-1.2,2.6-2.6
			c0-1.4-1.2-2.6-2.6-2.6c-1.9,0-3.7-0.4-5.6-1.3c3.6-4,6.2-9,8-13.6C158,251.2,158.1,250.9,158.1,250.5z M140.4,228.5
			c2.6,0,4.4,3.4,4.4,8.8c0,5.7-3.6,9.2-8.2,12.8c-1.5-3.5-2.4-7.1-2.4-10.2C134.2,233.8,137,228.5,140.4,228.5z M135.8,266.7
			c-3.2,0-4.2-2-4.2-2.9c0-1.9,1.1-3.5,3.4-5.6c1.8,2.6,3.8,5.1,6.1,7.2C139.4,266.3,137.7,266.7,135.8,266.7z"/>
		<path class="st3" d="M241.1,245.2c-1.6,0-3.4,0.1-5.2,0.4c-0.5-3.3-1.3-6.3-1.9-8.9c-1.6-6.4-3.4-13.5-9.6-13.5
			c-5.7,0-7.9,5.8-10.4,13.3c-3.2,9.5-5.5,22.4-7.2,32.1v0.4c0,1.3,1.1,2.6,2.6,2.6c1.2,0,2.4-1,2.6-2.2c1.8-9.7,3.9-22.4,6.9-31.4
			c2.8-8.4,4.6-9.6,5.5-9.6c0.9,0,2.6,1.8,4.5,9.5c0.6,2.6,1.3,5.6,1.9,8.7c-5.2,1.4-11.7,4.5-11.7,10.9c0,5.3,4.7,14.1,11.5,14.1
			c5.5,0,7.1-5.4,7.1-8.8c0-3.8-0.4-7.9-0.9-12c1.6-0.2,3.1-0.4,4.4-0.4c1.4,0,2.6-1.2,2.6-2.6S242.5,245.2,241.1,245.2z
			 M230.5,266.4c-2,0-6.2-5.3-6.2-8.8c0-2,2.4-4.2,7.2-5.7c0.5,3.8,0.8,7.6,0.8,11C232.2,265.6,231.2,266.4,230.5,266.4z"/>
		<path class="st3" d="M421.2,235.5c1.5,0,2.6-1.1,2.6-2.6c0-1.8-0.9-4.4-2.6-4.4c-1.5,0-2.6,1.1-2.6,2.6S419.7,235.5,421.2,235.5z"
			/>
		<path class="st3" d="M432.7,264.7c-0.5,0-1.1,0.2-1.6,0.5c-1.3,1-2.4,1.2-3.7,1.2c-4.9,0-7.1-7.4-7.1-15.9c0-1.4-1.2-2.6-2.6-2.6
			c-1,0-1.9,0.6-2.4,1.5c-4.2,8.3-14.3,17-21.5,17c-7.2,0-12.4-3.7-12.4-9.7c0-5.2,2.2-8.8,7.1-8.8c1.1,0,2.4,0.9,3.5,0.9
			c1.3,0,2.6-1.1,2.6-2.6c0-2.6-3.6-3.5-6.2-3.5c-5.5,0-9.1,3-10.9,7.2c-1.1,0.5-5.2,0.8-6.7,0.8c-7,0-6.7-0.2-13-3.3
			c-0.4-0.2-0.8-0.3-1.1-0.3c-1.3,0-2.6,1-2.6,2.6c0,1,0.6,1.9,1.3,2.4c5.8,3.4,6.6,5.5,6.6,8.3c0,5.2-4.5,8.8-10.6,8.8
			c-4.6,0-7.9-3-7.9-7.1c0-4.8,2.3-6.6,2.6-6.9c0.5-0.5,0.9-1.2,0.9-1.9c0-1.5-1.3-2.6-2.6-2.6h-9.7c0,0,0,0,0,0c-2,0-4,0.2-5.9,0.5
			c-2.1-3.9-5.8-7.6-10.9-7.6s-9.5,3-12.1,4.2c-3,1.3-7.2,2.9-10,2.9c0,0,0,0,0,0c-1.6,0-3.3,0.1-4.9,0.4c-1.9-4.2-5.8-8.3-11-8.3
			c-10,0-20.8,12.8-28.7,25.1c-0.3,0.4-0.4,0.9-0.4,1.4c0,1.3,1.1,2.6,2.6,2.6c0.9,0,1.7-0.4,2.2-1.2c7.9-12.5,18.4-22.6,24.3-22.6
			c1.9,0,4.2,1.6,5.7,4.2c-5.8,2-11,6.2-11,12.5c0,3.9,3.2,7.1,7.1,7.1c7.9,0,10.6-8.7,10.6-15V256c1.1-0.2,2.4-0.2,3.5-0.2
			c0,0,0,0,0,0c4.3,0,8.9-1.9,12.1-3.3c3.5-1.5,7.1-3.8,10-3.8c1.9,0,4,1.3,5.6,3.8c-5.4,2.1-10,6.2-10,12.1c0,3.9,3.2,7.1,7.1,7.1
			c6,0,10.6-4.9,10.6-11.5c0-1.3-0.2-2.7-0.5-4.2c1.3-0.2,2.7-0.3,4.1-0.3h4.7c-0.6,1.7-1.1,3.7-1.1,6.2c0,7.4,6.4,12.4,13.2,12.4
			c8,0,15.9-5.2,15.9-14.1c0-1.5-0.2-2.9-0.8-4.5c1.1,0.1,2.6,0.1,4.3,0.1l0,0c0.4,0,1.4,0.1,2.6,0.1c0.8,0,1.7-0.1,2.6-0.2v1
			c0,9.9,8.9,15,17.7,15c0,0,0,0,0,0c0,0,0,0,0,0c0,0,0,0,0,0c0,0,0,0,0,0c8.1,0,16.2-6.3,21.8-13.2c1.1,5.9,4,13.2,11.7,13.2
			c2.2,0,7.9-1.1,7.9-4.4C435.3,265.8,434.1,264.7,432.7,264.7z M281.7,266.4c-1.1,0-1.8-0.7-1.8-1.8c0-2.9,2.4-5.7,7.1-7.3
			C286.8,263.1,284.3,266.4,281.7,266.4z M320.6,266.4c-1.1,0-1.8-0.7-1.8-1.8c0-2.8,2.2-5.5,6.7-7.2c0.3,1,0.4,1.9,0.4,2.8
			C325.8,264.3,323.4,266.4,320.6,266.4z"/>
		<path class="st3" d="M467.1,263.8c-0.4,0-0.8,0.1-1.1,0.3c-4.2,2.1-6.2,2.4-9.4,2.4c-1.4,0-2.6-0.3-3.7-0.7
			c5.9-1.9,11.7-7.7,11.7-14.3c0-4.9-3.9-8.8-8.8-8.8c-7.9,0-13.2,6.7-13.2,14.1c0,8.4,5.7,15,14.1,15c3.8,0,7.1-0.6,11.7-2.9
			c0.9-0.4,1.5-1.4,1.5-2.4C469.8,264.8,468.5,263.8,467.1,263.8z M447.7,256.7c0-4.9,3.4-8.8,7.9-8.8c2.1,0,3.5,1.4,3.5,3.5
			c0,4.4-5.8,9.7-10.7,9.7C448,259.9,447.7,258.4,447.7,256.7z"/>
		<path class="st3" d="M455.7,237.3c1.1,0,2-0.6,2.5-1.6c2.6-6,6-12.1,8.5-15.4c0.4-0.4,0.5-1.1,0.5-1.6c0-1.4-1.1-2.6-2.6-2.6
			c-0.8,0-1.6,0.4-2.1,1.1c-2.8,3.8-6.4,10.1-9.2,16.4c-0.2,0.4-0.2,0.7-0.2,1.1C453,236,454.1,237.3,455.7,237.3z"/>
		<path class="st3" d="M506,242.6c-10,0-20.8,12.8-28.7,25.1c-0.3,0.4-0.4,0.9-0.4,1.4c0,1.3,1.1,2.6,2.6,2.6c0.9,0,1.7-0.4,2.2-1.2
			c7.9-12.5,18.4-22.6,24.3-22.6c3.3,0,7.1,4.6,7.1,8.8c0,5.3-4.7,9.7-9.7,9.7c-3.4,0-3.1-1.8-5.3-1.8c-1.4,0-2.6,1.1-2.6,2.6
			c0,0.7,0.3,1.4,0.9,1.9c0.3,0.3,2.8,2.5,7.1,2.5c7.9,0,15-6.7,15-15C518.4,250.4,513.3,242.6,506,242.6z"/>
	</g>
	<g>
		<rect x="48.6" y="157.4" class="st3" width="14.5" height="38.7"/>
		<rect x="85.9" y="147.8" class="st3" width="14.5" height="48.4"/>
		<rect x="123.2" y="138.1" class="st3" width="14.5" height="58.1"/>
		<rect x="160.5" y="128.4" class="st3" width="14.5" height="67.7"/>
		<rect x="197.7" y="118.7" class="st3" width="14.5" height="77.4"/>
		<rect x="235" y="109" class="st3" width="14.5" height="87.1"/>
		<rect x="290.9" y="90.3" class="st3" width="14.5" height="106.4"/>
		<rect x="328.2" y="80" class="st3" width="14.5" height="116.1"/>
		<rect x="365.4" y="70.3" class="st3" width="14.5" height="125.8"/>
		<rect x="402.7" y="60.6" class="st3" width="14.5" height="135.5"/>
		<rect x="440" y="51" class="st3" width="14.5" height="145.2"/>
	</g>
</g>
<g id="Calque_2" class="st0">
	<g class="st6">
		<path class="st7" d="M22.1,145.6c0,1.6,0.1,3.4,0.4,5.2c-3.3,0.5-6.3,1.3-8.9,1.9c-6.4,1.6-13.5,3.4-13.5,9.6
			c0,5.7,5.8,7.9,13.3,10.4c9.5,3.2,22.4,5.5,32.1,7.2H46c1.3,0,2.6-1.1,2.6-2.6c0-1.2-1-2.4-2.2-2.6c-9.7-1.8-22.4-3.9-31.4-6.9
			c-8.4-2.8-9.6-4.6-9.6-5.5c0-0.9,1.8-2.6,9.5-4.5c2.6-0.6,5.6-1.3,8.7-1.9c1.4,5.2,4.5,11.7,10.9,11.7c5.3,0,14.1-4.7,14.1-11.5
			c0-5.5-5.4-7.1-8.8-7.1c-3.8,0-7.9,0.4-12,0.9c-0.2-1.6-0.4-3.1-0.4-4.4c0-1.4-1.2-2.6-2.6-2.6C23.4,142.9,22.1,144.2,22.1,145.6z
			 M43.3,156.2c0,2-5.3,6.2-8.8,6.2c-2,0-4.2-2.4-5.7-7.2c3.8-0.5,7.6-0.8,11-0.8C42.5,154.4,43.3,155.5,43.3,156.2z"/>
		<path class="st7" d="M544.9,177.4c0-1.6-0.1-3.4-0.4-5.2c3.3-0.5,6.3-1.3,8.9-1.9c6.4-1.6,13.5-3.4,13.5-9.6
			c0-5.7-5.8-7.9-13.3-10.4c-9.5-3.2-22.4-5.5-32.1-7.2H521c-1.3,0-2.6,1.1-2.6,2.6c0,1.2,1,2.4,2.2,2.6c9.7,1.8,22.4,3.9,31.4,6.9
			c8.4,2.8,9.6,4.6,9.6,5.5c0,0.9-1.8,2.6-9.5,4.5c-2.6,0.6-5.6,1.3-8.7,1.9c-1.4-5.2-4.5-11.7-10.9-11.7c-5.3,0-14.1,4.7-14.1,11.5
			c0,5.5,5.4,7.1,8.8,7.1c3.8,0,7.9-0.4,12-0.9c0.2,1.6,0.4,3.1,0.4,4.4c0,1.4,1.2,2.6,2.6,2.6S544.9,178.8,544.9,177.4z
			 M523.7,166.8c0-2,5.3-6.2,8.8-6.2c2,0,4.2,2.4,5.7,7.2c-3.8,0.5-7.6,0.8-11,0.8C524.4,168.5,523.7,167.5,523.7,166.8z"/>
		<path class="st7" d="M267.6,300.9c1.6,0,3.4-0.1,5.2-0.4c0.5,3.3,1.3,6.3,1.9,8.9c1.6,6.4,3.4,13.5,9.6,13.5
			c5.7,0,7.9-5.8,10.4-13.3c3.2-9.5,5.5-22.4,7.2-32.1V277c0-1.3-1.1-2.6-2.6-2.6c-1.2,0-2.4,1-2.6,2.2c-1.8,9.7-3.9,22.4-6.9,31.4
			c-2.8,8.4-4.6,9.6-5.5,9.6c-0.9,0-2.6-1.8-4.5-9.5c-0.6-2.6-1.3-5.6-1.9-8.7c5.2-1.4,11.7-4.5,11.7-10.9c0-5.3-4.7-14.1-11.5-14.1
			c-5.5,0-7.1,5.4-7.1,8.8c0,3.8,0.4,7.9,0.9,12c-1.6,0.2-3.1,0.4-4.4,0.4c-1.4,0-2.6,1.2-2.6,2.6S266.2,300.9,267.6,300.9z
			 M278.2,279.7c2,0,6.2,5.3,6.2,8.8c0,2-2.4,4.2-7.2,5.7c-0.5-3.8-0.8-7.6-0.8-11C276.4,280.5,277.5,279.7,278.2,279.7z"/>
		<path class="st7" d="M303,22.1c-1.6,0-3.4,0.1-5.2,0.4c-0.5-3.3-1.3-6.3-1.9-8.9C294.3,7.1,292.4,0,286.2,0
			c-5.7,0-7.9,5.8-10.4,13.3c-3.2,9.5-5.5,22.4-7.2,32.1v0.4c0,1.3,1.1,2.6,2.6,2.6c1.2,0,2.4-1,2.6-2.2c1.8-9.7,3.9-22.4,6.9-31.4
			c2.8-8.4,4.6-9.6,5.5-9.6c0.9,0,2.6,1.8,4.5,9.5c0.6,2.6,1.3,5.6,1.9,8.7c-5.2,1.4-11.7,4.5-11.7,10.9c0,5.3,4.7,14.1,11.5,14.1
			c5.5,0,7.1-5.4,7.1-8.8c0-3.8-0.4-7.9-0.9-12c1.6-0.2,3.1-0.4,4.4-0.4c1.4,0,2.6-1.2,2.6-2.6C305.7,23.3,304.4,22.1,303,22.1z
			 M292.4,43.3c-2,0-6.2-5.3-6.2-8.8c0-2,2.4-4.2,7.2-5.7c0.5,3.8,0.8,7.6,0.8,11C294.2,42.5,293.1,43.3,292.4,43.3z"/>
		<rect x="48.6" y="48.6" class="st8" width="469.7" height="225.8"/>
		<rect class="st8" width="566.9" height="323"/>
	</g>
</g>
</svg>
