<svg width="98" height="100" viewBox="0 0 98 100" fill="none" xmlns="http://www.w3.org/2000/svg">
<path d="M79.8331 53.5799C79.8331 53.1399 79.8331 52.8399 79.8331 52.5399C79.8331 50.4399 79.8331 48.3199 79.8331 46.2199C79.8331 44.1199 79.8331 41.9999 79.8331 39.8999C79.8331 37.7999 79.7931 35.6799 79.8331 33.5799C79.8731 31.4999 79.6331 29.4199 80.0331 27.3399C80.0331 23.3599 80.0331 19.3999 80.0331 15.4199C80.0331 14.9599 79.8331 14.6199 79.6731 14.2199C79.4531 13.6799 79.0531 13.4799 78.5331 13.4599C77.0131 13.4399 75.4931 13.3999 73.9731 13.4599C72.4331 13.5199 70.9331 13.2599 69.3931 13.2399C67.1531 13.2199 64.9131 13.2399 62.7131 13.2399C62.5931 13.1199 62.4931 13.0599 62.4531 12.9799C61.5531 11.0799 60.0931 9.75989 58.1731 8.91989C57.5931 8.65989 55.9131 8.27989 55.3331 8.27989C53.9531 8.27989 52.5931 8.27989 51.3131 8.27989C51.0531 7.63989 50.8531 7.09989 50.6331 6.57989C49.7531 4.49989 48.0531 3.09989 46.3731 1.67989C44.6131 0.879889 42.8331 0.0598888 40.8531 0.0198888C39.9531 -0.000111195 39.0531 0.0398888 38.1331 0.199889C36.9131 0.419889 35.7331 0.759889 34.6931 1.39989C34.1731 1.71989 33.6331 2.03989 33.1331 2.43989C32.3931 3.03989 31.7331 3.67989 31.1531 4.41989C30.5931 5.13989 30.0331 5.85989 29.7131 6.71989C29.5131 7.25989 29.2531 7.77989 29.0131 8.31989C27.5931 8.31989 26.1931 8.31989 24.7731 8.31989C24.3531 8.31989 23.9331 8.39989 23.5131 8.47989C21.8731 8.79989 20.5331 9.59989 19.3531 10.6999C18.7331 11.2799 18.2931 12.0399 17.9331 12.7999C17.7531 13.1799 17.5531 13.2399 17.1731 13.2799C16.5131 13.3599 15.9331 13.0599 15.2931 13.0599C11.0531 13.0799 6.79309 13.0599 2.55309 13.0599C2.37309 13.0599 2.21309 13.0399 2.03309 13.0599C1.13309 13.1599 0.533094 13.7399 0.513094 14.5599C0.473094 16.1999 0.613094 17.8199 0.293094 19.4399C0.293094 22.8599 0.293094 26.2799 0.293094 29.6999C0.293094 33.0799 0.293094 36.4599 0.293094 39.8599C0.293094 43.2799 0.293094 46.6999 0.293094 50.1199C0.293094 53.5399 0.293094 56.9599 0.293094 60.3799C0.293094 63.7599 0.333094 67.1399 0.273094 70.5399C0.213094 73.8999 0.493094 77.2999 0.0530942 80.6799C0.0530942 86.1599 0.0530942 91.6599 0.0530942 97.1399C0.0530942 97.3199 -0.00690586 97.4999 0.0730941 97.6599C0.233094 98.0399 0.173094 98.5199 0.553094 98.8199C0.873094 99.0599 1.17309 99.2799 1.61309 99.2599C2.37309 99.2399 3.13309 99.2599 3.89309 99.2599C4.61309 99.2599 5.35309 99.2599 6.07309 99.2599C6.83309 99.2599 7.59309 99.3199 8.3531 99.2399C9.11309 99.1599 9.8131 99.4599 10.5531 99.4599C12.1731 99.4599 13.7931 99.4599 15.4131 99.4599C17.0731 99.4599 18.7331 99.4599 20.3931 99.4599C22.0131 99.4599 23.6331 99.4599 25.2531 99.4599C26.8731 99.4599 28.4931 99.4599 30.1131 99.4599C31.7731 99.4599 33.4331 99.4599 35.0931 99.4599C36.7131 99.4599 38.3331 99.4599 39.9531 99.4599C41.6131 99.4599 43.2731 99.4599 44.9331 99.4599C46.5531 99.4599 48.1731 99.4599 49.7931 99.4599C51.4131 99.4599 53.0331 99.4599 54.6531 99.4599C56.3131 99.4599 57.9731 99.4999 59.6331 99.4399C61.2331 99.3799 62.8131 99.6399 64.4131 99.6599C68.7331 99.6799 73.0531 99.6599 77.3531 99.6599C77.5931 99.6599 77.8531 99.7199 78.0731 99.6399C78.6531 99.4799 79.3131 99.3599 79.4931 98.6199C79.5531 98.3999 79.6131 98.1599 79.6131 97.9399C79.4931 92.4399 79.9731 86.9599 79.8331 81.4599C79.8331 81.2999 79.8531 81.1599 79.8731 80.9399C81.4331 82.4999 82.8931 83.9999 84.4131 85.4599C85.4131 86.3999 86.6331 86.8999 88.0131 86.9999C88.5331 87.0399 89.0531 87.0399 89.5731 86.9999C90.0531 86.9599 90.5531 86.8999 90.9931 86.6999C92.2931 86.1199 93.4331 85.3399 94.2531 84.0999C95.2931 82.5399 95.6531 80.2999 95.0331 78.4799C94.6131 77.2799 93.9931 76.2399 93.1131 75.3399C90.4131 72.6199 87.7131 69.9199 85.0131 67.2199C88.2331 63.9999 91.4331 60.7999 94.6331 57.5999C95.2731 56.9599 95.8931 56.3199 96.3531 55.5199C96.6331 55.0399 96.8531 54.5199 97.0131 54.0399C97.3931 52.8399 97.3331 52.2799 97.0531 50.8999C96.7131 49.2799 96.1331 48.3399 94.9131 47.2399C94.3331 46.7399 93.7131 46.2999 93.0331 46.0399C92.3131 45.7599 91.5131 45.6799 90.7331 45.5799C90.0931 45.4999 89.5131 45.8999 88.8531 45.7799C87.8331 46.2599 86.7531 46.6399 85.9331 47.4599C84.2931 49.0999 82.6531 50.7399 81.0331 52.3599C80.6531 52.7599 80.2931 53.1199 79.8331 53.5799Z" fill="#FEFEFF"/>
<path d="M79.8331 53.58C80.2931 53.12 80.6531 52.76 80.9931 52.42C82.6331 50.78 84.2531 49.14 85.8931 47.52C86.7131 46.7 87.7931 46.3 88.8131 45.84C89.4531 45.96 90.0531 45.54 90.6931 45.64C91.4731 45.74 92.2731 45.82 92.9931 46.1C93.6731 46.36 94.3131 46.8 94.8731 47.3C96.0931 48.4 96.6731 49.34 97.0131 50.96C97.2931 52.34 97.3531 52.9 96.9731 54.1C96.8131 54.6 96.5931 55.1 96.3131 55.58C95.8531 56.38 95.2331 57.02 94.5931 57.66C91.3931 60.86 88.1931 64.06 84.9731 67.28C87.6731 69.98 90.3931 72.68 93.0731 75.4C93.9531 76.28 94.5931 77.32 94.9931 78.54C95.6131 80.36 95.2531 82.6 94.2131 84.16C93.3931 85.4 92.2531 86.18 90.9531 86.76C90.5131 86.96 90.0131 87.02 89.5331 87.06C89.0131 87.1 88.4931 87.1 87.9731 87.06C86.5931 86.96 85.3531 86.48 84.3731 85.52C82.8531 84.06 81.3931 82.56 79.8331 81C79.8131 81.22 79.7731 81.36 79.7931 81.52C79.9331 87.02 79.4531 92.5 79.5731 98C79.5731 98.22 79.5131 98.46 79.4531 98.68C79.2731 99.42 78.6131 99.52 78.0331 99.7C77.8131 99.76 77.5531 99.72 77.3131 99.72C72.9931 99.72 68.6731 99.74 64.3731 99.72C62.7731 99.72 61.1931 99.44 59.5931 99.5C57.9331 99.56 56.2731 99.52 54.6131 99.52C52.9931 99.52 51.3731 99.52 49.7531 99.52C48.1331 99.52 46.5131 99.52 44.8931 99.52C43.2331 99.52 41.5731 99.52 39.9131 99.52C38.2931 99.52 36.6731 99.52 35.0531 99.52C33.3931 99.52 31.7331 99.52 30.0731 99.52C28.4531 99.52 26.8331 99.52 25.2131 99.52C23.5931 99.52 21.9731 99.52 20.3531 99.52C18.6931 99.52 17.0331 99.52 15.3731 99.52C13.7531 99.52 12.1331 99.52 10.5131 99.52C9.77306 99.52 9.07306 99.22 8.31306 99.3C7.55306 99.38 6.79306 99.32 6.03306 99.32C5.31306 99.32 4.57306 99.32 3.85306 99.32C3.09306 99.32 2.33306 99.3 1.57306 99.32C1.13306 99.32 0.833061 99.12 0.513061 98.88C0.133061 98.58 0.193061 98.12 0.0330612 97.72C-0.0269388 97.58 0.0130612 97.38 0.0130612 97.2C0.0130612 91.72 0.0130612 86.22 0.0130612 80.74C0.493061 77.3 0.213061 73.9 0.253061 70.52C0.293061 67.14 0.273061 63.76 0.273061 60.36C0.273061 56.94 0.273061 53.52 0.273061 50.1C0.273061 46.68 0.273061 43.26 0.273061 39.84C0.273061 36.46 0.273061 33.08 0.273061 29.68C0.273061 26.26 0.273061 22.84 0.273061 19.42C0.593061 17.8 0.453061 16.16 0.493061 14.54C0.513061 13.74 1.13306 13.14 2.01306 13.04C2.19306 13.02 2.35306 13.04 2.53306 13.04C6.77306 13.04 11.0331 13.04 15.2731 13.04C15.9131 13.04 16.4931 13.36 17.1531 13.26C17.5131 13.22 17.7331 13.16 17.9131 12.78C18.2731 12.02 18.7131 11.26 19.3331 10.68C20.5131 9.58 21.8531 8.78 23.4931 8.46C23.9131 8.38 24.3331 8.3 24.7531 8.3C26.1731 8.3 27.5731 8.3 28.9931 8.3C29.2331 7.76 29.4731 7.24 29.6931 6.7C30.0331 5.84 30.5731 5.12 31.1331 4.4C31.7131 3.66 32.3931 3.02 33.1131 2.42C33.6131 2.02 34.1531 1.7 34.6731 1.38C35.7131 0.76 36.8931 0.4 38.1131 0.18C39.0331 0.02 39.9131 0 40.8331 0C42.8331 0.02 44.5931 0.84 46.3531 1.66C48.0531 3.1 49.7531 4.5 50.6731 6.6C50.9131 7.12 51.1131 7.66 51.3531 8.3C52.6331 8.3 53.9931 8.3 55.3731 8.3C55.9531 8.3 57.6331 8.7 58.2131 8.94C60.1331 9.78 61.5931 11.1 62.4931 13C62.5331 13.08 62.6331 13.14 62.7531 13.26C64.9531 13.26 67.1931 13.24 69.4331 13.26C70.9531 13.28 72.4731 13.54 74.0131 13.48C75.5331 13.42 77.0531 13.46 78.5731 13.48C79.0931 13.48 79.4731 13.68 79.7131 14.24C79.8731 14.64 80.0731 14.98 80.0731 15.44C80.0531 19.42 80.0731 23.38 80.0731 27.36C79.6731 29.42 79.9131 31.52 79.8731 33.6C79.8331 35.7 79.8731 37.82 79.8731 39.92C79.8731 42.02 79.8731 44.14 79.8731 46.24C79.8731 48.34 79.8731 50.46 79.8731 52.56C79.8331 52.84 79.8331 53.14 79.8331 53.58ZM35.0931 74.6C43.2531 74.6 51.3331 74.6 59.4731 74.6C59.9531 73.94 60.5131 73.28 60.9531 72.54C61.3331 71.92 61.8131 71.68 62.5131 71.7C62.9931 71.72 63.4731 71.7 64.0131 71.7C64.3531 71.36 64.7131 70.98 65.0731 70.62C65.4331 70.26 65.8731 69.92 66.1531 69.5C66.4331 69.08 67.0931 69.1 67.2331 68.42C66.7731 68.2 66.3131 67.98 65.8531 67.76C65.4531 67.56 65.0331 67.52 64.5931 67.56C64.1331 67.6 63.7331 67.28 63.2331 67.34C62.6731 67.4 62.1331 67.32 61.5531 67.18C59.7731 66.78 57.8731 65.84 56.7931 64.9C55.4331 63.72 54.2131 62.4 53.5531 60.66C53.4331 60.34 53.2531 60.02 53.0731 59.66C47.0531 59.66 41.0731 59.66 35.0931 59.66C35.0931 58.52 35.0931 57.46 35.0931 56.36C40.8531 56.36 46.5731 56.36 52.3131 56.36C52.3531 56.36 52.3731 56.34 52.3931 56.32C52.4131 56.3 52.4531 56.28 52.4731 56.26C52.5131 55.56 52.4131 54.86 52.6531 54.16C52.8331 53.68 52.7131 53.08 52.8931 52.6C53.2931 51.64 53.4331 50.54 54.4331 49.98C55.5131 49.7 56.2331 50.24 56.9331 50.96C58.6331 52.72 60.3931 54.44 62.1931 56.24C62.6931 56.08 63.2131 55.92 63.7331 55.74C63.8531 55.7 63.9931 55.6 64.0331 55.48C64.2131 55 64.3731 54.52 64.5531 54.02C62.7331 52.2 60.9131 50.38 59.1131 48.58C58.9731 48.44 58.8131 48.3 58.6731 48.14C58.2931 47.74 58.0931 47.18 58.1331 46.74C58.1931 46.2 58.5331 45.68 59.1331 45.38C60.2731 44.8 61.4931 44.46 62.7531 44.36C63.6531 44.3 64.5531 44.34 65.4531 44.36C66.0731 44.36 66.6731 44.6 67.2731 44.72C68.2131 44.92 69.0131 45.4 69.8731 45.78C69.8731 38.3 69.8731 30.9 69.8731 23.44C68.5731 23.44 67.2931 23.4 66.0331 23.46C65.3131 23.5 64.6531 23.24 63.9331 23.22C63.5331 23.22 63.3531 23.34 63.2531 23.78C63.0131 24.68 62.6931 24.88 61.7731 24.9C61.6731 24.9 61.5731 24.9 61.4531 24.9C47.3931 24.9 33.3531 24.9 19.2931 24.9C19.0931 24.9 18.8731 24.94 18.6731 24.9C17.9931 24.76 17.3131 24.58 17.0531 23.82C16.8531 23.26 16.8531 23.26 16.2931 23.26C14.5931 23.26 12.9131 23.26 11.2131 23.26C10.9531 23.26 10.6931 23.26 10.3731 23.26C10.5931 25.06 10.1131 26.74 10.1931 28.44C10.2731 30.16 10.2131 31.9 10.2131 33.62C10.2131 49.84 10.2131 66.08 10.1931 82.3C10.1931 83.38 10.2131 84.44 10.0531 85.54C9.85306 86.78 10.0131 88.06 10.0131 89.36C11.3731 89.36 12.6331 89.36 13.9131 89.36C15.1331 89.36 16.3331 89.4 17.5531 89.54C18.8131 89.68 20.1131 89.58 21.3731 89.58C37.1131 89.58 52.8531 89.58 68.6131 89.58C68.9531 89.58 69.2931 89.58 69.6731 89.58C69.6731 87.92 69.6531 86.3 69.6731 84.68C69.6731 84.08 69.5531 83.48 69.8531 82.9C69.9331 82.76 69.8531 82.52 69.8331 82.34C69.6931 82.34 69.5931 82.32 69.5531 82.34C68.3331 83.34 67.0531 84.26 65.7331 85.12C64.5131 85.94 63.3331 86.82 62.1331 87.68C61.9931 87.78 61.8531 87.92 61.7131 87.92C61.1931 87.92 60.5931 88.12 60.2331 87.52C59.9331 87.56 59.8131 87.32 59.6531 87.16C58.3531 85.88 57.0531 84.58 55.7731 83.28C55.4931 83 55.2131 82.68 55.0531 82.34C54.8531 81.88 54.7931 81.34 55.0731 80.9C55.4131 80.34 55.8531 79.84 56.2331 79.3C56.5131 78.9 56.7531 78.48 57.0531 77.98C49.6331 77.98 42.3731 77.98 35.0731 77.98C35.0931 76.8 35.0931 75.74 35.0931 74.6ZM17.0531 16.6C15.3331 16.6 13.7131 16.58 12.0931 16.6C10.4931 16.62 8.91306 16.28 7.31306 16.38C6.15306 16.46 4.99306 16.4 3.79306 16.4C3.79306 18.4 3.81306 20.34 3.79306 22.26C3.77306 24.16 3.95306 26.08 3.59306 27.98C3.59306 33.58 3.59306 39.16 3.59306 44.76C3.59306 50.32 3.59306 55.88 3.59306 61.44C3.59306 67.04 3.55306 72.62 3.61306 78.22C3.67306 83.78 3.23306 89.34 3.39306 94.92C3.39306 95.2 3.39306 95.48 3.39306 95.74C3.39306 95.8 3.43306 95.86 3.45306 95.92C3.47306 95.94 3.51306 95.96 3.53306 95.96C5.99306 95.96 8.43306 95.92 10.8931 95.98C13.3531 96.02 15.8131 95.78 18.2731 96.18C23.0331 96.18 27.8131 96.18 32.5731 96.18C37.3131 96.18 42.0331 96.18 46.7731 96.18C51.5331 96.18 56.3131 96.16 61.0731 96.18C65.8131 96.22 70.5531 96.32 75.2731 96.38C75.6131 96.38 75.9531 96.38 76.2731 96.38C76.3131 96.26 76.3331 96.2 76.3331 96.14C76.3331 94 76.2931 91.86 76.3531 89.72C76.3931 87.58 76.2731 85.42 76.5131 83.28C76.7131 81.4 76.5531 79.5 76.5531 77.64C75.9331 77.02 75.3531 76.44 74.7531 75.86C74.4731 75.6 74.2531 75.6 73.9731 75.86C73.7131 76.1 73.4731 76.34 73.2331 76.6C73.2331 78.52 73.2531 80.46 73.2331 82.38C73.1931 85.42 73.0931 88.46 73.0331 91.52C73.0131 92.14 72.7331 92.6 72.1531 92.78C71.7331 92.92 71.3131 93.1 70.8131 93.08C69.6331 93.04 68.4731 93.02 67.2931 93.08C66.1331 93.12 64.9931 92.88 63.8531 92.88C46.6131 92.86 29.3931 92.86 12.1531 92.86C10.8331 92.86 9.51306 93 8.19306 92.66C7.57306 92.5 6.93306 92.38 6.89306 91.56C6.57306 91.26 6.69306 90.86 6.69306 90.5C6.77306 86.48 6.47306 82.48 6.89306 78.46C6.89306 59.68 6.89306 40.9 6.89306 22.1C6.89306 20.42 7.61306 19.7 9.31306 19.7C10.7931 19.7 12.2731 19.7 13.7731 19.7C13.9731 19.7 14.2331 19.62 14.3931 19.72C15.0331 20.12 15.7331 19.86 16.3931 19.9C16.9131 19.94 17.0531 19.76 17.0531 19.26C17.0531 18.4 17.0531 17.54 17.0531 16.6ZM59.9531 21.54C59.9531 20.94 59.9331 20.36 59.9531 19.78C59.9931 19.12 59.8531 18.46 60.1331 17.78C60.3531 17.22 59.9731 16.6 59.9731 16.02C59.9531 14.78 59.2931 13.84 58.5131 13.02C58.0331 12.5 57.2931 12.16 56.6131 11.92C56.0331 11.74 55.4131 11.6 54.7731 11.6C53.1931 11.62 51.5931 11.62 50.0131 11.6C49.1931 11.6 48.5131 11.08 48.3931 10.32C48.2331 9.28 47.8931 8.32 47.3531 7.44C46.3931 5.86 46.0131 5.46 44.1531 4.36C43.0131 3.68 41.7531 3.42 40.4331 3.32C40.1331 3.3 39.8131 3.28 39.4931 3.32C39.2131 3.36 38.9331 3.5 38.6531 3.5C37.8131 3.5 37.0931 3.96 36.3731 4.26C35.5131 4.62 34.8531 5.3 34.1731 5.98C33.0931 7.06 32.4931 8.36 32.2131 9.84C31.9931 11 31.2931 11.6 30.0931 11.6C28.5731 11.6 27.0531 11.66 25.5331 11.58C24.5331 11.54 23.6331 11.78 22.7931 12.24C21.3131 13.06 20.5131 14.4 20.4131 16.08C20.3331 17.6 20.3931 19.12 20.3931 20.64C20.3931 20.94 20.3931 21.24 20.3931 21.54C33.5931 21.54 46.7331 21.54 59.9531 21.54ZM63.4731 19.9C65.0131 19.9 66.4931 19.86 67.9731 19.92C69.3331 19.96 70.6731 20.22 72.0331 20.12C72.1531 20.12 72.2731 20.2 72.3931 20.24C72.7931 20.32 72.9931 20.6 73.1131 20.96C73.2731 21.48 73.6131 22.02 73.3331 22.56C73.1731 22.84 73.2131 23.08 73.2131 23.34C73.2131 31.56 73.2131 39.78 73.1931 47.98C73.1931 48.48 73.3531 48.86 73.6331 49.26C74.9131 51.12 75.6731 53.16 75.6931 55.44C75.6931 56.1 75.6731 56.78 75.9931 57.38C76.5531 57.12 76.5331 56.6 76.5331 56.08C76.5331 46.14 76.5131 36.2 76.5331 26.26C76.5331 24.84 76.4931 23.42 76.6731 22C76.8931 20.3 76.7331 18.56 76.7331 16.8C74.4731 16.8 72.2731 16.74 70.0731 16.82C67.8731 16.9 65.6731 16.38 63.4731 16.64C63.4731 17.72 63.4731 18.76 63.4731 19.9ZM73.4531 59.94C72.7131 58.7 72.3731 57.22 72.3731 56.06C72.3731 55.32 72.3731 54.6 72.1931 53.86C71.9331 52.88 71.4731 52 70.9731 51.16C70.4731 50.32 69.7731 49.66 68.9531 49.12C68.1931 48.62 67.4131 48.18 66.5531 47.9C65.5331 47.58 64.1931 47.6 63.0731 47.78C64.7331 49.44 66.3931 51.1 68.0331 52.74C68.0131 53.4 68.0731 54.02 67.8331 54.66C67.5131 55.52 67.1931 56.4 66.9731 57.32C66.8331 57.94 66.2731 58.58 65.8331 58.68C64.6731 58.92 63.5931 59.44 62.4331 59.74C61.5131 59.98 61.0531 59.9 60.4131 59.28C59.0931 57.96 57.7731 56.64 56.4531 55.32C56.2931 55.16 56.1131 55.06 55.7931 54.82C55.7931 55.46 55.7931 55.94 55.7931 56.4C55.7931 56.7 55.9731 57 55.9731 57.24C55.9731 58 56.2531 58.66 56.5331 59.3C57.2331 60.92 58.4731 62.12 59.9731 63.06C60.7531 63.54 61.6131 63.8 62.4531 64.06C62.8531 64.18 63.3531 64.06 63.7931 64.08C64.2131 64.12 64.6331 64.24 65.0531 64.28C66.0331 64.34 66.9731 64.58 67.8331 65.06C68.4731 65.42 69.1131 65.8 69.5931 66.08C70.7331 64.94 71.8131 63.86 72.9131 62.76C72.2731 61.84 72.3931 61.04 73.4531 59.94ZM93.9731 52.16C93.6531 51.04 93.3931 49.84 92.0931 49.32C91.6731 49.16 91.2531 49.02 90.8131 48.9C90.5131 48.82 90.2331 49.06 89.9731 49.08C89.3131 49.14 88.7731 49.42 88.3331 49.86C84.5731 53.6 80.8131 57.36 77.0731 61.12C76.5731 61.62 76.5731 61.68 77.0731 62.18C78.2531 63.38 79.4531 64.58 80.6531 65.76C81.1531 66.26 81.2331 66.26 81.7131 65.78C85.4731 62.02 89.2331 58.28 92.9731 54.52C93.5931 53.9 93.7931 53.08 93.9731 52.16ZM80.0331 69.76C79.0331 70.76 78.0531 71.74 77.0931 72.7C76.8531 72.94 76.8731 73.18 77.0931 73.4C77.7531 74.12 78.3931 74.88 79.0731 75.58C80.0131 76.54 80.9731 77.48 81.9131 78.44C83.2731 79.8 84.6331 81.18 86.0131 82.52C86.6731 83.16 87.4531 83.64 88.4131 83.72C89.5931 83.82 90.5531 83.42 91.3331 82.52C91.7931 82 92.0131 81.4 92.0731 80.76C92.1531 79.7 91.7531 78.78 91.0131 78C90.4931 77.46 89.9531 76.92 89.4131 76.38C87.2331 74.2 85.0331 72 82.8331 69.8C81.8731 70.08 80.9531 70.76 80.0331 69.76ZM75.1931 65.26C74.2531 66.2 73.3131 67.14 72.3731 68.08C70.2731 70.18 68.1731 72.28 66.0731 74.38C65.6531 74.8 65.1931 75.02 64.5731 75.02C63.1931 75 63.1931 75.02 62.4731 76.12C62.4131 76.22 62.3931 76.36 62.3131 76.46C61.2531 77.96 60.1731 79.44 59.0931 80.92C58.8131 81.3 58.8331 81.42 59.1731 81.78C59.6131 82.22 60.0531 82.66 60.4931 83.1C61.4531 84.06 61.4531 84.06 62.5731 83.24C63.5931 82.52 64.5931 81.76 65.5931 81.04C66.3331 80.5 67.0931 80 67.8131 79.52C67.8131 79.16 67.8331 78.88 67.8131 78.6C67.6931 77.72 68.0731 77.08 68.6931 76.48C71.5331 73.7 74.3131 70.88 77.1331 68.08C77.2931 67.92 77.4531 67.76 77.5731 67.64C76.7731 66.84 76.0131 66.1 75.1931 65.26Z" fill="#3A3A3A"/>
<path d="M35.093 74.6001C35.093 75.7401 35.093 76.8001 35.093 77.8801C42.393 77.8801 49.653 77.8801 57.073 77.8801C56.773 78.3801 56.533 78.8001 56.253 79.2001C55.873 79.7401 55.433 80.2401 55.093 80.8001C54.833 81.2401 54.873 81.7801 55.073 82.2401C55.233 82.6001 55.513 82.9001 55.793 83.1801C57.073 84.4801 58.373 85.7801 59.673 87.0601C59.833 87.2201 59.953 87.4601 60.253 87.4201C60.633 88.0001 61.213 87.8201 61.733 87.8201C61.873 87.8201 62.013 87.6801 62.153 87.5801C63.353 86.7201 64.533 85.8401 65.753 85.0201C67.073 84.1401 68.333 83.2201 69.573 82.2401C69.613 82.2001 69.713 82.2401 69.853 82.2401C69.873 82.4201 69.953 82.6601 69.873 82.8001C69.573 83.3801 69.693 83.9801 69.693 84.5801C69.673 86.2001 69.693 87.8201 69.693 89.4801C69.313 89.4801 68.973 89.4801 68.633 89.4801C52.893 89.4801 37.153 89.4801 21.393 89.4801C20.113 89.4801 18.833 89.6001 17.573 89.4401C16.353 89.3001 15.153 89.2801 13.933 89.2601C12.653 89.2601 11.393 89.2601 10.033 89.2601C10.033 87.9601 9.873 86.6801 10.073 85.4401C10.253 84.3401 10.213 83.2801 10.213 82.2001C10.233 65.9801 10.233 49.7401 10.233 33.5201C10.233 31.8001 10.293 30.0601 10.213 28.3401C10.133 26.6401 10.613 24.9601 10.393 23.1601C10.693 23.1601 10.973 23.1601 11.233 23.1601C12.933 23.1601 14.613 23.1601 16.313 23.1601C16.873 23.1601 16.873 23.1601 17.073 23.7201C17.353 24.4801 18.013 24.6601 18.693 24.8001C18.893 24.8401 19.113 24.8001 19.313 24.8001C33.373 24.8001 47.413 24.8001 61.473 24.8001C61.573 24.8001 61.673 24.8001 61.793 24.8001C62.713 24.7801 63.033 24.6001 63.273 23.6801C63.393 23.2601 63.553 23.1201 63.953 23.1201C64.653 23.1201 65.313 23.3801 66.053 23.3601C67.313 23.3001 68.593 23.3401 69.893 23.3401C69.893 30.8001 69.893 38.2201 69.893 45.6801C69.033 45.3201 68.233 44.8201 67.293 44.6201C66.693 44.5001 66.093 44.2801 65.473 44.2601C64.573 44.2401 63.673 44.2001 62.773 44.2601C61.513 44.3601 60.313 44.7001 59.153 45.2801C58.553 45.5801 58.193 46.1201 58.153 46.6401C58.113 47.0801 58.313 47.6601 58.693 48.0401C58.833 48.2001 58.993 48.3401 59.133 48.4801C60.933 50.2801 62.733 52.0801 64.573 53.9201C64.413 54.4001 64.253 54.9001 64.053 55.3801C64.013 55.5001 63.873 55.6001 63.753 55.6401C63.233 55.8201 62.713 55.9801 62.213 56.1401C60.413 54.3401 58.653 52.6201 56.953 50.8601C56.253 50.1401 55.533 49.6001 54.453 49.8801C53.473 50.4401 53.313 51.5401 52.913 52.5001C52.713 52.9801 52.833 53.5601 52.673 54.0601C52.433 54.7601 52.513 55.4601 52.493 56.1601C52.473 56.1801 52.453 56.2001 52.413 56.2201C52.393 56.2401 52.353 56.2601 52.333 56.2601C46.613 56.2601 40.873 56.2601 35.113 56.2601C35.113 57.3601 35.113 58.4201 35.113 59.5601C41.073 59.5601 47.073 59.5601 53.093 59.5601C53.273 59.9201 53.453 60.2401 53.573 60.5601C54.233 62.3001 55.453 63.6201 56.813 64.8001C57.893 65.7401 59.793 66.6801 61.573 67.0801C62.153 67.2001 62.693 67.3001 63.253 67.2401C63.753 67.1801 64.153 67.5001 64.613 67.4601C65.053 67.4401 65.473 67.4601 65.873 67.6601C66.333 67.8801 66.793 68.1001 67.253 68.3201C67.113 69.0001 66.453 68.9801 66.173 69.4001C65.893 69.8201 65.453 70.1401 65.093 70.5201C64.733 70.8801 64.373 71.2601 64.033 71.6001C63.493 71.6001 63.013 71.6001 62.533 71.6001C61.853 71.5801 61.353 71.8401 60.973 72.4401C60.533 73.1601 59.973 73.8401 59.493 74.5001C51.353 74.6001 43.273 74.6001 35.093 74.6001ZM35.093 39.7601C44.513 39.7601 53.873 39.7601 63.253 39.7601C63.253 39.1801 63.253 38.6401 63.253 38.0801C63.253 37.5401 63.253 37.0001 63.253 36.5001C53.813 36.5001 44.453 36.5001 35.093 36.5001C35.093 37.6001 35.093 38.6601 35.093 39.7601ZM21.713 40.6201C20.593 39.5001 19.513 38.4201 18.433 37.3601C18.053 37.0001 17.893 37.0001 17.513 37.3601C17.013 37.8401 16.533 38.3201 16.053 38.8201C15.693 39.1801 15.713 39.3601 16.073 39.7401C16.193 39.8601 16.313 39.9801 16.433 40.1001C17.793 41.4601 19.173 42.8201 20.533 44.2001C21.273 44.9601 22.373 44.9601 23.073 44.2001C23.333 43.9001 23.533 43.5401 23.813 43.2601C24.753 42.3001 25.593 41.2401 26.453 40.2001C27.073 39.4401 27.813 38.7801 28.413 38.0001C28.853 37.4201 29.393 36.9601 29.813 36.4001C30.433 35.5601 31.153 34.8201 31.813 34.0201C32.113 33.6601 32.393 33.3001 32.693 32.9401C32.893 32.6801 32.873 32.4401 32.633 32.2401C31.933 31.6201 31.233 31.0001 30.493 30.3401C30.253 30.6801 30.093 30.9601 29.873 31.2001C29.233 31.9401 28.553 32.6601 27.893 33.3801C27.833 33.4601 27.733 33.5201 27.673 33.6001C27.153 34.4601 26.393 35.1401 25.753 35.9201C25.193 36.6001 24.553 37.2001 24.013 37.9001C23.293 38.8401 22.593 39.7801 21.713 40.6201ZM21.753 60.5601C20.613 59.4201 19.513 58.3201 18.413 57.2201C18.073 56.9001 17.893 56.9001 17.573 57.2001C17.073 57.6801 16.593 58.1801 16.113 58.6601C15.693 59.0801 15.693 59.2201 16.113 59.6601C17.573 61.1201 19.073 62.5601 20.493 64.0601C21.213 64.8001 22.453 64.8801 23.133 64.0601C23.793 63.2601 24.413 62.4201 25.113 61.6801C26.013 60.7201 26.833 59.7001 27.673 58.7001C28.293 57.9401 28.993 57.2401 29.653 56.5201C29.713 56.4401 29.833 56.3801 29.873 56.3001C30.013 55.8001 30.473 55.5801 30.753 55.2201C31.073 54.8401 31.393 54.4401 31.713 54.0601C32.033 53.6801 32.333 53.2801 32.673 52.9001C32.933 52.6201 32.893 52.3601 32.633 52.1201C31.953 51.5201 31.273 50.9201 30.593 50.3201C30.033 50.9001 29.413 51.4001 29.013 52.0401C28.553 52.7801 27.833 53.3001 27.353 54.0401C26.813 54.8401 26.013 55.4801 25.413 56.2601C24.973 56.8201 24.413 57.2801 24.033 57.8601C23.713 58.3601 23.273 58.7201 22.913 59.1601C22.493 59.6001 22.133 60.0801 21.753 60.5601ZM21.673 78.8001C21.573 78.6601 21.493 78.5201 21.373 78.4001C20.393 77.4201 19.433 76.4401 18.453 75.4801C18.113 75.1401 17.913 75.1401 17.613 75.4201C17.073 75.9401 16.533 76.4801 15.993 77.0401C15.733 77.3001 15.753 77.5201 16.033 77.8201C16.333 78.1401 16.673 78.4601 16.973 78.7801C18.173 79.9801 19.373 81.1601 20.553 82.3801C21.273 83.1201 22.373 83.1601 23.093 82.3601C23.353 82.0601 23.553 81.7001 23.833 81.4201C24.773 80.4601 25.613 79.4001 26.473 78.3601C27.093 77.6001 27.833 76.9401 28.433 76.1601C28.873 75.5801 29.413 75.1201 29.833 74.5601C30.453 73.7401 31.153 72.9601 31.813 72.1801C32.113 71.8201 32.393 71.4601 32.693 71.1001C32.913 70.8401 32.853 70.6001 32.613 70.4001C31.913 69.7801 31.213 69.1601 30.453 68.5001C30.273 68.8001 30.173 69.0601 29.993 69.2401C28.993 70.2401 28.133 71.3601 27.213 72.4401C26.593 73.1601 25.893 73.8001 25.333 74.5601C24.933 75.1001 24.413 75.5401 24.013 76.0801C23.293 77.0001 22.573 77.9001 21.673 78.8001Z" fill="#FEFEFF"/>
<path d="M17.0532 16.6C17.0532 17.54 17.0532 18.4 17.0532 19.26C17.0532 19.76 16.8932 19.94 16.3932 19.9C15.7332 19.86 15.0332 20.1 14.3932 19.72C14.2332 19.62 13.9932 19.7 13.7732 19.7C12.2932 19.7 10.8132 19.7 9.31316 19.7C7.61316 19.7 6.89316 20.42 6.89316 22.1C6.89316 40.88 6.89316 59.66 6.89316 78.46C6.47316 82.46 6.77316 86.48 6.69316 90.5C6.69316 90.86 6.57316 91.26 6.89316 91.56C6.93316 92.4 7.55316 92.5 8.19316 92.66C9.49316 93 10.8332 92.86 12.1532 92.86C29.3932 92.86 46.6132 92.86 63.8532 92.88C64.9932 92.88 66.1332 93.12 67.2932 93.08C68.4732 93.04 69.6332 93.04 70.8132 93.08C71.2932 93.1 71.7132 92.92 72.1532 92.78C72.7332 92.6 73.0132 92.14 73.0332 91.52C73.0932 88.48 73.1932 85.44 73.2332 82.38C73.2732 80.44 73.2332 78.52 73.2332 76.6C73.4932 76.34 73.7332 76.1 73.9732 75.86C74.2532 75.6 74.4732 75.58 74.7532 75.86C75.3532 76.44 75.9332 77.02 76.5532 77.64C76.5532 79.5 76.7132 81.42 76.5132 83.28C76.2932 85.44 76.3932 87.58 76.3532 89.72C76.3132 91.86 76.3532 94 76.3332 96.14C76.3332 96.2 76.2932 96.26 76.2732 96.38C75.9532 96.38 75.6132 96.38 75.2732 96.38C70.5332 96.32 65.7932 96.22 61.0732 96.18C56.3132 96.14 51.5332 96.18 46.7732 96.18C42.0332 96.18 37.3132 96.18 32.5732 96.18C27.8132 96.18 23.0332 96.18 18.2732 96.18C15.8332 95.78 13.3532 96.02 10.8932 95.98C8.43316 95.94 5.99316 95.98 3.53316 95.96C3.51316 95.96 3.47316 95.94 3.45316 95.92C3.43316 95.86 3.39316 95.8 3.39316 95.74C3.39316 95.46 3.39316 95.18 3.39316 94.92C3.23316 89.36 3.67316 83.8 3.61316 78.22C3.55316 72.62 3.59316 67.04 3.59316 61.44C3.59316 55.88 3.59316 50.32 3.59316 44.76C3.59316 39.16 3.59316 33.58 3.59316 27.98C3.95316 26.08 3.77316 24.18 3.79316 22.26C3.81316 20.34 3.79316 18.4 3.79316 16.4C4.99316 16.4 6.15316 16.46 7.31316 16.38C8.91316 16.28 10.4932 16.62 12.0932 16.6C13.7132 16.58 15.3332 16.6 17.0532 16.6Z" fill="#B2B2B2"/>
<path d="M59.9532 21.54C46.7532 21.54 33.6132 21.54 20.3732 21.54C20.3732 21.24 20.3732 20.94 20.3732 20.64C20.3732 19.12 20.3132 17.6 20.3932 16.08C20.4932 14.4 21.2932 13.06 22.7732 12.24C23.6132 11.78 24.5132 11.54 25.5132 11.58C27.0332 11.66 28.5532 11.6 30.0732 11.6C31.2732 11.6 31.9732 11 32.1932 9.83997C32.4732 8.35997 33.0732 7.07997 34.1532 5.97997C34.8132 5.29997 35.4932 4.63997 36.3532 4.25997C37.0732 3.93997 37.7732 3.49997 38.6332 3.49997C38.9132 3.49997 39.1932 3.33997 39.4732 3.31997C39.7732 3.27997 40.0932 3.29997 40.4132 3.31997C41.7132 3.41997 42.9732 3.67997 44.1332 4.35997C45.9932 5.45997 46.3732 5.85997 47.3332 7.43997C47.8732 8.31997 48.2132 9.29997 48.3732 10.32C48.4932 11.1 49.1732 11.6 49.9932 11.6C51.5732 11.6 53.1732 11.62 54.7532 11.6C55.3932 11.6 56.0132 11.72 56.5932 11.92C57.2732 12.14 58.0132 12.5 58.4932 13.02C59.2732 13.84 59.9332 14.78 59.9532 16.02C59.9532 16.62 60.3532 17.22 60.1132 17.78C59.8532 18.46 59.9732 19.12 59.9332 19.78C59.9132 20.36 59.9532 20.94 59.9532 21.54ZM35.2932 9.97997C35.1332 11.36 35.7532 12.52 36.6732 13.48C37.5932 14.46 38.8132 14.92 40.1932 14.94C42.9932 14.98 45.2132 12.56 45.2132 9.93997C45.2132 8.57997 44.6732 7.41997 43.6932 6.43997C42.7332 5.49997 41.6132 5.01997 40.2532 4.97997C38.8332 4.91997 37.6532 5.45997 36.7132 6.39997C35.7732 7.33997 35.1732 8.49997 35.2932 9.97997Z" fill="#B2B2B2"/>
<path d="M63.4731 19.9001C63.4731 18.7601 63.4731 17.7201 63.4731 16.6401C65.6731 16.3801 67.8731 16.9001 70.0731 16.8201C72.2731 16.7401 74.4731 16.8001 76.7331 16.8001C76.7331 18.5801 76.8931 20.3201 76.6731 22.0001C76.4931 23.4401 76.5331 24.8401 76.5331 26.2601C76.5131 36.2001 76.5131 46.1401 76.5331 56.0801C76.5331 56.6001 76.5531 57.1001 75.9931 57.3801C75.6731 56.7601 75.7131 56.1001 75.6931 55.4401C75.6731 53.1601 74.9331 51.1201 73.6331 49.2601C73.3531 48.8601 73.1931 48.4801 73.1931 47.9801C73.2131 39.7601 73.1931 31.5401 73.2131 23.3401C73.2131 23.0801 73.1731 22.8401 73.3331 22.5601C73.6331 22.0201 73.2931 21.4801 73.1131 20.9601C72.9931 20.6001 72.7931 20.3201 72.3931 20.2401C72.2731 20.2201 72.1531 20.1201 72.0331 20.1201C70.6731 20.2001 69.3331 19.9601 67.9731 19.9201C66.4931 19.8801 65.0131 19.9001 63.4731 19.9001Z" fill="#B2B2B2"/>
<path d="M73.453 59.9401C72.393 61.0201 72.273 61.8401 72.953 62.7201C71.853 63.8201 70.773 64.9001 69.633 66.0401C69.153 65.7601 68.513 65.3801 67.873 65.0201C67.013 64.5401 66.073 64.3001 65.093 64.2401C64.673 64.2201 64.253 64.0801 63.833 64.0401C63.393 64.0001 62.893 64.1401 62.493 64.0201C61.653 63.7601 60.793 63.5001 60.013 63.0201C58.513 62.0801 57.273 60.9001 56.573 59.2601C56.293 58.6201 56.013 57.9601 56.013 57.2001C56.013 56.9601 55.833 56.6601 55.833 56.3601C55.833 55.8801 55.833 55.4201 55.833 54.7801C56.153 55.0201 56.333 55.1401 56.493 55.2801C57.813 56.6001 59.133 57.9201 60.453 59.2401C61.093 59.8601 61.553 59.9401 62.473 59.7001C63.633 59.4001 64.693 58.8801 65.873 58.6401C66.313 58.5401 66.873 57.9201 67.013 57.2801C67.233 56.3601 67.553 55.5001 67.873 54.6201C68.113 54.0001 68.053 53.3601 68.073 52.7001C66.433 51.0601 64.773 49.4001 63.113 47.7401C64.233 47.5801 65.593 47.5601 66.593 47.8601C67.453 48.1201 68.233 48.5801 68.993 49.0801C69.813 49.6201 70.533 50.2801 71.013 51.1201C71.513 51.9801 71.973 52.8401 72.233 53.8201C72.413 54.5601 72.433 55.2801 72.413 56.0201C72.373 57.2201 72.713 58.7001 73.453 59.9401Z" fill="#FEFEFF"/>
<path d="M93.973 52.1601C93.793 53.0801 93.573 53.9001 92.953 54.5201C89.213 58.2801 85.453 62.0401 81.693 65.7801C81.193 66.2801 81.133 66.2801 80.633 65.7601C79.433 64.5801 78.233 63.3801 77.053 62.1801C76.553 61.6801 76.553 61.6201 77.053 61.1201C80.813 57.3601 84.553 53.6001 88.313 49.8601C88.753 49.4201 89.293 49.1401 89.953 49.0801C90.213 49.0601 90.493 48.8201 90.793 48.9001C91.233 49.0001 91.653 49.1401 92.073 49.3201C93.393 49.8601 93.653 51.0401 93.973 52.1601Z" fill="#FEFEFF"/>
<path d="M80.033 69.76C80.973 70.78 81.893 70.1 82.813 69.8C85.013 72 87.213 74.2 89.393 76.38C89.933 76.92 90.473 77.44 90.993 78C91.733 78.76 92.133 79.7 92.053 80.76C92.013 81.4 91.773 82 91.313 82.52C90.533 83.42 89.573 83.82 88.393 83.72C87.433 83.64 86.653 83.16 85.993 82.52C84.613 81.18 83.253 79.8 81.893 78.44C80.933 77.48 79.973 76.56 79.053 75.58C78.373 74.88 77.733 74.14 77.073 73.4C76.853 73.16 76.853 72.92 77.073 72.7C78.053 71.72 79.013 70.76 80.033 69.76Z" fill="#FEFEFF"/>
<path d="M75.1932 65.26C76.0132 66.08 76.7732 66.84 77.5732 67.64C77.4532 67.76 77.2932 67.92 77.1332 68.08C74.3332 70.88 71.5332 73.7 68.6932 76.48C68.0732 77.1 67.6932 77.72 67.8132 78.6C67.8532 78.88 67.8132 79.16 67.8132 79.52C67.0932 80 66.3332 80.52 65.5932 81.04C64.5732 81.76 63.5732 82.5 62.5732 83.24C61.4532 84.06 61.4332 84.04 60.4932 83.1C60.0532 82.66 59.6132 82.22 59.1732 81.78C58.8332 81.42 58.8132 81.3 59.0932 80.92C60.1732 79.42 61.2332 77.94 62.3132 76.46C62.3932 76.36 62.3932 76.22 62.4732 76.12C63.1932 75 63.2132 74.98 64.5732 75.02C65.1932 75.04 65.6532 74.82 66.0732 74.38C68.1732 72.28 70.2732 70.18 72.3732 68.08C73.3132 67.14 74.2532 66.2 75.1932 65.26Z" fill="#B2B2B2"/>
<path d="M35.093 39.76C35.093 38.66 35.093 37.6 35.093 36.5C44.453 36.5 53.813 36.5 63.253 36.5C63.253 37 63.253 37.54 63.253 38.08C63.253 38.62 63.253 39.18 63.253 39.76C53.873 39.76 44.533 39.76 35.093 39.76Z" fill="#3A3A3A"/>
<path d="M21.7132 40.6201C22.5732 39.7801 23.2932 38.8401 24.0132 37.9201C24.5532 37.2401 25.1932 36.6201 25.7532 35.9401C26.3932 35.1601 27.1332 34.5001 27.6732 33.6201C27.7332 33.5401 27.8132 33.4801 27.8932 33.4001C28.5532 32.6801 29.2132 31.9601 29.8732 31.2201C30.0932 30.9801 30.2532 30.7001 30.4932 30.3601C31.2332 31.0201 31.9332 31.6401 32.6332 32.2601C32.8732 32.4801 32.8932 32.7201 32.6932 32.9601C32.3932 33.3201 32.1132 33.6801 31.8132 34.0401C31.1532 34.8401 30.4332 35.5801 29.8132 36.4201C29.3932 36.9801 28.8532 37.4401 28.4132 38.0201C27.8332 38.8001 27.0932 39.4601 26.4532 40.2201C25.5932 41.2601 24.7732 42.3201 23.8132 43.2801C23.5332 43.5601 23.3332 43.9201 23.0732 44.2201C22.3532 45.0001 21.2732 44.9801 20.5332 44.2201C19.1732 42.8401 17.7932 41.4801 16.4332 40.1201C16.3132 40.0001 16.1932 39.8801 16.0732 39.7601C15.7132 39.3601 15.6932 39.2001 16.0532 38.8401C16.5332 38.3401 17.0132 37.8601 17.5132 37.3801C17.8932 37.0201 18.0732 37.0001 18.4332 37.3801C19.5132 38.4201 20.5932 39.5001 21.7132 40.6201Z" fill="#3A3A3A"/>
<path d="M21.7531 60.56C22.1331 60.08 22.4931 59.6001 22.8731 59.1401C23.2331 58.7001 23.6731 58.3401 23.9931 57.8401C24.3731 57.2601 24.9331 56.8001 25.3731 56.2401C25.9731 55.4601 26.7731 54.8401 27.3131 54.0201C27.7931 53.3001 28.5131 52.7801 28.9731 52.0201C29.3731 51.3801 29.9931 50.9 30.5531 50.3C31.2331 50.9 31.9131 51.5 32.5931 52.1C32.8731 52.34 32.8931 52.6 32.6331 52.88C32.2931 53.26 31.9931 53.6401 31.6731 54.0401C31.3531 54.4201 31.0331 54.82 30.7131 55.2C30.4131 55.56 29.9731 55.78 29.8331 56.28C29.8131 56.36 29.6931 56.42 29.6131 56.5C28.9531 57.22 28.2731 57.94 27.6331 58.68C26.7931 59.68 25.9731 60.7 25.0731 61.66C24.3731 62.42 23.7531 63.2401 23.0931 64.0401C22.4131 64.8601 21.1731 64.7801 20.4531 64.0401C19.0331 62.5401 17.5331 61.1001 16.0731 59.6401C15.6531 59.2201 15.6531 59.0601 16.0731 58.6401C16.5531 58.1401 17.0331 57.66 17.5331 57.18C17.8531 56.86 18.0531 56.86 18.3731 57.2C19.5131 58.32 20.6131 59.42 21.7531 60.56Z" fill="#3A3A3A"/>
<path d="M21.673 78.8C22.573 77.9 23.313 76.98 24.033 76.06C24.433 75.52 24.953 75.08 25.353 74.54C25.913 73.78 26.613 73.14 27.233 72.42C28.153 71.34 29.013 70.22 30.013 69.22C30.193 69.04 30.273 68.8 30.473 68.48C31.233 69.16 31.933 69.78 32.633 70.38C32.873 70.6 32.933 70.82 32.713 71.08C32.413 71.44 32.133 71.8 31.833 72.16C31.173 72.94 30.473 73.72 29.853 74.54C29.433 75.1 28.893 75.56 28.453 76.14C27.873 76.92 27.133 77.58 26.493 78.34C25.633 79.38 24.813 80.44 23.853 81.4C23.573 81.68 23.373 82.04 23.113 82.34C22.393 83.14 21.293 83.1 20.573 82.36C19.393 81.16 18.193 79.96 16.993 78.76C16.673 78.44 16.353 78.14 16.053 77.8C15.773 77.5 15.753 77.28 16.013 77.02C16.533 76.48 17.073 75.94 17.633 75.4C17.933 75.1 18.153 75.12 18.473 75.46C19.453 76.44 20.433 77.4 21.393 78.38C21.473 78.52 21.573 78.68 21.673 78.8Z" fill="#3A3A3A"/>
<path d="M35.293 9.98011C35.173 8.52011 35.773 7.34011 36.713 6.40011C37.653 5.46011 38.833 4.92011 40.253 4.98011C41.613 5.04011 42.733 5.50011 43.693 6.44011C44.673 7.42011 45.213 8.58011 45.213 9.94011C45.213 12.5601 42.993 14.9801 40.193 14.9401C38.813 14.9201 37.593 14.4601 36.673 13.4801C35.753 12.5201 35.133 11.3401 35.293 9.98011ZM38.613 10.6801C39.633 11.9401 40.513 11.8601 41.433 11.1601C41.993 10.7401 42.033 9.26011 41.453 8.78011C40.613 8.10011 39.753 7.90011 38.613 9.22011C38.613 9.70011 38.613 10.1801 38.613 10.6801Z" fill="#3A3A3A"/>
<path d="M38.613 10.6801C38.613 10.2001 38.613 9.70006 38.613 9.24006C39.753 7.92006 40.613 8.12006 41.453 8.80006C42.033 9.26006 41.993 10.7401 41.433 11.1801C40.513 11.8601 39.613 11.9401 38.613 10.6801Z" fill="#FEFEFF"/>
</svg>
