<svg width="100" height="100" viewBox="0 0 100 100" fill="none" xmlns="http://www.w3.org/2000/svg">
<g clip-path="url(#clip0_226_595)">
<path d="M0.199932 60.76C0.199932 48.98 0.199932 37.2 0.179932 25.42C0.179932 24.58 0.419932 23.96 1.01993 23.36C7.37993 17.02 13.7199 10.68 20.0599 4.31999C20.6199 3.75999 21.1999 3.47999 22.0199 3.49999C26.3599 3.53999 30.6799 3.51999 35.0199 3.51999C35.3599 3.51999 35.5399 3.43999 35.6799 3.09999C36.0599 1.99999 36.9199 1.25999 37.8799 0.739986C38.3799 0.459986 38.9799 0.179986 39.6199 0.199986C39.7999 0.199986 39.9599 0.199986 40.1399 0.199986C58.4399 0.199986 76.7399 0.199986 95.0399 0.199986C96.8599 0.199986 98.1799 1.07999 99.1999 2.51999C99.7599 3.31999 100.04 4.19999 100.04 5.19999C100.04 23.98 100.04 42.76 100.04 61.54C100.04 63.3 99.2799 64.66 97.9799 65.78C97.9199 65.82 97.8799 65.88 97.8199 65.9C97.4599 66.08 96.8999 66.18 96.7599 66.46C96.5799 66.82 96.7199 67.34 96.7199 67.78C96.7199 72.32 96.6999 76.86 96.7399 81.4C96.7399 82.08 96.5399 82.64 96.1799 83.14C95.9399 83.46 95.7999 83.82 95.5999 84.16C94.8799 85.42 94.2799 86.74 93.4799 87.96C93.3599 88.14 93.3999 88.42 93.3999 88.64C93.3999 91.86 93.3999 95.08 93.3999 98.3C93.3999 99.04 93.0999 99.58 92.3799 99.84C92.1399 99.92 91.8599 99.98 91.5999 99.98C89.1399 99.98 86.6799 99.98 84.2199 99.98C78.4399 99.98 72.6399 99.98 66.8599 99.98C66.0199 99.98 65.3399 99.6 65.1999 98.86C65.0799 98.22 64.7599 98.32 64.3799 98.32C50.3799 98.32 36.3799 98.32 22.3799 98.32C15.5799 98.32 8.79993 98.32 1.99993 98.32C1.21993 98.32 0.659932 98.02 0.359932 97.3C0.299932 97.16 0.259932 97 0.239932 96.84C0.219932 96.64 0.239932 96.42 0.239932 96.22C0.199932 84.4 0.199932 72.58 0.199932 60.76ZM96.6799 58C96.6799 40.54 96.6799 23.08 96.6799 5.61999C96.6799 5.41999 96.6999 5.19999 96.6799 4.99999C96.6599 4.83999 96.5999 4.67999 96.5399 4.53999C96.2599 3.77999 95.6799 3.53999 94.8999 3.53999C76.6799 3.53999 58.4399 3.53999 40.2199 3.53999C40.1599 3.53999 40.0799 3.53999 40.0199 3.53999C39.3999 3.55999 38.9799 3.85999 38.6599 4.37999C38.4199 4.75999 38.4599 5.15999 38.4599 5.53999C38.4599 24.14 38.4599 42.76 38.4599 61.36C38.4599 61.5 38.4599 61.64 38.4599 61.78C38.4799 62.74 39.1199 63.42 40.0799 63.42C44.0599 63.42 48.0399 63.42 52.0399 63.42C52.2399 63.42 52.4599 63.4 52.6199 63.3C53.3599 62.88 54.1599 62.72 55.0199 62.8C55.2999 62.82 55.5799 62.82 55.8599 62.8C56.7999 62.74 57.5799 63.14 58.3399 63.62C58.8999 63.96 59.4799 64.32 60.1199 64.7C60.1199 64.3 60.1199 63.96 60.1199 63.62C60.1199 56.82 60.1199 50.04 60.1199 43.24C60.1199 42.6 59.9799 41.96 60.2999 41.34C60.3999 41.14 60.2599 40.82 60.2199 40.56C60.1999 40.36 60.1199 40.18 60.1199 39.98C60.1199 36.68 60.1199 33.4 60.1199 30.1C60.1199 29.14 60.7799 28.48 61.7399 28.48C65.0999 28.48 68.4599 28.48 71.8199 28.48C72.6999 28.48 73.3999 29.16 73.3999 30.04C73.3999 33.44 73.3999 36.84 73.3999 40.22C73.3999 40.4 73.3199 40.6 73.2599 40.78C73.0399 41.52 72.3999 41.7 71.7599 41.84C71.7599 45.36 71.7599 48.84 71.7599 52.3C72.1399 52.18 72.4999 52.08 72.8399 51.96C73.2199 51.82 73.5999 51.72 73.9999 51.76C74.3999 51.8 74.8199 51.76 75.2199 51.84C75.6199 51.92 76.0199 52.06 76.4199 52.18C76.8199 52.28 77.1199 52.5 77.4199 52.78C77.6799 53.02 78.0199 53.18 78.3599 53.4C78.3599 48.6 78.3599 43.84 78.3599 39.1C78.3599 36.08 78.3599 33.08 78.3599 30.06C78.3599 29.18 79.0399 28.48 79.9199 28.48C83.3199 28.48 86.7199 28.48 90.0999 28.48C90.2999 28.48 90.4599 28.52 90.6799 28.6C91.4199 28.94 91.6599 29.5 91.6599 30.28C91.6599 37.66 91.6599 45.04 91.6599 52.42C91.6599 52.66 91.6599 52.9 91.6599 53.14C91.6599 53.42 91.8199 53.6 92.0799 53.62C93.2799 53.8 94.1799 54.48 95.0399 55.24C95.6799 55.8 95.8799 56.62 96.2999 57.32C96.4399 57.56 96.3999 57.76 96.4399 58C96.4399 58.18 96.4399 58.34 96.4399 58.52C96.4399 58.54 96.4799 58.6 96.4999 58.6C96.5399 58.58 96.6399 58.56 96.6399 58.52C96.6799 58.34 96.6799 58.16 96.6799 58ZM3.55993 26.8C3.55993 49.6 3.55993 72.28 3.55993 94.98C24.0599 94.98 44.5399 94.98 65.0799 94.98C65.0799 92.82 65.0799 90.68 65.0799 88.54C65.0799 88.42 65.0599 88.26 64.9999 88.16C64.2999 87.24 63.5599 86.34 62.8799 85.4C62.4999 84.88 61.9799 84.42 61.7599 83.78C61.3199 82.46 60.9399 81.14 60.4999 79.84C60.4199 79.62 60.2999 79.36 60.1199 79.22C59.5999 78.82 59.0199 78.5 58.4999 78.12C57.3999 77.32 56.3599 76.46 55.2399 75.72C54.3199 75.1 53.4599 74.38 52.5199 73.78C51.1399 72.88 50.0399 71.7 49.5799 70.04C49.3799 69.32 49.1199 68.58 49.3399 67.88C49.4799 67.46 49.4399 67.12 49.4799 66.72C46.2199 66.72 43.0199 66.72 39.8399 66.72C39.2799 66.72 38.1799 66.3 37.6399 66C37.0199 65.66 36.5999 65.14 36.1199 64.66C35.8799 64.42 35.6999 64.08 35.5599 63.76C35.2599 62.98 35.0399 62.18 35.1199 61.34C35.1599 60.94 35.1199 60.52 35.1199 60.14C35.0199 60.1 34.9999 60.06 34.9799 60.06C30.0999 60.06 25.1999 60.06 20.3199 60.06C20.2799 60.06 20.2599 60.04 20.2199 60.02C20.1999 60 20.1599 59.98 20.1799 59.98C20.1799 58.88 20.1799 57.82 20.1799 56.72C25.1599 56.72 30.0999 56.72 35.0799 56.72C35.0799 55.04 35.0799 53.4 35.0799 51.72C30.0999 51.72 25.1399 51.72 20.1999 51.72C20.1999 50.6 20.1999 49.5 20.1999 48.38C25.1999 48.38 30.1399 48.38 35.1199 48.38C35.1199 46.76 35.1199 45.16 35.1199 43.58C35.1199 43.56 35.0999 43.52 35.0799 43.5C35.0599 43.48 35.0399 43.46 34.9599 43.4C30.0599 43.4 25.1199 43.4 20.1799 43.4C20.1799 42.3 20.1799 41.24 20.1799 40.1C25.1799 40.1 30.1399 40.1 35.0999 40.1C35.0999 38.4 35.0999 36.78 35.0999 35.18C35.0399 35.16 35.0199 35.12 34.9799 35.12C30.0999 35.12 25.1999 35.12 20.3199 35.12C20.2799 35.12 20.2599 35.1 20.2199 35.08C20.1999 35.06 20.1599 35.04 20.1799 35.04C20.1799 33.94 20.1799 32.86 20.1799 31.76C25.1599 31.76 30.0999 31.76 35.0799 31.76C35.0799 23.42 35.0799 15.12 35.0799 6.83999C31.1999 6.83999 27.3599 6.83999 23.4799 6.83999C23.4799 7.89999 23.5199 8.93999 23.4799 9.95999C23.3799 12.32 23.6799 14.68 23.2999 17.06C23.1599 18.02 22.8199 18.88 22.4799 19.74C21.6799 21.72 20.3599 23.34 18.6599 24.58C16.8599 25.9 14.7599 26.68 12.4999 26.76C9.53993 26.86 6.57993 26.8 3.55993 26.8ZM90.0199 96.64C90.0199 96.46 90.0199 96.28 90.0199 96.12C90.0199 93.46 90.0199 90.78 90.0199 88.12C90.0199 87.66 90.1199 87.28 90.3399 86.9C90.9799 85.72 91.6199 84.52 92.2599 83.32C92.4399 82.98 92.5999 82.64 92.8399 82.3C93.1999 81.8 93.3999 81.22 93.3999 80.56C93.3799 73.6 93.3799 66.64 93.3999 59.68C93.3999 58.7 93.1199 57.94 92.3799 57.28C91.9999 56.94 91.5599 56.88 91.1399 56.76C90.6199 56.62 90.0799 56.8 89.7199 57.04C88.9399 57.58 88.3599 58.3 88.3799 59.38C88.3999 60.3 87.6399 60.92 86.6599 60.9C85.7799 60.88 85.0799 60.22 85.0599 59.36C85.0399 58.9 85.0199 58.46 85.0599 58C85.1399 57.02 84.7799 56.26 84.0399 55.6C83.6599 55.28 83.2399 55.2 82.7999 55.08C82.2799 54.94 81.7399 55.12 81.3799 55.38C80.5999 55.92 80.0199 56.64 80.0599 57.72C80.0799 58.64 79.3199 59.26 78.3399 59.24C77.4599 59.22 76.7999 58.56 76.7399 57.68C76.7199 57.42 76.6999 57.16 76.6399 56.9C76.4999 56.3 76.0599 56 75.7199 55.6C75.3999 55.22 74.9199 55.18 74.4799 55.08C73.9599 54.94 73.4199 55.14 73.0599 55.38C72.2799 55.92 71.7199 56.64 71.7399 57.72C71.7599 58.86 70.4999 59.56 69.4399 59.1C68.6999 58.78 68.4199 58.24 68.4199 57.46C68.4399 52.58 68.3999 47.7 68.4399 42.8C68.4399 41.54 67.6799 40.54 66.5399 40.2C65.7599 39.96 65.0599 40.14 64.4199 40.66C63.6399 41.3 63.4199 42.1 63.4199 43.06C63.4399 51.1 63.4199 59.14 63.4399 67.18C63.4399 68.1 63.0199 68.66 62.2399 69.08C61.8999 69.26 61.6399 69.28 61.3199 69.08C60.3399 68.54 59.2599 68.14 58.3399 67.5C57.7199 67.06 56.9999 66.84 56.4199 66.32C56.1199 66.04 55.5599 65.84 55.1599 65.92C54.3599 66.08 53.5599 66.3 53.0799 67.16C52.5199 68.12 52.4999 68.86 53.0599 69.8C53.4199 70.4 53.9799 70.7 54.4999 71.08C55.3399 71.7 56.1999 72.32 57.0599 72.94C57.9399 73.58 58.8199 74.2 59.6999 74.84C60.7399 75.58 61.7999 76.32 62.8399 77.06C63.1399 77.28 63.3199 77.62 63.4199 77.96C63.7799 79.34 64.3999 80.62 64.6799 82.02C64.7399 82.3 64.8799 82.58 65.0399 82.8C65.9799 84.04 66.9799 85.24 67.8799 86.52C68.1799 86.96 68.4199 87.46 68.4199 88.06C68.3799 90.62 68.3999 93.18 68.3999 95.76C68.3999 96.06 68.3999 96.36 68.3999 96.66C75.6399 96.64 82.7999 96.64 90.0199 96.64ZM81.7399 51.76C82.0999 51.76 82.4599 51.78 82.7999 51.76C83.7399 51.72 84.5999 52.1 85.3999 52.48C86.1799 52.84 86.7999 53.5 87.3199 54.24C87.3799 54.32 87.4999 54.46 87.5599 54.46C88.0399 54.4 88.3399 54.02 88.3599 53.5C88.3599 53.32 88.3599 53.16 88.3599 52.98C88.3599 46.26 88.3599 39.56 88.3599 32.84C88.3599 32.5 88.3599 32.16 88.3599 31.8C86.1399 31.8 83.9999 31.8 81.8599 31.8C81.8399 31.8 81.7999 31.82 81.7799 31.84C81.7599 31.86 81.7399 31.88 81.7399 31.88C81.7399 38.5 81.7399 45.1 81.7399 51.76ZM20.1599 9.29999C15.4399 14.02 10.6999 18.76 5.97993 23.48C8.11993 23.48 10.3599 23.5 12.5999 23.46C13.1399 23.44 13.6799 23.26 14.1999 23.1C16.0999 22.52 17.6399 21.46 18.7199 19.8C19.4799 18.62 20.0599 17.34 20.1199 15.92C20.2199 13.68 20.1599 11.44 20.1599 9.29999ZM70.0399 31.82C67.7799 31.82 65.5999 31.82 63.3999 31.82C63.3999 33.66 63.3999 35.44 63.3999 37.24C63.3999 37.26 63.4199 37.3 63.4399 37.32C63.4599 37.34 63.4799 37.36 63.4799 37.34C64.5999 36.78 65.7399 36.62 66.9599 36.86C68.1199 37.08 69.1399 37.58 70.0399 38.46C70.0399 36.2 70.0399 34.04 70.0399 31.82Z" fill="#3A3A3A"/>
<path d="M96.46 58C96.42 57.78 96.48 57.56 96.32 57.32C95.9 56.62 95.7 55.8 95.06 55.24C94.18 54.48 93.28 53.78 92.1 53.62C91.84 53.58 91.68 53.42 91.68 53.14C91.68 52.9 91.68 52.66 91.68 52.42C91.68 45.04 91.68 37.66 91.68 30.28C91.68 29.5 91.44 28.94 90.7 28.6C90.5 28.5 90.32 28.48 90.12 28.48C86.72 28.48 83.32 28.48 79.94 28.48C79.06 28.48 78.38 29.18 78.38 30.06C78.38 33.08 78.38 36.08 78.38 39.1C78.38 43.84 78.38 48.6 78.38 53.4C78.04 53.18 77.7 53.02 77.44 52.78C77.14 52.5 76.82 52.3 76.44 52.18C76.04 52.06 75.64 51.92 75.24 51.84C74.84 51.78 74.42 51.8 74.02 51.76C73.6 51.72 73.24 51.84 72.86 51.96C72.5 52.08 72.16 52.18 71.78 52.3C71.78 48.84 71.78 45.34 71.78 41.84C72.4 41.68 73.04 41.52 73.28 40.78C73.34 40.6 73.42 40.4 73.42 40.22C73.42 36.82 73.44 33.42 73.42 30.04C73.42 29.16 72.72 28.5 71.84 28.48C68.48 28.48 65.12 28.48 61.76 28.48C60.8 28.48 60.14 29.14 60.14 30.1C60.14 33.4 60.14 36.68 60.14 39.98C60.14 40.18 60.22 40.36 60.24 40.56C60.28 40.82 60.42 41.14 60.32 41.34C60 41.96 60.14 42.6 60.14 43.24C60.12 50.04 60.14 56.82 60.14 63.62C60.14 63.96 60.14 64.3 60.14 64.7C59.5 64.3 58.92 63.96 58.36 63.62C57.6 63.16 56.82 62.74 55.88 62.8C55.6 62.82 55.32 62.82 55.04 62.8C54.2 62.74 53.4 62.88 52.64 63.3C52.48 63.4 52.26 63.42 52.06 63.42C48.08 63.42 44.1 63.42 40.1 63.42C39.16 63.42 38.5 62.74 38.48 61.78C38.48 61.64 38.48 61.5 38.48 61.36C38.48 42.76 38.48 24.14 38.48 5.54004C38.48 5.14004 38.44 4.76004 38.68 4.38004C39 3.84004 39.42 3.56004 40.04 3.54004C40.1 3.54004 40.18 3.54004 40.24 3.54004C58.46 3.54004 76.7 3.54004 94.92 3.54004C95.7 3.54004 96.28 3.78004 96.56 4.54004C96.62 4.70004 96.68 4.84004 96.7 5.00004C96.72 5.20004 96.7 5.42004 96.7 5.62004C96.7 23.08 96.7 40.54 96.7 58C96.6 58 96.54 58 96.46 58ZM67.54 23.48C72.88 23.48 78.22 23.48 83.54 23.48C86.28 23.48 89.02 23.48 91.76 23.48C92.64 23.48 93.34 22.8 93.34 21.92C93.34 17.42 93.34 12.92 93.34 8.40004C93.34 7.78004 93.02 7.36004 92.5 7.04004C92.12 6.80004 91.72 6.84004 91.34 6.84004C75.5 6.84004 59.66 6.84004 43.84 6.84004C43.7 6.84004 43.56 6.84004 43.42 6.84004C42.46 6.86004 41.78 7.50004 41.78 8.46004C41.78 12.94 41.78 17.4 41.78 21.88C41.78 22.08 41.82 22.28 41.88 22.46C42.18 23.24 42.8 23.5 43.62 23.5C51.6 23.46 59.56 23.48 67.54 23.48ZM48.48 28.46C46.86 28.46 45.22 28.46 43.6 28.46C42.42 28.46 41.8 29.06 41.8 30.22C41.8 33.52 41.8 36.8 41.8 40.1C41.8 41.12 42.46 41.78 43.48 41.78C46.8 41.78 50.14 41.78 53.46 41.78C54.46 41.78 55.12 41.1 55.12 40.08C55.12 36.78 55.12 33.5 55.12 30.2C55.12 29.1 54.5 28.48 53.4 28.46C51.74 28.46 50.1 28.46 48.48 28.46ZM48.48 58.4C50.1 58.4 51.74 58.4 53.36 58.4C54.46 58.4 55.08 57.78 55.08 56.66C55.08 53.36 55.08 50.08 55.08 46.78C55.08 45.76 54.42 45.08 53.42 45.08C50.1 45.08 46.76 45.08 43.44 45.08C42.42 45.08 41.78 45.74 41.76 46.76C41.76 50.06 41.76 53.34 41.76 56.64C41.76 57.78 42.38 58.38 43.58 58.38C45.22 58.4 46.86 58.4 48.48 58.4Z" fill="#B2B2B2"/>
<path d="M90.0199 96.64C82.7999 96.64 75.6399 96.64 68.3999 96.64C68.3999 96.34 68.3999 96.04 68.3999 95.74C68.3999 93.18 68.3799 90.62 68.4199 88.04C68.4199 87.42 68.1799 86.92 67.8799 86.5C66.9799 85.24 65.9799 84.02 65.0399 82.78C64.8599 82.56 64.7399 82.28 64.6799 82C64.3799 80.62 63.7599 79.32 63.4199 77.94C63.3399 77.6 63.1599 77.26 62.8399 77.04C61.7999 76.3 60.7599 75.56 59.6999 74.82C58.8199 74.2 57.9399 73.56 57.0599 72.92C56.1999 72.3 55.3399 71.7 54.4999 71.06C53.9799 70.68 53.4199 70.38 53.0599 69.78C52.4799 68.84 52.5199 68.1 53.0799 67.14C53.5599 66.28 54.3599 66.06 55.1599 65.9C55.5399 65.82 56.0999 66.02 56.4199 66.3C56.9999 66.82 57.7199 67.04 58.3399 67.48C59.2399 68.12 60.3199 68.52 61.3199 69.06C61.6599 69.24 61.8999 69.24 62.2399 69.06C63.0199 68.64 63.4399 68.08 63.4399 67.16C63.4199 59.12 63.4399 51.08 63.4199 43.04C63.4199 42.08 63.6399 41.26 64.4199 40.64C65.0599 40.12 65.7599 39.92 66.5399 40.18C67.6799 40.54 68.4399 41.54 68.4399 42.78C68.3999 47.66 68.4399 52.54 68.4199 57.44C68.4199 58.22 68.6999 58.76 69.4399 59.08C70.4999 59.54 71.7599 58.84 71.7399 57.7C71.7199 56.62 72.2799 55.9 73.0599 55.36C73.4199 55.1 73.9599 54.92 74.4799 55.06C74.9199 55.18 75.3799 55.2 75.7199 55.58C76.0599 55.98 76.4999 56.28 76.6399 56.88C76.6999 57.14 76.7199 57.4 76.7399 57.66C76.7999 58.54 77.4599 59.2 78.3399 59.22C79.3199 59.24 80.0799 58.62 80.0599 57.7C80.0199 56.62 80.6199 55.9 81.3799 55.36C81.7399 55.1 82.2999 54.94 82.7999 55.06C83.2399 55.18 83.6599 55.26 84.0399 55.58C84.7799 56.22 85.1399 57 85.0599 57.98C85.0199 58.42 85.0399 58.88 85.0599 59.34C85.0799 60.22 85.7799 60.88 86.6599 60.88C87.6399 60.9 88.3999 60.28 88.3799 59.36C88.3399 58.28 88.9399 57.56 89.7199 57.02C90.0799 56.76 90.6399 56.58 91.1399 56.74C91.5799 56.86 91.9999 56.94 92.3799 57.26C93.1199 57.92 93.3999 58.68 93.3999 59.66C93.3799 66.62 93.3799 73.58 93.3999 80.54C93.3999 81.22 93.1999 81.78 92.8399 82.28C92.5999 82.6 92.4399 82.96 92.2599 83.3C91.6199 84.5 90.9999 85.68 90.3399 86.88C90.1199 87.26 90.0199 87.66 90.0199 88.1C90.0399 90.76 90.0199 93.44 90.0199 96.1C90.0199 96.3 90.0199 96.46 90.0199 96.64Z" fill="white"/>
<path d="M20.16 9.30005C20.16 11.44 20.22 13.68 20.14 15.92C20.08 17.32 19.5 18.62 18.74 19.8C17.66 21.46 16.12 22.52 14.22 23.1C13.68 23.26 13.14 23.4401 12.62 23.46C10.38 23.5 8.14 23.48 6 23.48C10.7 18.76 15.44 14.02 20.16 9.30005Z" fill="#B2B2B2"/>
<path d="M96.46 58C96.52 58 96.6 58 96.66 58C96.66 58.18 96.66 58.34 96.66 58.52C96.66 58.54 96.58 58.58 96.52 58.6C96.5 58.6 96.46 58.56 96.46 58.52C96.46 58.34 96.46 58.16 96.46 58Z" fill="#3A3A3A"/>
<path d="M21.8199 81.6999C22.9799 81.6999 24.0199 81.6999 25.1399 81.6999C25.1399 81.3999 25.1399 81.0999 25.1399 80.7999C25.1399 77.2399 25.1399 73.6599 25.1399 70.0999C25.1399 69.3599 25.4199 68.8599 26.1199 68.5399C26.3599 68.4199 26.5599 68.4199 26.7999 68.4199C29.5799 68.4199 32.3399 68.4199 35.1199 68.4199C36.1399 68.4199 36.7799 69.0799 36.7999 70.0999C36.7999 73.7799 36.7999 77.4399 36.7999 81.1199C36.7999 81.2999 36.7999 81.4599 36.7999 81.6799C37.8999 81.6799 38.9799 81.6799 40.1199 81.6799C40.1199 80.0199 40.1199 78.3599 40.1199 76.6999C40.1199 75.9599 40.4799 75.4599 41.1599 75.1799C41.3399 75.0999 41.5399 75.0799 41.7399 75.0799C44.5399 75.0799 47.3599 75.0799 50.1599 75.0599C50.9999 75.0599 51.7999 75.8999 51.7799 76.7199C51.7199 78.1799 51.7599 79.6199 51.7599 81.0799C51.7599 81.2799 51.7599 81.4799 51.7599 81.7199C52.3599 81.7199 52.9199 81.7199 53.4599 81.7199C54.4199 81.7399 55.0799 82.3999 55.0799 83.3399C55.0799 85.5999 55.0799 87.8399 55.0799 90.0999C55.0799 90.9799 54.3999 91.6599 53.5199 91.6999C53.4199 91.6999 53.3199 91.6999 53.1999 91.6999C38.3799 91.6999 23.5399 91.6999 8.71994 91.6999C7.89994 91.6999 7.27994 91.4999 6.97994 90.6799C6.91994 90.4999 6.83994 90.2999 6.83994 90.1199C6.83994 87.8599 6.81994 85.6199 6.83994 83.3599C6.83994 82.3599 7.51994 81.7199 8.53994 81.7199C9.05994 81.7199 9.57994 81.7199 10.1599 81.7199C10.1599 80.9399 10.1599 80.1799 10.1599 79.4399C10.1599 77.9799 10.1599 76.5199 10.1599 75.0799C10.1599 74.0799 10.8199 73.4199 11.8399 73.4199C14.5799 73.4199 17.3199 73.4199 20.0599 73.4199C21.1599 73.4199 21.7999 74.0399 21.7999 75.1399C21.7999 77.0399 21.7999 78.9599 21.7999 80.8599C21.8199 81.0799 21.8199 81.3599 21.8199 81.6999ZM51.7399 85.0599C37.8799 85.0599 24.0399 85.0599 10.1999 85.0599C10.1999 86.1599 10.1999 87.2199 10.1999 88.3199C24.0599 88.3199 37.8999 88.3199 51.7399 88.3199C51.7399 87.2199 51.7399 86.1399 51.7399 85.0599ZM28.4999 81.6599C30.1999 81.6599 31.8199 81.6599 33.4399 81.6599C33.5599 78.5999 33.5199 72.5799 33.3799 71.7599C31.7599 71.7599 30.1399 71.7599 28.4999 71.7599C28.4999 75.0599 28.4999 78.3399 28.4999 81.6599ZM18.4799 76.7399C16.7799 76.7399 15.1599 76.7399 13.4999 76.7399C13.5199 78.4199 13.4799 80.0599 13.5199 81.6599C15.2199 81.6599 16.8399 81.6599 18.4799 81.6599C18.4799 79.9999 18.4799 78.3999 18.4799 76.7399ZM43.4399 78.3799C43.4399 79.3799 43.4399 80.2799 43.4399 81.1799C43.4399 81.6799 43.4399 81.6999 43.9199 81.6999C45.1399 81.6999 46.3399 81.6999 47.5599 81.6999C47.8599 81.6999 48.1599 81.6799 48.3999 81.6599C48.3999 80.5199 48.3999 79.4599 48.3999 78.3799C46.7399 78.3799 45.1199 78.3799 43.4399 78.3799Z" fill="#3A3A3A"/>
<path d="M16.7799 35.1201C14.5799 35.1201 12.4399 35.1201 10.1999 35.1201C10.1599 34.6001 10.1999 34.0601 10.1799 33.5201C10.1799 32.9801 10.1799 32.4201 10.1799 31.8401C12.3999 31.8401 14.5999 31.8401 16.7799 31.8401C16.7799 32.9401 16.7799 34.0401 16.7799 35.1201Z" fill="#3A3A3A"/>
<path d="M16.8199 40.1399C16.8199 41.2399 16.8199 42.2999 16.8199 43.3999C14.6399 43.3999 12.4599 43.3999 10.1999 43.3999C10.1599 42.8999 10.1999 42.3599 10.1799 41.8199C10.1799 41.2799 10.1799 40.7199 10.1799 40.1399C12.3799 40.1399 14.5599 40.1399 16.8199 40.1399Z" fill="#3A3A3A"/>
<path d="M16.8001 51.7399C14.6001 51.7399 12.4201 51.7399 10.2201 51.7399C10.2201 50.6599 10.2201 49.5999 10.2201 48.4999C10.2001 48.5199 10.2401 48.4799 10.2601 48.4599C10.2801 48.4399 10.3201 48.4199 10.3601 48.4199C12.5001 48.4199 14.6401 48.4199 16.8201 48.4199C16.8001 49.5199 16.8001 50.5799 16.8001 51.7399Z" fill="#3A3A3A"/>
<path d="M16.8198 56.78C16.8198 57.88 16.8198 58.94 16.8198 60.04C14.6398 60.04 12.4598 60.04 10.2198 60.04C10.1598 59.54 10.1998 59 10.1998 58.46C10.1998 57.92 10.1998 57.36 10.1998 56.78C12.3798 56.78 14.5598 56.78 16.8198 56.78Z" fill="#3A3A3A"/>
<path d="M67.54 23.4799C59.56 23.4799 51.6 23.4799 43.62 23.4799C42.8 23.4799 42.2 23.2199 41.88 22.4399C41.8 22.2599 41.78 22.0599 41.78 21.8599C41.78 17.3799 41.78 12.9199 41.78 8.43988C41.78 7.49988 42.46 6.83988 43.42 6.81988C43.56 6.81988 43.7 6.81988 43.84 6.81988C59.68 6.81988 75.52 6.81988 91.34 6.81988C91.74 6.81988 92.12 6.77988 92.5 7.01988C93.02 7.33988 93.34 7.75988 93.34 8.37988C93.34 12.8799 93.34 17.3799 93.34 21.8999C93.34 22.7799 92.64 23.4599 91.76 23.4599C89.02 23.4599 86.28 23.4599 83.54 23.4599C78.22 23.4799 72.88 23.4799 67.54 23.4799ZM45.12 20.1199C60.14 20.1199 75.06 20.1199 90 20.1199C90 16.7999 90 13.5199 90 10.2199C75.04 10.2199 60.08 10.2199 45.12 10.2199C45.12 13.5199 45.12 16.7999 45.12 20.1199Z" fill="#3A3A3A"/>
<path d="M48.48 28.46C50.1 28.46 51.74 28.46 53.36 28.46C54.46 28.46 55.08 29.08 55.08 30.2C55.08 33.5 55.08 36.78 55.08 40.08C55.08 41.1 54.42 41.78 53.42 41.78C50.1 41.78 46.76 41.78 43.44 41.78C42.42 41.78 41.76 41.12 41.76 40.1C41.76 36.8 41.76 33.52 41.76 30.22C41.76 29.08 42.38 28.48 43.56 28.46C45.22 28.46 46.84 28.46 48.48 28.46ZM51.74 31.82C49.48 31.82 47.32 31.82 45.1 31.82C45.1 34 45.1 36.14 45.1 38.28C45.1 38.32 45.12 38.34 45.14 38.38C45.16 38.4 45.18 38.42 45.18 38.42C47.38 38.42 49.56 38.42 51.74 38.42C51.74 36.2 51.74 34.04 51.74 31.82Z" fill="#3A3A3A"/>
<path d="M48.48 58.4001C46.86 58.4001 45.22 58.4001 43.6 58.4001C42.42 58.4001 41.8 57.8001 41.78 56.6601C41.78 53.3601 41.78 50.0801 41.78 46.7801C41.78 45.7601 42.44 45.1001 43.46 45.1001C46.78 45.1001 50.12 45.1001 53.44 45.1001C54.44 45.1001 55.1 45.7801 55.1 46.8001C55.1 50.1001 55.1 53.3801 55.1 56.6801C55.1 57.7801 54.48 58.4001 53.38 58.4201C51.74 58.4201 50.1 58.4001 48.48 58.4001ZM51.74 48.4601C49.48 48.4601 47.3 48.4601 45.1 48.4601C45.1 50.6401 45.1 52.7801 45.1 54.9201C45.1 54.9401 45.12 54.9801 45.14 55.0001C45.16 55.0201 45.18 55.0401 45.18 55.0401C47.38 55.0401 49.56 55.0401 51.74 55.0401C51.74 52.8401 51.74 50.6601 51.74 48.4601Z" fill="#3A3A3A"/>
<path d="M51.74 85.0601C51.74 86.1401 51.74 87.2201 51.74 88.3201C37.9 88.3201 24.06 88.3201 10.2 88.3201C10.2 87.2401 10.2 86.1601 10.2 85.0601C24.0399 85.0601 37.88 85.0601 51.74 85.0601Z" fill="#B2B2B2"/>
<path d="M28.5 81.66C28.5 78.34 28.5 75.06 28.5 71.76C30.14 71.76 31.74 71.76 33.38 71.76C33.52 72.6 33.58 78.62 33.44 81.66C31.82 81.66 30.2 81.66 28.5 81.66Z" fill="#B2B2B2"/>
<path d="M18.4799 76.74C18.4799 78.4 18.4799 80 18.4799 81.66C16.8399 81.66 15.2399 81.66 13.5199 81.66C13.4599 80.06 13.5199 78.42 13.4999 76.74C15.1599 76.74 16.7599 76.74 18.4799 76.74Z" fill="#B2B2B2"/>
<path d="M43.4399 78.3799C45.1199 78.3799 46.7399 78.3799 48.3999 78.3799C48.3999 79.4599 48.3999 80.5199 48.3999 81.6599C48.1399 81.6799 47.8399 81.6999 47.5599 81.6999C46.3399 81.6999 45.1399 81.6999 43.9199 81.6999C43.4599 81.6999 43.4399 81.6999 43.4399 81.1799C43.4399 80.2799 43.4399 79.3799 43.4399 78.3799Z" fill="#B2B2B2"/>
</g>
<defs>
<clipPath id="clip0_226_595">
<rect width="100" height="100" fill="white"/>
</clipPath>
</defs>
</svg>
