<svg width="100" height="100" viewBox="0 0 100 100" fill="none" xmlns="http://www.w3.org/2000/svg">
<path d="M74.9289 50.8201C74.9289 51.6201 74.9289 52.4001 74.9289 53.2401C76.2089 53.2401 77.4889 53.2401 78.7889 53.2401C79.1289 53.5401 79.5089 53.8401 79.8289 54.1601C81.2089 55.5201 82.5689 56.9001 83.9289 58.2601C85.3289 58.2601 86.7289 58.2601 88.2089 58.2601C88.2089 57.8601 88.2289 57.4601 88.2089 57.0601C88.1289 56.1001 88.4089 55.3401 89.4889 54.9401C92.2689 54.9401 95.1689 54.9401 98.0889 54.9401C99.2289 54.9401 99.8689 55.5801 99.8689 56.7201C99.8689 66.2801 99.8689 75.8401 99.8689 85.3201C99.7689 85.5201 99.7289 85.6401 99.6689 85.7401C99.3289 86.3001 98.8489 86.5601 98.1689 86.5401C95.2489 86.5201 92.3489 86.5401 89.4289 86.5401C88.9089 86.3001 88.4289 86.0201 88.2089 85.0601C88.2089 84.7001 88.2089 83.9801 88.2089 83.2401C87.3889 83.2401 86.5889 83.2401 85.7689 83.2401C84.8689 84.6001 83.9289 85.9801 83.0289 87.3801C82.6689 87.9401 82.2089 88.2201 81.5489 88.2201C79.3689 88.2201 77.1889 88.2201 74.9089 88.2201C74.9089 89.2601 74.9089 90.2801 74.9089 91.3001C74.9089 91.9001 74.8889 92.4801 74.7289 93.1001C74.5289 93.9001 74.1489 94.6201 73.7289 95.2801C73.0289 96.3801 72.0289 97.1601 70.7889 97.6401C70.5289 97.7401 70.2489 97.8601 70.0089 97.9601C69.8889 98.3801 69.8689 98.8001 69.6689 99.1201C69.4689 99.4401 69.0889 99.6401 68.8089 99.8801C46.5089 99.8801 24.2689 99.8801 2.00889 99.8801C1.16889 99.8801 0.488889 99.7401 0.148889 98.8601C0.108889 98.7401 0.0288889 98.6201 0.00888889 98.5001C-0.0111111 98.3201 0.00888889 98.1601 0.00888889 97.9801C0.00888889 85.6801 0.00888889 73.3801 0.00888889 61.1801C0.328889 60.4001 0.808889 59.9601 1.66889 59.9001C1.66889 58.9401 1.66889 57.9801 1.66889 57.0201C1.66889 56.3001 1.62889 55.5601 1.68889 54.8401C1.76889 53.8401 2.28889 53.3201 3.24889 53.2801C4.34889 53.2201 5.46889 53.2601 6.62889 53.2601C6.62889 46.6201 6.62889 39.9801 6.62889 33.3201C5.34889 33.3201 4.08889 33.3201 2.72889 33.3201C2.38889 32.9801 2.02889 32.6201 1.68889 32.2801C1.68889 29.8201 1.68889 27.4401 1.68889 25.0601C0.988889 24.9201 0.388889 24.6801 0.148889 23.9601C0.0688889 23.7401 0.0288889 23.5201 0.0288889 23.2801C0.0288889 21.4801 0.0288889 19.6801 0.0288889 17.9001C0.188889 17.5601 0.348889 17.2601 0.488889 16.9801C1.90889 15.9601 3.50889 15.3001 4.94889 14.3801C5.96889 13.7401 7.12889 13.2801 8.18889 12.7001C9.08889 12.2001 9.96889 11.6401 10.8689 11.1201C11.1089 10.9801 11.3889 10.8801 11.6489 10.7401C13.4289 9.84013 15.1689 8.86013 16.9089 7.88013C18.2289 7.14013 19.5689 6.42013 20.8889 5.68013C22.3089 4.86013 23.8089 4.16013 25.2089 3.32013C26.5089 2.54013 27.8889 1.90013 29.1889 1.10013C29.5489 0.880128 29.8889 0.640128 30.2689 0.440128C31.1289 -0.019872 31.1289 0.000127999 32.0889 0.000127999C32.9089 0.440128 33.7289 0.780128 34.4489 1.26013C35.9089 2.22013 37.5089 2.94013 38.9889 3.86013C39.7089 4.32013 40.5089 4.70013 41.2689 5.12013C42.3889 5.74013 43.5489 6.32013 44.6489 7.02013C45.4289 7.52013 46.3089 7.86013 47.1289 8.30013C47.9289 8.72013 48.7089 9.18013 49.5089 9.60013C49.6689 9.70013 49.8689 9.72013 50.0289 9.78013C50.3289 9.40013 50.5489 8.92013 50.8889 8.76013C51.3489 8.54013 51.5889 8.12013 51.9689 7.84013C52.3289 7.58013 52.6289 7.26013 52.9689 7.00013C53.6889 6.42013 54.4889 5.96013 55.2289 5.42013C55.7289 5.06013 58.4289 3.78013 59.1089 3.50013C59.7089 3.24013 60.2889 3.02013 60.9089 2.84013C61.6889 2.62013 62.4489 2.36013 63.2689 2.26013C63.5889 2.22013 63.9089 2.10013 64.2289 2.06013C64.5289 2.02013 64.8289 2.10013 65.0889 1.86013C65.1889 1.78013 65.4289 1.86013 65.5889 1.84013C66.2889 1.80013 66.9889 1.92013 67.6889 1.66013C68.0489 1.54013 68.5289 1.50013 68.9689 1.78013C69.1889 1.92013 69.5689 1.82013 69.8889 1.82013C70.4289 1.84013 71.0689 1.70013 71.5089 1.92013C71.9889 2.16013 72.5689 1.74013 72.9289 2.24013C73.9689 2.16013 74.9289 2.62013 75.8889 2.90013C76.9489 3.20013 78.0089 3.64013 79.0089 4.16013C80.3289 4.84013 81.6089 5.60013 82.8489 6.42013C83.2089 6.66013 83.5689 6.94013 83.8489 7.26013C84.6489 8.12013 85.8289 8.56013 86.3689 9.68013C86.4289 9.80013 86.5489 9.88013 86.6489 9.98013C87.6689 10.8601 88.3889 12.0201 89.1289 13.1201C89.6489 13.8801 90.1289 14.7001 90.5289 15.5601C91.1289 16.9001 91.7489 18.2401 92.1489 19.6801C92.4289 20.7001 92.5489 21.7401 92.8289 22.7401C93.0489 23.5601 92.8889 24.3801 93.1489 25.2001C93.3889 26.0001 93.2289 26.9201 93.1889 27.7801C93.1689 28.2401 93.0689 28.7001 92.9889 29.1401C92.9089 29.6001 93.0289 30.0401 92.8289 30.5201C92.6689 30.9401 92.6689 31.4801 92.5889 31.9801C92.4089 33.1401 92.0489 34.2601 91.6289 35.3401C91.1289 36.6601 90.5089 37.9401 89.8489 39.1801C89.3089 40.1801 88.6089 41.1201 87.9089 42.0201C86.9889 43.2201 85.8689 44.2401 84.7889 45.3001C83.6889 46.4001 82.4089 47.2801 81.0689 48.0801C80.2289 48.5801 79.3689 49.0201 78.5089 49.4601C77.6089 49.9201 76.5889 50.1801 75.6289 50.5401C75.4289 50.6401 75.1889 50.7201 74.9289 50.8201ZM14.5889 66.5401C27.4689 66.5401 40.4489 66.5401 53.5289 66.5401C53.1289 65.4401 53.1889 64.3601 53.4889 63.3001C36.7089 63.3001 20.0289 63.3001 3.36889 63.3001C3.36889 74.4001 3.36889 85.4401 3.36889 96.4801C23.4889 96.4801 43.5689 96.4801 63.6489 96.4801C63.4089 96.1601 63.2089 95.8601 62.9889 95.5601C62.1689 94.4401 61.5489 93.2201 61.5689 91.7801C61.5689 91.1601 61.5689 90.5401 61.5689 89.9201C60.2089 89.8201 59.0289 89.4201 58.0489 88.3401C57.8489 88.4601 57.5689 88.5201 57.4889 88.6801C57.0489 89.5401 56.5889 90.4201 56.5889 91.4201C56.5689 92.5801 55.9489 93.2001 54.8089 93.2001C41.3689 93.2001 27.9089 93.2001 14.4689 93.2001C14.4089 93.1401 14.3689 93.0801 14.3089 93.0601C13.5889 92.8001 13.2889 92.2401 13.3289 91.5001C13.3489 91.1201 13.2089 90.8001 13.1289 90.4401C12.8289 88.9401 11.9489 87.8801 10.6289 87.1601C9.74889 86.6801 8.78889 86.4601 8.02889 86.5201C7.20889 86.3201 6.90889 85.8401 6.66889 85.3201C6.66889 81.9201 6.68889 78.5201 6.64889 75.1401C6.64889 74.2801 6.90889 73.6601 7.70889 73.3001C7.72889 73.2801 7.74889 73.2601 7.64889 73.3601C8.24889 73.0201 8.82889 73.4801 9.24889 73.0001C9.78889 73.1001 10.2089 72.8001 10.6289 72.5801C11.5289 72.1001 12.2289 71.4201 12.6889 70.4801C13.0489 69.7401 13.3289 68.9801 13.2889 68.1401C13.2689 67.6201 13.5089 67.2401 13.8689 66.9201C14.0889 66.8001 14.3089 66.7001 14.5889 66.5401ZM47.7089 12.6601C47.6089 12.5601 47.5289 12.4201 47.4089 12.3601C46.0489 11.7001 44.8289 10.7801 43.4289 10.2001C43.2289 10.1201 43.0289 9.98013 42.8489 9.86013C42.0889 9.42013 41.3689 8.94013 40.5889 8.56013C39.6289 8.10013 38.7089 7.56013 37.7889 7.04013C36.1689 6.10013 34.5089 5.24013 32.8889 4.28013C32.4689 4.04013 32.0489 3.80013 31.5889 3.54013C31.4289 3.66013 31.2689 3.86013 31.0689 3.96013C29.2489 4.78013 27.5889 5.90013 25.7889 6.78013C25.5289 6.90013 25.2489 6.98013 25.0089 7.16013C24.1489 7.80013 23.1489 8.22013 22.2289 8.74013C21.1689 9.34013 20.0289 9.82013 19.0089 10.4801C18.0689 11.0601 17.1089 11.5601 16.1289 12.0801C15.0689 12.6401 14.0089 13.2001 13.0089 13.8001C11.3689 14.7801 9.64889 15.5801 8.02889 16.6201C7.00889 17.2801 5.86889 17.7601 4.78889 18.3201C4.30889 18.5801 3.84889 18.9001 3.38889 19.1801C3.38889 20.0201 3.38889 20.8201 3.38889 21.6201C16.9089 21.6201 30.3689 21.6201 43.8089 21.6201C44.5889 18.4001 45.7089 15.3601 47.7089 12.6601ZM74.9289 84.8401C76.9089 84.8401 78.8089 84.8401 80.7289 84.8401C81.5089 83.6201 82.2489 82.3801 83.0889 81.2201C83.4489 80.7201 83.6689 80.0601 84.3889 79.8601C85.6689 79.8601 86.9289 79.8601 88.2089 79.8601C88.3489 76.9801 88.2889 62.4601 88.1489 61.5801C86.3489 61.5801 84.5489 61.5801 82.6689 61.5801C82.3689 61.3201 81.9889 61.0201 81.6689 60.7001C80.2889 59.3401 78.9289 57.9601 77.5689 56.6001C72.5489 56.6001 67.5689 56.6201 62.5689 56.5801C61.0889 56.5801 59.7889 57.9801 59.9889 59.3801C60.0289 59.6601 60.1489 59.9401 60.2289 60.1601C60.6289 60.5601 61.0289 60.9601 61.5289 61.4601C62.1289 61.5001 62.8489 61.5601 63.5889 61.5801C65.0489 61.6001 66.5089 61.6201 67.9489 61.5601C68.7289 61.5201 69.2889 61.8201 69.8089 62.3601C71.2089 63.8001 72.6289 65.2001 74.0489 66.6001C77.1489 66.6001 80.1889 66.6001 83.2289 66.6001C83.2289 67.7201 83.2289 68.8001 83.2289 69.9201C80.4489 69.9201 77.7289 69.9201 74.9689 69.9201C74.9289 74.9201 74.9289 79.8601 74.9289 84.8401ZM44.9689 79.9201C45.0089 78.7001 44.7089 77.5601 44.3089 76.4401C44.0089 75.5601 43.5889 74.7001 43.0489 73.9601C42.4489 73.1601 41.7289 72.4201 40.9289 71.8401C39.8889 71.0801 38.7089 70.5201 37.4489 70.2201C36.7489 70.0401 36.0289 69.9601 35.2889 69.8801C34.3889 69.8001 33.5489 70.1201 32.6689 70.1201C32.2689 70.1201 31.8689 70.3601 31.4889 70.5201C31.0089 70.7201 30.5489 70.9201 30.0889 71.1401C29.7089 71.3401 29.3489 71.5601 29.0089 71.8001C28.7889 71.9601 28.6089 72.1801 28.4089 72.3801C27.8889 72.9001 27.3289 73.3801 26.8889 73.9401C26.5689 74.3401 26.4089 74.8601 26.1289 75.2801C25.7089 75.9401 25.5489 76.7001 25.2489 77.4201C25.0489 77.8801 25.3089 78.4201 24.9889 78.8801C24.8689 79.0401 24.9689 79.3601 24.9689 79.6001C24.9489 82.2801 25.8089 84.6201 27.6289 86.6001C29.5289 88.6801 31.9089 89.7401 34.6889 89.8401C37.2889 89.9201 39.5689 89.0601 41.5489 87.3401C43.7889 85.3601 44.8289 82.8601 44.9689 79.9201ZM46.6089 26.8201C46.6689 27.5401 46.5889 28.4001 46.7689 29.3001C46.9489 30.0601 47.0489 30.8401 47.2089 31.6201C47.5089 33.1601 48.0289 34.6001 48.6889 36.0001C49.7289 38.2001 51.0889 40.1601 52.8089 41.8801C54.0889 43.1801 55.5089 44.2801 57.0289 45.2601C58.1089 45.9601 59.2889 46.5201 60.4689 46.9601C61.2289 47.2601 62.0089 47.6801 62.8889 47.6201C63.6289 48.1201 64.5289 47.9601 65.3489 48.2201C65.8489 48.3801 66.4489 48.2601 67.0089 48.2401C67.5889 48.2401 68.1089 48.6001 68.6889 48.4601C69.0289 48.3801 69.3889 48.2801 69.7489 48.2601C70.4889 48.2201 71.2289 48.2801 71.9489 48.0801C72.2489 48.0001 72.5689 47.8401 72.8889 47.8601C73.2689 47.8801 73.6089 47.7401 73.9489 47.6401C75.1289 47.3201 76.3089 46.9601 77.3689 46.3801C78.1089 45.9801 78.8489 45.6001 79.5889 45.1801C80.4489 44.6801 81.1889 44.0401 81.9889 43.5001C82.7689 42.9601 83.4489 42.2801 84.1089 41.6001C84.6289 41.0601 85.0689 40.4201 85.5089 39.8001C86.0689 39.0401 86.6689 38.2801 87.1089 37.4401C87.9289 35.9401 88.6289 34.4001 89.0689 32.7401C89.3689 31.6401 89.5489 30.5201 89.8089 29.4201C89.8889 29.0601 89.8089 28.6601 89.8289 28.2801C89.8489 27.8801 89.7489 27.3801 89.9489 27.0801C90.2289 26.6401 89.8089 26.4001 89.8289 26.0601C89.8489 25.1201 89.8889 24.1801 89.6489 23.2201C89.5689 22.8801 89.4489 22.5201 89.4289 22.1601C89.4289 21.7801 89.2889 21.4601 89.2089 21.1001C88.9289 20.0801 88.6489 19.0601 88.1689 18.1001C87.5089 16.7601 86.8089 15.4601 85.9489 14.2201C85.1889 13.1601 84.3089 12.2001 83.4689 11.2001C83.1689 10.8401 82.7289 10.6401 82.3889 10.3001C81.3289 9.24013 80.0689 8.44013 78.7689 7.74013C77.5889 7.10013 76.3689 6.50013 75.0689 6.12013C73.9689 5.80013 72.9089 5.36013 71.7289 5.38013C71.0889 5.00013 70.3689 5.34013 69.7489 5.14013C69.0289 4.92013 68.3489 4.96013 67.6489 4.98013C67.1289 4.98013 66.5889 5.12013 66.0689 5.18013C65.3689 5.26013 64.6689 5.32013 63.9689 5.40013C63.6689 5.80013 63.2089 5.52013 62.8289 5.66013C60.9089 6.38013 58.9489 6.96013 57.1689 8.08013C55.9489 8.84013 54.8089 9.68013 53.7689 10.6201C52.7289 11.5601 51.8289 12.6401 50.8889 13.6801C50.8289 13.7401 50.7889 13.8401 50.7289 13.9201C50.3689 14.5401 49.9889 15.1401 49.6089 15.7401C48.7289 17.0801 48.1289 18.5401 47.6289 20.0201C47.3289 20.9401 46.9689 21.8801 46.9889 22.8801C46.5289 23.3801 46.8889 24.0401 46.6689 24.6201C46.4489 25.2001 46.5889 25.9001 46.5889 26.5601C46.6089 26.6001 46.6089 26.6401 46.6089 26.8201ZM16.5289 69.9401C15.6489 73.3201 13.5089 75.5001 10.0689 76.4001C10.0689 78.7401 10.0689 81.0801 10.0689 83.3401C11.4689 83.7201 12.6889 84.3001 13.7489 85.1801C15.2089 86.4001 16.0289 88.0401 16.5489 89.8401C20.6889 89.9601 25.2489 89.9201 26.0089 89.7401C24.2889 88.0601 23.3089 86.5401 22.3489 84.1801C21.9489 83.1801 21.7889 82.1001 21.6889 81.0401C21.5089 78.9801 21.7689 76.9401 22.5289 75.0601C23.3089 73.1401 24.4889 71.4201 26.1089 69.9401C22.8489 69.9401 19.7089 69.9401 16.5289 69.9401ZM43.2889 25.0201C30.5089 25.0201 17.7889 25.0201 5.00889 25.0201C5.00889 26.6401 5.00889 28.2401 5.00889 29.8201C5.00889 29.8401 5.02889 29.8801 5.04889 29.9001C5.06889 29.9201 5.10889 29.9401 5.08889 29.9401C17.9089 29.9401 30.6689 29.9401 43.4889 29.9401C43.4889 29.6401 43.5689 29.3401 43.4689 29.1001C43.1289 28.1601 43.3289 27.2201 43.2689 26.2801C43.2689 25.8601 43.2889 25.4401 43.2889 25.0201ZM5.04889 59.8801C22.2289 59.8801 39.4089 59.8801 56.6689 59.8801C56.4289 58.7401 56.8289 57.7001 57.0489 56.6201C39.6689 56.6201 22.3689 56.6201 5.04889 56.6201C5.04889 57.7401 5.04889 58.8001 5.04889 59.8801ZM44.9489 53.2401C44.9489 47.5401 44.9489 41.9201 44.9489 36.3001C44.9489 35.8601 44.9089 35.4401 44.7489 35.0401C44.5289 34.4801 44.3489 33.9001 44.1489 33.3401C41.5889 33.3401 39.1089 33.3401 36.6489 33.3401C36.6489 40.0001 36.6489 46.6001 36.6489 53.2401C39.4289 53.2401 42.1489 53.2401 44.9489 53.2401ZM53.3889 89.8401C54.0089 87.8401 54.8489 86.1201 56.5489 84.9601C56.6289 84.3001 56.7089 83.6601 56.8089 83.0001C55.3289 82.4001 54.3089 81.5001 53.6689 80.0601C53.0089 78.6001 53.2489 77.2601 53.9289 75.8601C53.6289 75.5601 53.3289 75.2401 53.0089 74.9401C52.4889 74.4601 52.1689 73.8601 51.8889 73.2201C51.5489 72.4001 51.6089 71.5601 51.6289 70.7401C51.6289 70.4801 51.9889 70.2401 51.7289 69.9201C49.1689 69.9201 46.6089 69.9201 44.0489 69.9201C44.0289 69.9201 43.9889 69.9601 43.9689 69.9801C43.9489 70.0001 43.9689 70.0201 43.9689 70.0601C45.0889 71.0801 45.9489 72.3001 46.6889 73.6001C47.4089 74.8801 47.8089 76.2601 48.1089 77.7001C48.4289 79.2201 48.3289 80.7201 48.0889 82.2001C47.8489 83.6401 47.3689 85.0001 46.6489 86.2801C45.9089 87.5601 45.0689 88.7801 43.8489 89.8401C47.1089 89.8401 50.2489 89.8401 53.3889 89.8401ZM18.3489 53.2201C20.6089 53.2201 22.7889 53.2201 24.9489 53.2201C25.0889 49.8401 25.0289 34.2001 24.8889 33.3201C22.7089 33.3201 20.5289 33.3201 18.3489 33.3201C18.3489 39.9801 18.3489 46.5801 18.3489 53.2201ZM91.5689 58.2801C91.5689 66.6401 91.5689 74.9001 91.5689 83.2201C93.2489 83.2201 94.8889 83.2201 96.4889 83.2201C96.4889 74.8401 96.4889 66.5801 96.4889 58.2801C94.8489 58.2801 93.2289 58.2801 91.5689 58.2801ZM10.0489 33.3201C10.0489 40.0201 10.0489 46.6201 10.0489 53.2601C11.7289 53.2601 13.3689 53.2601 14.9689 53.2601C14.9689 46.5401 14.9689 39.9401 14.9689 33.3201C13.3289 33.3201 11.7089 33.3201 10.0489 33.3201ZM28.3489 33.3201C28.3489 40.0201 28.3489 46.6201 28.3489 53.2601C29.9689 53.2601 31.5689 53.2601 33.1489 53.2601C33.1689 53.2601 33.2089 53.2401 33.2289 53.2201C33.2489 53.2001 33.2689 53.1801 33.2689 53.1801C33.2689 46.5401 33.2689 39.9201 33.2689 33.3001C31.6089 33.3201 30.0089 33.3201 28.3489 33.3201ZM65.9289 73.9201C66.1289 74.1201 66.3289 74.3601 66.5689 74.5601C67.1889 75.1001 67.6089 75.7401 67.8889 76.5001C68.1089 77.0801 68.4489 78.5401 68.2089 78.9201C67.9489 79.3401 68.0489 79.6801 68.0689 80.1201C69.8689 80.8201 71.0689 82.0601 71.5289 83.9801C71.5289 78.9801 71.5289 73.9601 71.5289 68.9401C70.9889 68.4001 70.4289 67.8201 69.8489 67.2801C69.2889 66.7401 68.8089 66.1201 68.0289 65.6001C68.1089 66.4801 67.7289 67.0801 67.3689 67.6201C66.9689 68.2401 66.3889 68.7201 65.9089 69.2601C66.8289 70.8401 66.7689 72.3601 65.9289 73.9201ZM53.2689 46.7201C52.6289 46.1601 52.1089 45.5601 51.4689 45.1401C50.8089 44.7001 50.3489 44.1401 49.8689 43.5401C49.4089 42.9401 48.8489 42.4201 48.3089 41.8401C48.3089 45.6601 48.3089 49.4401 48.3089 53.2201C49.9889 53.2201 51.6289 53.2201 53.2689 53.2201C53.2689 51.0201 53.2689 48.8801 53.2689 46.7201ZM64.9289 89.8601C64.9289 90.7201 64.7689 91.5401 64.9689 92.2401C65.5689 94.3801 67.7089 95.5201 69.7689 94.4801C70.9289 93.9001 71.5689 92.9401 71.5889 91.6401C71.6089 89.9801 71.5889 88.3201 71.5889 86.6601C71.5889 86.4801 71.5489 86.3001 71.5289 86.1201C71.3289 86.4201 71.3289 86.7801 71.1489 87.0401C70.5289 87.9201 69.8689 88.7801 68.8889 89.3001C68.2089 89.6601 67.4289 89.8601 66.6289 89.8601C66.0889 89.8801 65.5289 89.8601 64.9289 89.8601ZM56.1889 73.2201C58.0889 73.2201 60.1089 73.2201 62.0089 73.2201C63.1089 72.8001 63.3889 72.0201 63.2089 71.0601C63.1089 70.3801 62.5489 70.1801 62.1089 69.9201C60.0689 69.9201 58.0689 69.9201 55.9689 69.9201C55.6489 70.2401 55.2889 70.6001 55.0089 70.8801C54.8089 72.0201 55.0889 72.8001 56.1889 73.2201ZM63.6689 76.5601C61.7689 76.5601 59.7489 76.5601 57.8489 76.5601C56.7489 76.9801 56.4689 77.7601 56.6289 78.7401C56.7889 79.3401 57.2689 79.6401 57.7489 79.8601C59.7889 79.8601 61.7889 79.8601 63.8889 79.8601C64.2089 79.5401 64.5689 79.1801 64.8489 78.9001C65.0489 77.7601 64.7689 76.9801 63.6689 76.5601ZM66.9889 83.2201C65.0889 83.2201 63.0689 83.2201 61.1689 83.2201C60.0689 83.6401 59.7889 84.4201 59.9689 85.3801C60.0689 86.0601 60.6289 86.2601 61.0689 86.5201C63.1089 86.5201 65.1089 86.5201 67.2089 86.5201C67.5289 86.2001 67.8889 85.8401 68.1689 85.5601C68.3689 84.4201 68.0889 83.6401 66.9889 83.2201ZM56.6089 65.3201C57.0089 66.3601 57.7489 66.6001 58.7089 66.5801C60.4089 66.5401 62.0889 66.5601 63.7089 66.5601C64.4689 66.2201 64.9889 65.7801 64.9289 64.9001C64.0089 64.9001 63.1289 64.9401 62.2889 64.8801C61.7089 64.8401 61.1089 64.7401 60.5689 64.5401C59.7489 64.2401 58.9889 63.8201 58.3689 63.2201C57.3089 63.4601 57.3889 63.2401 56.6289 64.3801C56.6089 64.7401 56.6089 65.0801 56.6089 65.3201ZM61.5689 50.8201C59.9289 50.2601 58.2689 49.7001 56.5889 48.8001C56.6089 50.3601 56.5689 51.8201 56.6089 53.2401C58.3289 53.2401 59.9289 53.2401 61.5689 53.2401C61.5689 52.4201 61.5689 51.6401 61.5689 50.8201ZM71.5489 51.3201C70.4089 51.7401 69.3289 51.5601 68.2489 51.5801C67.1489 51.6001 66.0489 51.7001 64.9089 51.3401C64.9289 52.0401 64.8889 52.6601 64.9289 53.2201C67.1889 53.2201 69.3689 53.2201 71.5489 53.2201C71.5489 52.6201 71.5489 52.0401 71.5489 51.3201Z" fill="#3A3A3A"/>
<path d="M14.5889 66.5401C14.3089 66.7001 14.0889 66.8001 13.9089 66.9401C13.5489 67.2601 13.3089 67.6401 13.3289 68.1601C13.3489 69.0001 13.0889 69.7601 12.7289 70.5001C12.2689 71.4401 11.5689 72.1201 10.6689 72.6001C10.2489 72.8201 9.82894 73.1401 9.28894 73.0201C8.86894 73.5001 8.28894 73.0401 7.68894 73.3801C7.80894 73.2601 7.78894 73.3001 7.74894 73.3201C6.94894 73.6601 6.66894 74.3001 6.68894 75.1601C6.70894 78.5601 6.70894 81.9601 6.70894 85.3401C6.94894 85.8601 7.24894 86.3201 8.06894 86.5401C8.84894 86.4801 9.78894 86.7001 10.6689 87.1801C11.9889 87.9001 12.8489 88.9401 13.1689 90.4601C13.2489 90.8201 13.3889 91.1401 13.3689 91.5201C13.3289 92.2601 13.6289 92.8001 14.3489 93.0801C14.4089 93.1001 14.4489 93.1801 14.5089 93.2201C27.9489 93.2201 41.3889 93.2201 54.8489 93.2201C56.0089 93.2201 56.6089 92.6001 56.6289 91.4401C56.6489 90.4401 57.0889 89.5601 57.5289 88.7001C57.6089 88.5401 57.8889 88.4801 58.0889 88.3601C59.0489 89.4401 60.2489 89.8401 61.6089 89.9401C61.6089 90.5601 61.6089 91.1801 61.6089 91.8001C61.5889 93.2401 62.2089 94.4601 63.0289 95.5801C63.2489 95.8801 63.4489 96.1801 63.6889 96.5001C43.6089 96.5001 23.5289 96.5001 3.40894 96.5001C3.40894 85.4601 3.40894 74.4201 3.40894 63.3201C20.0689 63.3201 36.7489 63.3201 53.5289 63.3201C53.2289 64.3801 53.1689 65.4601 53.5689 66.5601C40.4689 66.5401 27.4689 66.5401 14.5889 66.5401Z" fill="#B2B2B2"/>
<path d="M47.7089 12.66C45.6889 15.36 44.5889 18.4 43.8289 21.62C30.3889 21.62 16.9289 21.62 3.40894 21.62C3.40894 20.82 3.40894 20.02 3.40894 19.18C3.86894 18.9 4.32894 18.58 4.80894 18.32C5.88894 17.74 7.02894 17.26 8.04894 16.62C9.66894 15.6 11.3889 14.78 13.0289 13.8C14.0489 13.2 15.1089 12.64 16.1489 12.08C17.1089 11.56 18.0889 11.06 19.0289 10.48C20.0689 9.84004 21.1889 9.34004 22.2489 8.74004C23.1689 8.22004 24.1689 7.80004 25.0289 7.16004C25.2489 7.00004 25.5489 6.92004 25.8089 6.78004C27.5889 5.88004 29.2489 4.76004 31.0889 3.96004C31.2889 3.86004 31.4489 3.68004 31.6089 3.54004C32.0689 3.80004 32.4889 4.02004 32.9089 4.28004C34.5089 5.24004 36.1889 6.08004 37.8089 7.04004C38.7089 7.56004 39.6489 8.10004 40.6089 8.56004C41.3889 8.94004 42.1289 9.42004 42.8689 9.86004C43.0689 9.98004 43.2489 10.12 43.4489 10.2C44.8489 10.78 46.0689 11.7 47.4289 12.36C47.5289 12.42 47.6089 12.54 47.7089 12.66ZM26.8689 11.86C27.0489 12.5 26.3889 13.18 26.7689 14C27.0489 14.64 27.1089 15.34 27.5089 15.98C27.9289 16.66 28.5089 17.1 29.1289 17.56C29.7489 18.02 30.5289 18.02 31.2089 18.28C31.5489 18.42 32.0289 18.32 32.4289 18.24C32.8089 18.18 33.1689 17.9 33.5289 17.92C34.0089 17.92 34.1689 17.48 34.5489 17.36C34.9089 17.24 35.2289 16.94 35.4889 16.64C35.7489 16.36 35.8889 15.98 36.0889 15.64C36.2889 15.3 36.5089 14.98 36.6289 14.62C36.7489 14.26 36.4889 13.8 36.8089 13.44C36.7289 12.6 36.6089 11.78 36.2289 11.02C35.6689 9.92004 34.8089 9.10004 33.6889 8.58004C32.7689 8.16004 31.2089 8.12004 30.0689 8.52004C28.4689 9.08004 27.5489 10.3 26.8689 11.86Z" fill="#B2B2B2"/>
<path d="M44.9688 79.9202C44.8488 82.8602 43.8088 85.3602 41.5688 87.3402C39.6088 89.0802 37.3088 89.9402 34.7088 89.8402C31.9288 89.7402 29.5488 88.6802 27.6488 86.6002C25.8288 84.6002 24.9688 82.2602 24.9888 79.6002C24.9888 79.3602 24.8888 79.0602 25.0088 78.8802C25.3288 78.4202 25.0688 77.8802 25.2688 77.4202C25.5688 76.7202 25.7088 75.9402 26.1488 75.2802C26.4288 74.8402 26.5888 74.3202 26.9088 73.9402C27.3688 73.3802 27.9288 72.9002 28.4288 72.3802C28.6288 72.1802 28.8088 71.9602 29.0288 71.8002C29.3688 71.5602 29.7288 71.3402 30.1088 71.1402C30.5688 70.9002 31.0288 70.7002 31.5088 70.5202C31.8888 70.3602 32.2888 70.1402 32.6888 70.1202C33.5688 70.1002 34.4088 69.8002 35.3088 69.8802C36.0488 69.9402 36.7688 70.0402 37.4688 70.2202C38.7288 70.5202 39.9088 71.0802 40.9488 71.8402C41.7488 72.4402 42.4688 73.1602 43.0688 73.9602C43.6088 74.7002 44.0288 75.5602 44.3288 76.4402C44.6888 77.5402 45.0088 78.7002 44.9688 79.9202Z" fill="#B2B2B2"/>
<path d="M91.5688 58.28C93.2288 58.28 94.8488 58.28 96.4888 58.28C96.4888 66.58 96.4888 74.84 96.4888 83.22C94.8888 83.22 93.2288 83.22 91.5688 83.22C91.5688 74.9 91.5688 66.62 91.5688 58.28Z" fill="#B2B2B2"/>
<path d="M10.0488 33.3201C11.7088 33.3201 13.3288 33.3201 14.9688 33.3201C14.9688 39.9401 14.9688 46.5601 14.9688 53.2601C13.3688 53.2601 11.7088 53.2601 10.0488 53.2601C10.0488 46.6201 10.0488 40.0001 10.0488 33.3201Z" fill="#B2B2B2"/>
<path d="M28.3489 33.3201C30.0089 33.3201 31.6289 33.3201 33.2689 33.3201C33.2689 39.9401 33.2689 46.5601 33.2689 53.2001C33.2889 53.1801 33.2689 53.2201 33.2289 53.2401C33.2089 53.2601 33.1689 53.2801 33.1489 53.2801C31.5689 53.2801 29.9689 53.2801 28.3489 53.2801C28.3489 46.6201 28.3489 40.0201 28.3489 33.3201Z" fill="#B2B2B2"/>
<path d="M53.2688 46.7201C53.2688 48.8801 53.2688 51.0201 53.2688 53.2201C51.6288 53.2201 49.9888 53.2201 48.3088 53.2201C48.3088 49.4401 48.3088 45.6601 48.3088 41.8401C48.8488 42.4201 49.4088 42.9401 49.8688 43.5401C50.3488 44.1401 50.8088 44.7001 51.4688 45.1401C52.1088 45.5801 52.6288 46.1601 53.2688 46.7201Z" fill="#B2B2B2"/>
<path d="M26.869 11.8601C27.549 10.3001 28.489 9.08009 30.049 8.56009C31.189 8.18009 32.769 8.22009 33.669 8.62009C34.789 9.12009 35.649 9.94009 36.209 11.0601C36.589 11.8201 36.709 12.6401 36.789 13.4801C36.469 13.8401 36.729 14.2801 36.609 14.6601C36.489 15.0201 36.249 15.3401 36.069 15.6801C35.869 16.0201 35.729 16.3801 35.469 16.6801C35.209 16.9801 34.889 17.2801 34.529 17.4001C34.149 17.5201 33.989 17.9601 33.509 17.9601C33.149 17.9601 32.789 18.2201 32.409 18.2801C32.009 18.3601 31.549 18.4601 31.189 18.3201C30.509 18.0601 29.729 18.0601 29.109 17.6001C28.509 17.1401 27.909 16.6801 27.489 16.0201C27.089 15.4001 27.029 14.6801 26.749 14.0401C26.389 13.1801 27.049 12.5001 26.869 11.8601ZM30.349 14.2401C30.549 14.4001 30.929 14.7001 31.229 14.9401C32.209 15.1601 32.769 14.6601 33.189 14.1601C33.329 13.7801 33.409 13.5401 33.509 13.2801C33.189 12.8801 33.289 12.2001 32.769 11.8801C32.249 11.5601 31.669 11.6601 31.089 11.6801C30.789 11.9001 30.469 12.1401 30.329 12.2401C29.969 12.9401 29.969 13.4801 30.349 14.2401Z" fill="#3A3A3A"/>
<path d="M68.3489 46.6C67.6689 46.6 67.1489 46.62 66.6289 46.6C66.2089 46.58 65.7689 46.64 65.3489 46.42C65.0089 46.24 64.5289 46.58 64.1889 46.2C63.1089 46.22 62.1889 45.7 61.2089 45.36C60.4489 45.1 59.6889 44.84 59.0089 44.36C58.5089 44.02 57.9289 43.78 57.4089 43.48C56.7489 43.12 56.1089 42.68 55.5689 42.16C55.2089 41.82 54.7689 41.54 54.4089 41.2C52.4489 39.3 50.9289 37.06 49.8689 34.56C49.6489 34.06 49.4289 33.58 49.2889 33.02C49.1689 32.48 49.0489 31.94 48.8689 31.42C48.5689 30.48 48.4289 29.5 48.3089 28.54C48.1489 27.34 48.1889 26.12 48.3089 24.9C48.3689 24.38 48.4089 23.84 48.4889 23.32C48.5689 22.78 48.8289 22.28 48.9089 21.72C48.9689 21.22 49.1289 20.72 49.3089 20.22C49.8889 18.68 50.5689 17.18 51.4689 15.82C52.2689 14.58 53.1689 13.4 54.2689 12.4C55.6089 11.18 57.0489 10.1 58.6489 9.20005C60.1289 8.36005 61.7289 7.92005 63.2889 7.32005C63.6889 7.16005 64.1689 7.40005 64.5289 7.06005C65.5089 7.02005 66.4689 6.74005 67.4689 6.84005C67.9089 6.88005 68.3689 6.86005 68.8289 6.84005C70.0489 6.80005 71.2489 6.86005 72.4089 7.26005C73.1489 7.10005 73.7289 7.62005 74.4089 7.70005C75.0289 7.78005 75.5889 8.20005 76.1889 8.40005C77.6889 8.90005 78.9889 9.78005 80.2289 10.66C81.4089 11.5 82.5089 12.54 83.4489 13.66C84.5089 14.92 85.5089 16.28 86.1889 17.82C86.7689 19.12 87.2889 20.42 87.6089 21.82C87.7689 22.52 87.8889 23.24 88.0289 23.94C88.3489 25.38 88.2089 26.8 88.1689 28.22C88.1089 30.26 87.5889 32.22 86.8089 34.1C86.3089 35.36 85.7089 36.56 84.9289 37.7C83.9089 39.2 82.7889 40.58 81.4289 41.74C80.0489 42.92 78.5489 43.98 76.8289 44.7C76.2089 44.96 75.5889 45.22 74.9889 45.52C74.3689 45.82 73.6889 45.84 73.0489 46.12C72.5289 46.36 71.8489 46.2 71.2889 46.38C70.2889 46.74 69.2289 46.52 68.3489 46.6ZM68.3289 43.28C69.0889 43.28 69.8689 43.36 70.6089 43.26C71.3089 43.18 72.0489 43.04 72.7089 42.82C74.2689 42.3 75.7689 41.68 77.1689 40.8C78.7289 39.84 80.0289 38.6 81.1689 37.24C82.2489 35.96 83.1089 34.5 83.7289 32.92C84.2889 31.48 84.6889 30 84.8289 28.5C84.9889 26.62 84.9489 24.72 84.4689 22.86C84.1689 21.74 83.7889 20.64 83.3289 19.6C83.1089 19.1 82.8289 18.62 82.5289 18.16C82.0689 17.44 81.6289 16.7 81.0489 16.08C80.2089 15.2 79.3889 14.28 78.3689 13.54C77.5089 12.94 76.6889 12.3 75.7289 11.86C75.2289 11.64 74.7089 11.46 74.2289 11.22C72.9489 10.6 71.5689 10.28 70.1889 10.22C68.5689 10.14 66.9089 9.98005 65.2889 10.38C64.5289 10.58 63.7689 10.72 63.0289 10.94C61.9889 11.26 60.9889 11.7 60.0489 12.26C58.9089 12.94 57.8289 13.7 56.8689 14.62C56.2289 15.22 55.6489 15.9 55.1089 16.6C54.5889 17.3 54.0889 18.02 53.6889 18.82C52.8689 20.5 52.4289 21.32 52.0289 23.74C51.6689 24.22 51.9689 24.82 51.7889 25.3C51.5889 25.86 51.6289 26.42 51.6089 26.98C51.6089 27.22 51.5889 27.46 51.6089 27.7C51.6489 27.96 51.7889 28.2 51.8089 28.44C51.8489 28.98 51.8689 29.48 51.9889 30.02C52.2889 31.32 52.7289 32.54 53.2489 33.76C53.8889 35.26 54.8489 36.52 55.8489 37.76C56.6889 38.82 57.7889 39.64 58.9089 40.4C59.5889 40.88 60.2889 41.42 61.0689 41.7C62.0089 42.02 62.8889 42.52 63.8889 42.7C64.8889 42.88 65.8489 43.24 66.8889 43.22C67.3689 43.26 67.8489 43.28 68.3289 43.28Z" fill="#3A3A3A"/>
<path d="M68.3288 43.2802C67.8488 43.2802 67.3488 43.2602 66.8688 43.2802C65.8288 43.3002 64.8688 42.9402 63.8688 42.7602C62.8688 42.5802 61.9888 42.0802 61.0488 41.7602C60.2688 41.5002 59.5688 40.9402 58.8888 40.4602C57.7888 39.6802 56.6888 38.8802 55.8288 37.8202C54.8288 36.5802 53.8688 35.3002 53.2288 33.8202C52.7088 32.6002 52.2888 31.3602 51.9688 30.0802C51.8488 29.5402 51.8288 29.0202 51.7888 28.5002C51.7688 28.2402 51.6288 28.0002 51.5888 27.7602C51.5488 27.5202 51.5688 27.2802 51.5888 27.0402C51.6088 26.4802 51.5688 25.9202 51.7688 25.3602C51.9488 24.8802 51.6288 24.2802 52.0088 23.8002C52.4088 21.3802 52.8488 20.5602 53.6688 18.8802C54.0488 18.0802 54.5688 17.3602 55.0888 16.6602C55.6288 15.9602 56.2088 15.3002 56.8488 14.6802C57.8088 13.7802 58.8888 13.0002 60.0288 12.3202C60.9688 11.7602 61.9688 11.3002 63.0088 11.0002C63.7488 10.7802 64.5288 10.6402 65.2688 10.4402C66.8888 10.0202 68.5488 10.2002 70.1688 10.2802C71.5488 10.3402 72.9288 10.6602 74.2088 11.2802C74.7088 11.5202 75.2088 11.6802 75.7088 11.9202C76.6688 12.3602 77.4888 12.9802 78.3488 13.6002C79.3688 14.3202 80.1888 15.2402 81.0288 16.1402C81.6088 16.7602 82.0488 17.5002 82.5088 18.2202C82.8088 18.6802 83.0888 19.1602 83.3088 19.6602C83.7888 20.7202 84.1688 21.8002 84.4488 22.9202C84.9288 24.7802 84.9688 26.7002 84.8088 28.5602C84.6688 30.0602 84.2888 31.5402 83.7088 32.9802C83.0688 34.5802 82.2288 36.0402 81.1488 37.3002C80.0088 38.6602 78.7088 39.9002 77.1488 40.8602C75.7288 41.7402 74.2288 42.3602 72.6888 42.8802C72.0288 43.1002 71.2888 43.2202 70.5888 43.3202C69.8688 43.3402 69.0888 43.2802 68.3288 43.2802ZM73.6288 15.7602C69.1488 21.8802 64.7088 27.9202 60.2288 34.0002C61.0488 34.6202 61.8088 35.1802 62.5488 35.7402C62.7688 35.7402 62.9888 35.7402 63.1088 35.7402C63.6288 35.0202 64.0888 34.3802 64.5488 33.7602C65.2288 32.8602 65.9088 31.9802 66.5688 31.0602C67.2688 30.1002 67.9488 29.1402 68.6488 28.1802C69.3088 27.2802 70.0688 26.4202 70.6688 25.4802C71.5688 24.0602 72.6888 22.8202 73.5888 21.4002C74.3288 20.2402 75.2488 19.1802 76.0488 18.0602C76.1288 17.9402 76.1088 17.7402 76.1288 17.6202C75.3088 17.0002 74.4888 16.4002 73.6288 15.7602ZM73.7688 26.8402C73.1888 27.0602 72.7488 27.1402 72.4088 27.3602C70.3088 28.7202 69.4088 30.9802 70.1088 33.2602C70.2688 33.7602 70.4688 34.2402 70.7688 34.6402C71.1488 35.1402 71.6088 35.5802 72.0888 35.9602C72.4288 36.2402 72.8688 36.4402 73.2888 36.5402C73.7288 36.6402 74.1888 36.7202 74.6288 36.8002C75.0088 36.8802 75.4088 36.7002 75.7888 36.6402C77.0888 36.4402 78.0888 35.7802 78.8488 34.7802C79.3688 34.1002 79.7688 33.2802 79.8488 32.4002C79.9688 31.0802 79.7088 29.8602 78.8488 28.7602C78.0288 27.7002 76.6488 26.8202 75.3888 26.8202C74.7888 26.8402 74.1688 26.8402 73.7688 26.8402ZM63.0488 16.8802C62.4488 17.0402 61.7688 16.4202 61.0088 16.7202C60.3488 16.9802 59.6288 17.0202 59.0288 17.4402C58.3888 17.8802 57.8688 18.4202 57.4088 19.0402C56.9688 19.6402 56.9288 20.3802 56.6088 21.0002C56.4288 23.3202 57.5088 25.7002 60.4088 26.6002C61.5488 26.6202 62.6688 26.8202 63.7688 26.2602C64.8288 25.7202 65.6488 24.9602 66.1488 23.9602C66.7088 22.8602 66.7888 21.0002 66.3688 19.9802C65.7688 18.4802 64.6288 17.5202 63.0488 16.8802Z" fill="#B2B2B2"/>
<path d="M73.6288 15.76C74.4888 16.4 75.3088 17 76.1488 17.62C76.1288 17.74 76.1488 17.94 76.0688 18.06C75.2488 19.18 74.3288 20.24 73.6088 21.4C72.7088 22.82 71.5888 24.06 70.6888 25.48C70.0888 26.42 69.3288 27.28 68.6688 28.18C67.9688 29.14 67.2888 30.1 66.5888 31.06C65.9288 31.96 65.2288 32.86 64.5688 33.76C64.1088 34.38 63.6488 35.02 63.1288 35.74C63.0088 35.74 62.7888 35.74 62.5688 35.74C61.8288 35.18 61.0888 34.62 60.2488 34C64.7088 27.92 69.1488 21.88 73.6288 15.76Z" fill="#3A3A3A"/>
<path d="M73.7688 26.8401C74.1688 26.8401 74.7888 26.8401 75.4088 26.8401C76.6688 26.8401 78.0288 27.7201 78.8688 28.7801C79.7288 29.8801 79.9888 31.1001 79.8688 32.4201C79.7888 33.3001 79.3888 34.1201 78.8688 34.8001C78.1088 35.8001 77.1088 36.4601 75.8088 36.6601C75.4288 36.7201 75.0288 36.9001 74.6488 36.8201C74.2088 36.7401 73.7488 36.6801 73.3088 36.5601C72.8888 36.4601 72.4488 36.2401 72.1088 35.9801C71.6288 35.6001 71.1688 35.1601 70.7888 34.6601C70.4888 34.2601 70.2688 33.7801 70.1288 33.2801C69.4288 31.0001 70.3288 28.7201 72.4288 27.3801C72.7688 27.1601 73.1888 27.0601 73.7688 26.8401ZM74.1088 30.1801C73.7888 30.5801 73.5088 30.9401 73.2288 31.2801C73.2288 31.6601 73.2288 32.0201 73.2288 32.3001C73.4288 32.5801 73.5888 32.8201 73.7688 33.0801C74.1688 33.1001 74.4488 33.6201 74.9088 33.5001C75.3288 33.3801 75.7488 33.1801 75.9688 33.1001C76.2488 32.7401 76.3888 32.5201 76.5288 32.3401C76.5288 31.9801 76.5288 31.6401 76.5288 31.2401C76.2288 30.9001 75.9088 30.5201 75.6288 30.1801C75.1088 30.1801 74.6688 30.1801 74.1088 30.1801Z" fill="#3A3A3A"/>
<path d="M63.0489 16.8802C64.6289 17.5202 65.7689 18.5002 66.3689 19.9802C66.7889 21.0002 66.7089 22.8602 66.1489 23.9602C65.6289 24.9802 64.8089 25.7402 63.7689 26.2602C62.6689 26.8202 61.5489 26.6202 60.4089 26.6002C57.5089 25.7002 56.4289 23.3002 56.6089 21.0002C56.9289 20.3802 56.9689 19.6402 57.4089 19.0402C57.8689 18.4202 58.3889 17.8802 59.0289 17.4402C59.6289 17.0202 60.3689 16.9802 61.0089 16.7202C61.7489 16.4202 62.4289 17.0202 63.0489 16.8802ZM62.2689 23.3202C62.6289 22.9802 62.9489 22.6802 63.2489 22.4002C63.2489 21.9602 63.2489 21.5402 63.2489 21.1202C63.0089 20.8002 62.7889 20.4802 62.5689 20.2002C62.0089 20.2402 61.5689 19.7602 60.9889 20.1802C60.5489 20.5202 60.1889 20.8602 59.9489 21.3602C59.7289 22.2202 60.2689 22.7802 60.8689 23.3202C61.3089 23.3202 61.7689 23.3202 62.2689 23.3202Z" fill="#3A3A3A"/>
</svg>
