<svg width="100" height="100" viewBox="0 0 100 100" fill="none" xmlns="http://www.w3.org/2000/svg">
<g clip-path="url(#clip0_226_636)">
<path d="M62.2601 51.64C60.8001 52.08 59.5801 52.5 58.3401 52.84C56.7401 53.28 55.3201 54.04 54.0601 55.1C52.8401 56.12 51.8801 57.36 51.1601 58.8C50.4201 60.26 49.9401 61.8 49.9401 63.4C49.9001 74.94 49.9201 86.48 49.9201 98.02C49.9201 98.16 49.9201 98.3 49.9201 98.44C49.9401 99.1 50.2601 99.5 50.8401 99.84C51.2201 100.06 51.5601 100 51.9201 100C67.2601 100 82.5801 100 97.9201 100C98.0601 100 98.2001 100 98.3401 100C99.1001 100.02 99.6201 99.66 99.8601 98.96C99.9601 98.66 99.9801 98.3 99.9801 97.96C99.9801 86.98 99.9801 75.98 99.9801 65C99.9801 64.02 100.02 63.04 99.8201 62.06C99.5801 60.9 99.2401 59.8 98.7201 58.76C98.2401 57.78 97.6601 56.84 96.8601 56.1C96.2401 55.52 95.6401 54.9 94.9401 54.42C94.2201 53.94 93.4601 53.52 92.6201 53.24C91.3601 52.82 90.1201 52.4 88.8401 52.02C87.4001 51.6 86.0601 51.04 85.0201 49.9C83.9401 48.7 83.3801 47.3 83.3001 45.72C83.2801 45.2 83.3001 44.68 83.3001 44.26C84.2801 43.32 85.2001 42.46 86.1201 41.58C87.0601 40.7 87.6801 39.6 88.2801 38.52C88.7201 37.74 89.0801 36.9 89.3201 36.04C89.6601 34.8 89.9801 33.54 89.9801 32.24C89.9601 30.92 89.9801 29.62 89.9801 28.24C90.5401 28.24 91.0601 28.24 91.5801 28.24C93.4401 28.26 94.8201 27.4 95.8201 25.88C95.9401 25.68 96.1601 25.52 96.2201 25.32C96.4201 24.56 96.7401 23.82 96.6601 23C96.6001 22.42 96.6601 21.82 96.6401 21.22C96.6401 20.92 96.5201 20.64 96.4601 20.36C96.2601 19.36 95.6801 18.64 95.0001 17.92C94.1001 16.96 92.9601 16.6 91.7001 16.56C91.1201 16.54 90.5401 16.56 89.9601 16.56C89.9601 15.32 89.9801 14.18 89.9601 13.02C89.9401 11.86 89.9801 10.72 89.8001 9.55998C89.6401 8.53998 89.3401 7.57998 88.9001 6.67998C87.8001 4.35998 86.8801 3.41998 85.1201 2.01998C84.1401 1.23998 82.9201 0.75998 81.7401 0.35998C80.8201 0.0399804 79.8201 -0.14002 78.8201 -0.14002C73.3601 -0.14002 67.9001 -0.14002 62.4401 -0.14002C59.9001 -0.14002 57.3601 -0.16002 54.8201 -0.12002C53.8601 -0.10002 53.3401 0.41998 53.2601 1.43998C53.2201 2.01998 53.2601 2.59998 53.2601 3.19998C52.8401 3.19998 52.4801 3.19998 52.1401 3.19998C36.5201 3.19998 20.9201 3.19998 5.30011 3.19998C5.12011 3.19998 4.96011 3.19998 4.78011 3.19998C4.10011 3.17998 3.70011 3.51998 3.36011 4.09998C3.16011 4.45998 3.20011 4.79998 3.20011 5.15998C3.20011 19.98 3.20011 34.78 3.20011 49.6C3.20011 49.74 3.20011 49.88 3.20011 50.02C3.22011 50.68 3.54011 51.08 4.12011 51.42C4.50011 51.64 4.84011 51.6 5.20011 51.6C15.2201 51.6 25.2201 51.6 35.2801 51.6C35.4001 51.82 35.5201 52.06 35.6801 52.26C36.4401 53.06 37.2001 53.84 37.9001 54.68C38.8401 55.8 39.9001 56.84 40.9001 57.92C40.9801 58 41.0801 58.06 41.1201 58.14C41.3801 58.8 42.0201 59.16 42.4601 59.68C42.9001 60.2 43.3001 60.74 43.8001 61.2C44.2801 61.66 44.9001 61.78 45.5601 61.52C46.2401 61.24 46.6001 60.74 46.6001 59.98C46.6001 58.04 46.6001 56.08 46.6001 54.14C46.6001 53.32 46.6001 52.48 46.6001 51.66C51.7601 51.64 56.9001 51.64 62.2601 51.64ZM9.90011 71.62C9.68011 70.42 9.16011 69.96 8.10011 69.96C5.90011 69.96 3.72011 69.96 1.52011 69.96C0.520107 69.96 -0.139893 70.64 -0.139893 71.66C-0.139893 73.36 -0.139893 75.06 -0.139893 76.78C-0.139893 82.84 -0.139893 88.88 -0.139893 94.94C-0.139893 96.04 0.480107 96.68 1.58011 96.68C3.78011 96.68 5.96011 96.68 8.16011 96.68C8.42011 96.68 8.66011 96.64 8.92011 96.52C9.60011 96.22 9.78011 95.68 9.94011 95.04C10.2401 95.04 10.5401 95.04 10.8401 95.04C11.7801 95.98 12.7201 96.92 13.6401 97.84C13.9801 98.18 14.3801 98.36 14.9001 98.36C21.7201 98.34 28.5401 98.36 35.3401 98.34C36.1601 98.34 36.9401 98.02 37.6201 97.58C38.1401 97.26 38.5801 96.76 38.9401 96.26C39.5201 95.46 39.8801 94.56 39.9201 93.54C39.9601 92.6 39.7001 91.78 39.2401 90.98C39.5801 90.64 39.8801 90.28 40.2201 90.02C40.8401 89.54 41.1401 88.88 41.3601 88.2C41.8201 86.84 41.6001 85.52 40.9801 84.26C41.8201 83.36 42.8601 82.6 43.0801 81.18C43.2801 79.84 43.4201 79.5 42.6601 77.56C43.0201 77.2 43.4001 76.82 43.7601 76.46C44.4201 75.82 44.6801 74.96 44.9001 74.12C45.1601 73.08 44.7001 71.34 44.0801 70.52C43.8201 70.16 43.4601 69.86 43.1201 69.56C42.2601 68.78 41.2601 68.34 40.0801 68.32C36.4201 68.3 32.7801 68.32 29.1201 68.32C28.8201 68.32 28.5201 68.32 28.2001 68.32C28.2001 67.54 28.1801 66.84 28.2001 66.14C28.2401 65.2 28.1601 64.28 27.7801 63.38C27.5201 62.76 27.4401 62.04 27.0601 61.5C26.5801 60.78 26.1401 60.02 25.3601 59.48C24.5201 58.9 23.6401 58.46 22.7001 58.34C21.1601 58.14 19.6401 58.4 18.3401 59.36C17.4801 59.98 16.7801 60.78 16.3401 61.72C15.9201 62.64 15.7601 63.66 15.6801 64.68C15.6201 65.28 15.4801 65.88 15.4001 66.46C15.2801 67.34 15.0801 68.2 15.0001 69.06C14.1201 69.94 13.2601 70.8 12.4201 71.66C11.6201 71.62 10.8001 71.62 9.90011 71.62Z" fill="white"/>
<path d="M62.2601 51.6399C56.9001 51.6399 51.7601 51.6399 46.5801 51.6399C46.5801 52.4799 46.5801 53.2999 46.5801 54.1199C46.5801 56.0599 46.5801 58.0199 46.5801 59.9599C46.5801 60.7199 46.2201 61.2199 45.5401 61.4999C44.9001 61.7599 44.2801 61.6399 43.7801 61.1799C43.2801 60.7199 42.8801 60.1799 42.4401 59.6599C42.0001 59.1399 41.3801 58.7999 41.1001 58.1199C41.0601 58.0399 40.9601 57.9799 40.8801 57.8999C39.8801 56.8199 38.8201 55.7799 37.8801 54.6599C37.1801 53.8199 36.4201 53.0399 35.6601 52.2399C35.4801 52.0599 35.3801 51.7999 35.2601 51.5799C25.2001 51.5799 15.2001 51.5799 5.18009 51.5799C4.82009 51.5799 4.48009 51.6199 4.10009 51.3999C3.52009 51.0599 3.20009 50.6599 3.18009 49.9999C3.18009 49.8599 3.18009 49.7199 3.18009 49.5799C3.18009 34.7599 3.18009 19.9599 3.18009 5.13994C3.18009 4.77994 3.14009 4.43994 3.36009 4.05994C3.70009 3.47994 4.10009 3.13994 4.78009 3.15994C4.96009 3.15994 5.12009 3.15994 5.30009 3.15994C20.9201 3.15994 36.5201 3.15994 52.1401 3.15994C52.4801 3.15994 52.8201 3.15994 53.2601 3.15994C53.2601 2.55994 53.2201 1.97994 53.2601 1.39994C53.3401 0.379941 53.8801 -0.140059 54.8201 -0.160059C57.3601 -0.200059 59.9001 -0.180059 62.4401 -0.180059C67.9001 -0.180059 73.3601 -0.180059 78.8201 -0.180059C79.8201 -0.180059 80.8401 -5.85765e-05 81.7401 0.319941C82.9201 0.719941 84.1201 1.19994 85.1201 1.97994C86.8801 3.37994 87.8201 4.33994 88.9001 6.63994C89.3201 7.53994 89.6401 8.49994 89.8001 9.51994C89.9801 10.6799 89.9601 11.8199 89.9601 12.9799C89.9801 14.1199 89.9601 15.2799 89.9601 16.5199C90.5401 16.5199 91.1201 16.4999 91.7001 16.5199C92.9601 16.5799 94.1001 16.9199 95.0001 17.8799C95.6801 18.5999 96.2601 19.2999 96.4601 20.3199C96.5201 20.5999 96.6401 20.8799 96.6401 21.1799C96.6401 21.7799 96.6001 22.3599 96.6601 22.9599C96.7401 23.7999 96.4201 24.5199 96.2201 25.2799C96.1601 25.4799 95.9401 25.6399 95.8201 25.8399C94.8201 27.3599 93.4401 28.2199 91.5801 28.1999C91.0601 28.1999 90.5401 28.1999 89.9801 28.1999C89.9801 29.5599 89.9801 30.8799 89.9801 32.1999C90.0001 33.4999 89.6601 34.7599 89.3201 35.9999C89.0801 36.8599 88.7201 37.6999 88.2801 38.4799C87.6601 39.5799 87.0401 40.6799 86.1201 41.5399C85.2001 42.3999 84.2801 43.2799 83.3001 44.2199C83.3001 44.6399 83.2801 45.1599 83.3001 45.6799C83.4001 47.2799 83.9401 48.6599 85.0201 49.8599C86.0601 51.0199 87.4001 51.5599 88.8401 51.9799C90.1001 52.3599 91.3601 52.7599 92.6201 53.1999C93.4801 53.4799 94.2401 53.8999 94.9401 54.3799C95.6401 54.8599 96.2401 55.4799 96.8601 56.0599C97.6601 56.8199 98.2401 57.7599 98.7201 58.7199C99.2401 59.7599 99.5801 60.8799 99.8201 62.0199C100.02 63.0199 99.9801 63.9799 99.9801 64.9599C100 75.9399 99.9801 86.9399 99.9801 97.9199C99.9801 98.2599 99.9601 98.5999 99.8601 98.9199C99.6201 99.6199 99.0801 99.9799 98.3401 99.9599C98.2001 99.9599 98.0601 99.9599 97.9201 99.9599C82.5801 99.9599 67.2601 99.9599 51.9201 99.9599C51.5601 99.9599 51.2201 99.9999 50.8401 99.7999C50.2401 99.4599 49.9401 99.0599 49.9201 98.3999C49.9201 98.2599 49.9201 98.1199 49.9201 97.9799C49.9201 86.4399 49.9001 74.8999 49.9401 63.3599C49.9401 61.7599 50.4201 60.2199 51.1601 58.7599C51.8801 57.3199 52.8401 56.0799 54.0601 55.0599C55.3001 53.9999 56.7401 53.2399 58.3401 52.7999C59.5801 52.4999 60.8001 52.0999 62.2601 51.6399ZM59.9401 28.2199C59.2201 28.2199 58.5201 28.2199 57.8401 28.2199C57.1601 28.2199 56.5001 27.9799 55.9801 27.6599C54.2401 26.5799 53.1401 25.0599 53.2401 22.8799C53.2601 22.4199 53.2601 21.9799 53.2401 21.5199C53.1801 20.4799 53.6001 19.5999 54.1001 18.7399C54.3001 18.3999 54.6601 18.1399 54.9601 17.8399C55.8401 16.9599 56.9201 16.5199 58.1601 16.5199C58.7401 16.5199 59.3201 16.5199 59.8801 16.5199C60.0801 15.9599 59.7201 15.7199 59.4401 15.5199C58.7601 15.0799 58.1401 14.5799 57.5601 14.0199C56.8601 13.3399 56.3001 12.5399 55.7201 11.7599C54.7401 10.4199 54.1601 8.85994 53.7001 7.27994C53.4801 6.51994 53.5201 6.49994 52.7401 6.49994C52.6401 6.49994 52.5401 6.49994 52.4201 6.49994C37.4801 6.49994 22.5201 6.49994 7.58009 6.49994C7.24009 6.49994 6.90009 6.49994 6.58009 6.49994C6.40009 12.3599 6.48009 47.2999 6.68009 48.2199C16.3801 48.2199 26.0801 48.2199 35.7801 48.1999C36.4801 48.1999 37.0201 48.4599 37.3401 48.9199C37.7201 49.4599 38.2201 49.8599 38.6201 50.3599C39.0401 50.8399 39.4401 51.3399 39.8801 51.8199C40.8801 52.8999 41.9001 53.9799 42.9001 55.0599C43.0201 55.1799 43.1001 55.3599 43.2801 55.6599C43.2801 55.3799 43.2801 55.2599 43.2801 55.1199C43.2801 53.3799 43.2801 51.6399 43.2801 49.8999C43.2801 49.1599 43.6201 48.6599 44.3001 48.3399C44.6201 48.1799 44.9001 48.2399 45.2001 48.2399C52.1201 48.2399 59.0401 48.2399 65.9401 48.2399C66.6801 46.9599 66.7201 45.5599 66.6601 44.1999C65.7801 43.3799 64.9201 42.5999 64.0801 41.7999C62.6001 40.3799 61.6001 38.6599 60.9201 36.7399C60.3601 35.1799 59.9601 33.5799 60.0001 31.8999C59.9601 30.7199 59.9401 29.4999 59.9401 28.2199ZM58.3001 96.6399C58.3001 87.6999 58.3001 78.8399 58.3001 69.9799C59.4001 69.9799 60.4801 69.9799 61.6201 69.9799C61.6201 78.8799 61.6201 87.7599 61.6201 96.6399C63.3801 96.6399 65.0801 96.6399 66.8201 96.6399C66.8201 96.4199 66.7401 96.1599 66.8401 96.0199C67.0801 95.6799 67.0001 95.3199 67.0401 94.9399C67.0801 94.5799 67.2001 94.2399 67.2401 93.8799C67.3201 93.0799 67.2801 92.2399 67.4801 91.4799C67.6201 90.9799 67.5201 90.4399 67.6801 89.9999C67.8801 89.4999 67.8201 88.9999 67.8601 88.4999C67.8601 88.4399 67.8401 88.3399 67.8601 88.2999C68.3201 87.7999 67.9001 87.1399 68.2001 86.5599C68.4601 86.0399 68.2801 85.3999 68.4401 84.7999C68.6601 84.0399 68.6201 83.1999 68.6801 82.3999C68.6801 82.3399 68.6601 82.2199 68.6801 82.1999C69.0801 81.8199 68.7601 81.3199 68.9001 80.9399C69.0601 80.5199 69.1201 80.0999 69.1001 79.6599C69.0801 78.9799 69.4601 78.3599 69.3001 77.6599C69.5801 77.3799 69.4801 77.0399 69.5201 76.6999C69.5601 76.3399 69.6801 75.9999 69.7201 75.6399C69.8001 74.8399 69.8601 74.0199 69.9401 73.2199C69.9401 73.1599 69.9201 73.0399 69.9401 73.0199C70.2601 72.7599 70.1001 72.3799 70.1401 72.0599C70.2001 71.6999 70.3001 71.3599 70.3401 70.9999C70.4201 70.1999 70.4801 69.3799 70.5601 68.5799C70.5601 68.5199 70.5401 68.4199 70.5801 68.3799C70.9401 68.0599 70.7001 67.6599 70.7601 67.2999C70.8401 66.9399 70.9201 66.5999 70.9601 66.2399C71.0401 65.4799 71.1001 64.6999 71.1801 63.9199C71.1801 63.8399 71.3001 63.7599 71.3001 63.6599C71.4201 62.8799 71.5401 62.0799 70.9801 61.2999C70.8001 61.4799 70.6401 61.5999 70.5001 61.7399C69.6201 62.6199 68.7201 63.4999 67.8401 64.3999C66.9801 65.2799 65.4601 65.1999 64.9401 63.7799C64.7601 63.2799 64.5201 62.7599 64.3601 62.2399C64.0001 61.0999 63.5401 60.0199 63.1201 58.8999C62.7401 57.8399 62.2801 56.7999 61.9601 55.7399C61.8601 55.4399 61.6801 55.3799 61.3001 55.4999C61.2401 55.5199 61.1801 55.5399 61.1201 55.5599C60.0201 55.6999 58.9801 56.1199 57.9801 56.5599C56.1201 57.3599 54.8601 58.7999 53.9601 60.5599C53.6001 61.2799 53.2001 63.1399 53.2001 63.7999C53.2201 74.4799 53.2001 85.1399 53.2001 95.8199C53.2001 96.0799 53.2001 96.3599 53.2001 96.6399C54.9601 96.6399 56.5801 96.6399 58.3001 96.6399ZM78.9201 61.2999C78.5401 61.7799 78.4601 62.1999 78.5001 62.6399C78.5601 63.4199 78.5201 64.2199 78.7401 64.9399C78.9001 65.4599 78.7601 65.9799 78.9401 66.4199C79.1601 66.9199 79.0801 67.4199 79.1201 67.9199C79.1201 67.9799 79.1001 68.0799 79.1201 68.1199C79.4001 68.3999 79.2801 68.7599 79.3201 69.0799C79.3601 69.4399 79.4801 69.7799 79.5201 70.1399C79.6001 70.9399 79.6601 71.7599 79.7401 72.5599C79.7401 72.6199 79.7201 72.7399 79.7401 72.7599C80.1201 73.0999 79.9001 73.5399 79.9401 73.9399C79.9801 74.3799 80.2401 74.7399 80.1801 75.2199C80.0801 75.9199 80.5201 76.5999 80.3801 77.3199C80.6601 77.5999 80.5601 77.9399 80.6001 78.2799C80.6401 78.6399 80.7601 78.9799 80.8001 79.3399C80.8801 80.1399 80.9401 80.9599 81.0201 81.7599C81.0201 81.8199 81.0001 81.9399 81.0201 81.9599C81.4001 82.2999 81.1801 82.7399 81.2201 83.1399C81.2601 83.5599 81.5201 83.9399 81.4601 84.4199C81.3601 85.1199 81.8001 85.7999 81.6601 86.5199C81.9401 86.7999 81.8401 87.1399 81.8801 87.4799C81.9201 87.8399 82.0401 88.1799 82.0801 88.5399C82.1401 89.0399 82.0401 89.5199 82.2601 90.0399C82.4401 90.4799 82.2801 90.9999 82.4601 91.5199C82.6201 91.9999 82.5601 92.5599 82.6801 93.0999C82.8001 93.6399 82.8201 94.2199 82.8801 94.7799C82.9401 95.4399 83.1601 96.0599 83.1801 96.6799C84.9401 96.6799 86.6401 96.6799 88.3601 96.6799C88.3601 87.7799 88.3601 78.9199 88.3601 70.0599C89.4801 70.0599 90.5801 70.0599 91.7001 70.0599C91.7001 78.9599 91.7001 87.8199 91.7001 96.6599C93.3801 96.6599 95.0401 96.6599 96.6801 96.6599C96.6801 95.9199 96.6801 95.2199 96.6801 94.5199C96.6801 84.2999 96.6801 74.0799 96.6801 63.8599C96.6801 63.2599 96.5601 62.6599 96.4801 62.0799C96.4601 61.9599 96.3001 61.8599 96.2801 61.7399C96.1801 60.9999 95.8001 60.4199 95.4601 59.7799C94.9201 58.7599 94.0601 58.0199 93.2001 57.3199C92.7401 56.9399 92.1601 56.5999 91.5001 56.4399C90.4001 56.1599 89.3601 55.7399 88.2201 55.3599C88.1401 55.4799 88.0201 55.5799 87.9601 55.6999C87.6401 56.6399 87.2601 57.5599 86.9201 58.4999C86.7001 59.0999 86.4401 59.6999 86.2401 60.2999C86.0601 60.8799 85.7801 61.4399 85.6401 62.0199C85.5001 62.6599 85.1801 63.2199 84.9601 63.8399C84.4601 65.2399 82.9401 65.3799 82.0601 64.4799C81.5801 63.9799 81.0801 63.4999 80.5801 62.9999C80.0401 62.4199 79.5001 61.8799 78.9201 61.2999ZM63.2801 17.5399C63.2801 17.9599 63.2801 18.2999 63.2801 18.6399C63.2801 22.8799 63.2801 27.1199 63.2801 31.3599C63.2801 31.9999 63.3001 32.6199 63.4401 33.2599C63.6201 34.0999 63.8001 34.8999 64.0801 35.7199C64.7401 37.6199 65.8801 39.0999 66.9001 40.0799C67.8201 40.9599 68.9001 41.6599 70.0601 42.2399C71.0401 42.7199 73.4001 43.2999 74.4201 43.2799C75.2001 43.2599 75.9601 43.2199 76.7401 43.1199C77.9001 42.9599 78.9601 42.5999 79.9801 42.1199C81.5201 41.3999 82.8601 40.4399 83.9201 39.0599C84.9601 37.6999 84.9401 37.6999 85.8401 35.6799C86.4001 34.4399 86.6201 33.1599 86.6401 31.8399C86.6801 27.6799 86.6601 23.4999 86.6601 19.3399C86.6601 18.9999 86.6601 18.6599 86.6601 18.2599C86.2801 18.2599 85.9401 18.2599 85.6001 18.2599C79.8401 18.2599 74.0601 18.2599 68.3001 18.2599C67.8401 18.2599 67.4001 18.2799 66.9401 18.2599C66.4801 18.2199 66.0201 18.0399 65.5601 18.0799C65.1001 18.1199 64.7201 17.8599 64.3001 17.8399C63.9801 17.7599 63.6801 17.6399 63.2801 17.5399ZM86.6401 14.8799C86.6401 13.6199 86.5801 12.4799 86.6601 11.3399C86.7001 10.7199 86.3801 10.1599 86.4201 9.55994C86.0401 9.23994 86.2601 8.75994 86.0401 8.35994C85.2801 7.07994 84.5601 5.83994 83.2801 4.91994C81.8401 3.87994 80.3001 3.23994 78.5601 3.21994C71.5401 3.17994 64.5201 3.19994 57.5001 3.19994C57.2001 3.19994 56.9001 3.19994 56.5201 3.19994C56.6201 4.27994 56.5401 5.29994 56.8401 6.19994C57.1401 7.13994 57.3601 8.13994 57.9001 8.97994C58.3401 9.67994 58.7601 10.3799 59.3001 10.9999C60.5601 12.4399 62.1001 13.5199 63.9201 14.1799C65.1001 14.5999 66.3201 14.8799 67.6001 14.8799C73.3401 14.8799 79.0601 14.8799 84.8001 14.8799C85.4001 14.8799 85.9801 14.8799 86.6401 14.8799ZM75.0601 63.2199C74.8801 63.2999 74.7801 63.3199 74.7801 63.3599C74.5201 64.2599 74.4001 65.1799 74.3601 66.0999C74.3201 66.8399 73.9601 67.5399 74.1201 68.2999C73.7801 68.7199 74.0401 69.2399 73.8801 69.6599C73.7001 70.1599 73.7201 70.6399 73.7001 71.1399C73.7001 71.2399 73.7401 71.3999 73.7001 71.4399C73.4201 71.7199 73.5401 72.0799 73.5001 72.3999C73.4601 72.7599 73.3401 73.0999 73.3001 73.4599C73.2601 73.7999 73.3601 74.1999 73.2201 74.4599C73.0201 74.7999 73.1201 75.1199 73.1001 75.4599C73.0801 75.7999 73.0001 76.0999 72.9001 76.4199C72.7801 76.8999 72.8401 77.3999 72.7001 77.8999C72.5601 78.3999 72.6201 78.9399 72.4601 79.4799C72.3201 79.9599 72.5001 80.4399 72.2801 80.9599C72.0801 81.4199 72.2001 81.9999 72.0601 82.5399C71.8801 83.3199 71.8801 84.1399 71.8201 84.9399C71.8201 85.0399 71.8601 85.1999 71.8201 85.2399C71.5001 85.5199 71.6601 85.8799 71.6201 86.1999C71.5601 86.5599 71.4601 86.8999 71.4201 87.2599C71.3401 88.0599 71.2801 88.8599 71.2001 89.6799C71.2001 89.7399 71.2201 89.8399 71.1801 89.8799C70.8401 90.1999 71.0601 90.5999 71.0001 90.9599C70.9201 91.3199 70.8401 91.6599 70.8001 92.0199C70.7201 92.7799 70.6601 93.5599 70.5801 94.3199C70.5801 94.4199 70.4801 94.4999 70.4601 94.5799C70.4201 94.9199 70.4201 95.2599 70.3601 95.5799C70.3001 95.9199 70.2201 96.2599 70.1401 96.5999C73.9201 96.7399 78.9001 96.6799 79.8001 96.4999C79.7201 96.2199 79.5801 95.9399 79.5601 95.6599C79.5201 95.1999 79.5201 94.7399 79.3801 94.2799C79.2401 93.8199 79.3401 93.2999 79.1601 92.7999C78.9801 92.3199 79.1801 91.7599 78.9601 91.2199C78.7801 90.7599 78.8801 90.1799 78.7401 89.6399C78.5401 88.8599 78.5601 88.0399 78.5001 87.2399C78.5001 87.1399 78.5401 86.9799 78.5001 86.9399C78.1201 86.5999 78.3601 86.1599 78.3001 85.7599C78.2401 85.3399 78.0201 84.9599 78.0801 84.4999C78.1601 83.7999 77.7401 83.1199 77.8801 82.3999C77.5801 82.1399 77.7001 81.7799 77.6601 81.4399C77.6201 81.0799 77.5001 80.7399 77.4601 80.3799C77.3801 79.5799 77.3201 78.7799 77.2401 77.9599C77.2401 77.8999 77.2601 77.7799 77.2401 77.7599C76.9001 77.4999 77.1001 77.1199 77.0401 76.7999C76.9801 76.4799 76.8801 76.1599 76.8401 75.8399C76.7601 75.0399 76.7801 74.2199 76.6001 73.4399C76.4601 72.8799 76.5601 72.2799 76.3801 71.7599C76.2401 71.3599 76.2601 70.9799 76.2001 70.5799C76.1401 70.1799 76.0001 69.7999 76.0201 69.4199C76.0601 68.6599 75.6401 67.9799 75.8001 67.2199C75.5001 66.8799 75.6201 66.4599 75.5801 66.0599C75.5401 65.6599 75.3801 65.2799 75.4001 64.8999C75.4201 64.3399 75.2601 63.7999 75.0601 63.2199ZM68.4401 50.6799C69.4201 51.0599 70.3601 51.4399 71.3201 51.7999C72.2401 52.1599 73.2001 52.4599 74.1001 52.8599C74.7001 53.1199 75.2201 53.1199 75.8001 52.8599C76.7201 52.4599 77.6601 52.1599 78.5801 51.7999C79.5401 51.4399 80.4801 51.0599 81.5001 50.6599C80.4801 49.1199 80.1601 47.4399 79.8801 45.7399C76.2801 46.8399 73.6001 46.8399 70.0201 45.7399C69.8601 46.2399 69.7001 46.7199 69.7001 47.2799C69.7001 47.6799 69.4601 48.0799 69.3801 48.4799C69.2401 49.2799 68.7601 49.8999 68.4401 50.6799ZM64.9201 53.9799C65.7201 56.0799 66.4801 58.1199 67.2201 60.1199C68.7601 58.5799 70.2401 57.0999 71.7801 55.5599C71.2601 55.3599 70.7401 55.1599 70.2001 54.9399C69.2201 54.5599 68.2201 54.1799 67.2401 53.7999C66.5401 53.5199 65.8201 53.1799 65.1601 53.8799C65.1401 53.9199 65.0601 53.9399 64.9201 53.9799ZM85.0001 53.9799C84.8801 53.9399 84.8001 53.9399 84.7601 53.8999C84.2401 53.3799 83.6801 53.4199 83.0401 53.6799C81.8001 54.1999 80.5201 54.6199 79.2801 55.1399C78.9001 55.2999 78.3601 55.2399 78.1601 55.6199C79.6801 57.1399 81.1601 58.6199 82.6801 60.1399C83.4401 58.1199 84.2201 56.0799 85.0001 53.9799ZM59.9201 19.8799C59.2401 19.8799 58.6601 19.8599 58.0601 19.8799C57.3201 19.8999 56.6201 20.5999 56.6001 21.3399C56.5801 22.0399 56.5801 22.7199 56.6001 23.4199C56.6201 24.1599 57.3201 24.8599 58.0601 24.8799C58.6801 24.8999 59.2801 24.8799 59.9001 24.8799C59.9201 23.1999 59.9201 21.5799 59.9201 19.8799ZM90.0201 19.8799C90.0201 21.5599 90.0201 23.2199 90.0201 24.8799C90.6401 24.8799 91.2201 24.8999 91.8001 24.8799C92.5401 24.8599 93.2801 24.2799 93.3201 23.3599C93.3401 22.6999 93.3401 22.0399 93.3201 21.3799C93.3001 20.7399 92.8001 19.9199 91.8001 19.8799C91.2001 19.8599 90.6201 19.8799 90.0201 19.8799ZM75.7001 59.9399C75.9001 59.7399 76.1001 59.5399 76.3001 59.3399C76.5001 59.1399 76.5201 58.9199 76.3401 58.6999C76.1401 58.4599 75.9001 58.2599 75.6801 58.0399C75.4401 57.7999 75.2001 57.5799 74.9001 57.2999C74.6401 57.5999 74.4601 57.8399 74.2401 58.0599C73.3201 58.9799 73.1401 58.9199 74.2601 59.9199C74.7401 59.9399 75.2201 59.9399 75.7001 59.9399Z" fill="#3A3A3A"/>
<path d="M9.90015 71.62C10.8001 71.62 11.6201 71.62 12.4601 71.62C13.3001 70.76 14.1601 69.9 15.0401 69.02C15.1201 68.18 15.3201 67.3 15.4401 66.42C15.5201 65.82 15.6601 65.24 15.7201 64.64C15.8001 63.64 15.9601 62.62 16.3801 61.68C16.8001 60.72 17.5201 59.94 18.3801 59.32C19.6801 58.36 21.2001 58.1 22.7401 58.3C23.6801 58.42 24.5601 58.88 25.4001 59.44C26.1801 59.98 26.6201 60.74 27.1001 61.46C27.4601 62 27.5401 62.72 27.8201 63.34C28.2001 64.22 28.2601 65.14 28.2401 66.1C28.2201 66.8 28.2401 67.48 28.2401 68.28C28.5601 68.28 28.8601 68.28 29.1601 68.28C32.8201 68.28 36.4601 68.28 40.1201 68.28C41.2801 68.28 42.3001 68.74 43.1601 69.52C43.5001 69.82 43.8401 70.12 44.1201 70.48C44.7401 71.3 45.2001 73.04 44.9401 74.08C44.7401 74.92 44.4601 75.78 43.8001 76.42C43.4201 76.78 43.0601 77.16 42.7001 77.52C43.4601 79.44 43.3401 79.8 43.1201 81.14C42.9001 82.56 41.8601 83.32 41.0201 84.22C41.6401 85.5 41.8601 86.8 41.4001 88.16C41.1601 88.84 40.8801 89.52 40.2601 89.98C39.9001 90.26 39.6201 90.6 39.2801 90.94C39.7601 91.74 40.0001 92.56 39.9601 93.5C39.9201 94.52 39.5401 95.42 38.9801 96.22C38.6201 96.72 38.1601 97.2 37.6601 97.54C36.9801 97.96 36.2001 98.3 35.3801 98.3C28.5601 98.32 21.7401 98.3 14.9401 98.32C14.4401 98.32 14.0401 98.16 13.6801 97.8C12.7401 96.86 11.8201 95.94 10.8801 95C10.5801 95 10.2801 95 9.98015 95C9.84015 95.64 9.66015 96.2 8.96015 96.48C8.68015 96.6 8.46015 96.64 8.20015 96.64C6.00015 96.64 3.82015 96.64 1.62015 96.64C0.520147 96.64 -0.0998535 96 -0.0998535 94.9C-0.0998535 88.84 -0.0998535 82.8 -0.0998535 76.74C-0.0998535 75.04 -0.0998535 73.34 -0.0998535 71.62C-0.0998535 70.6 0.560147 69.92 1.56015 69.92C3.76015 69.92 5.94015 69.92 8.14015 69.92C9.16015 69.96 9.68015 70.42 9.90015 71.62ZM33.2801 84.98C33.2801 83.8 33.2801 82.74 33.2801 81.64C33.5201 81.64 33.7201 81.64 33.9201 81.64C35.3201 81.64 36.7001 81.64 38.1001 81.64C38.6801 81.64 39.2401 81.5 39.6001 81C39.7801 80.74 39.8801 80.4 39.9001 80.1C39.9201 79.78 39.8001 79.46 39.7001 79.14C39.5001 78.48 38.8401 78.48 38.3401 78.32C38.0601 78.22 37.7201 78.3 37.4001 78.3C36.0201 78.3 34.6401 78.3 33.2601 78.3C33.2601 77.16 33.2601 76.08 33.2601 74.96C33.6201 74.96 33.9601 74.96 34.3001 74.96C36.1401 74.96 37.9801 74.98 39.8201 74.96C40.2801 74.96 40.7201 74.82 41.0801 74.52C41.4401 74.22 41.4801 73.76 41.5401 73.36C41.6401 72.76 41.3001 72.36 40.8001 72.02C40.3601 71.7 39.9001 71.64 39.3801 71.64C35.1401 71.66 30.9001 71.64 26.6601 71.64C25.4801 71.64 24.8601 71.02 24.8401 69.88C24.8401 68.56 24.8001 67.24 24.8601 65.92C24.8801 65.22 24.6001 64.64 24.4201 64C24.3001 63.56 24.0801 63.18 23.8601 62.78C23.2601 61.74 22.3401 61.56 21.3001 61.64C20.4601 61.72 19.3601 62.84 19.2201 63.68C19.1201 64.24 19.1401 64.82 19.0001 65.36C18.8601 65.88 18.7801 66.4 18.8001 66.94C18.3001 67.34 18.8801 68.04 18.3801 68.44C18.4801 69 18.2001 69.5 18.1801 70.02C18.1601 70.52 17.9601 70.9 17.6001 71.24C16.5401 72.3 15.4801 73.36 14.4201 74.42C14.0401 74.8 13.6201 74.98 13.0801 74.98C12.0001 74.96 10.9401 74.98 9.84015 74.98C9.84015 80.56 9.84015 86.1 9.84015 91.68C10.3601 91.68 10.8401 91.7 11.3201 91.68C11.9401 91.64 12.4201 91.88 12.8401 92.32C13.8001 93.2 14.7201 94.1 15.6001 95C21.9001 95 28.1601 95 34.4001 95C34.8001 95 35.1801 94.92 35.5801 94.82C36.2001 94.66 36.3201 94.22 36.4601 93.74C36.6001 93.3 36.6401 92.94 36.3201 92.52C35.9001 91.96 35.4001 91.66 34.7001 91.64C33.6601 91.62 32.6201 91.64 31.5401 91.64C31.5401 91.04 31.5401 90.48 31.5401 89.94C31.5401 89.4 31.5401 88.86 31.5401 88.3C33.2001 88.3 34.7601 88.32 36.3201 88.3C36.7001 88.3 37.1201 88.22 37.4801 88.08C37.8601 87.94 38.3401 86.96 38.2001 86.52C38.0201 85.96 38.0401 85.26 37.1601 85.14C36.8601 85.1 36.5401 84.98 36.2001 84.98C35.2401 84.98 34.2801 84.98 33.2801 84.98ZM3.22015 73.32C3.22015 80.04 3.22015 86.66 3.22015 93.34C3.80015 93.34 4.36015 93.34 4.90015 93.34C5.44015 93.34 5.98015 93.38 6.48015 93.32C6.48015 86.62 6.48015 79.98 6.48015 73.34C5.40015 73.32 4.32015 73.32 3.22015 73.32Z" fill="#3A3A3A"/>
<path d="M9.88 41.5398C23.26 41.5398 36.58 41.5398 49.92 41.5398C49.92 40.4198 49.92 39.3198 49.92 38.2598C36.52 38.2598 23.2 38.2598 9.88 38.2598C9.88 39.3798 9.88 40.4398 9.88 41.5398ZM19.9 24.8598C29.96 24.8598 39.92 24.8598 49.9 24.8598C49.9 23.7598 49.9 22.6798 49.9 21.5998C39.88 21.5998 29.9 21.5998 19.9 21.5998C19.9 22.6998 19.9 23.7598 19.9 24.8598ZM9.88 33.1998C18.26 33.1998 26.56 33.1998 34.9 33.1998C34.9 32.6198 34.9 32.0598 34.9 31.5198C34.9 30.9798 34.92 30.4398 34.88 29.9398C26.48 29.9398 18.18 29.9398 9.88 29.9398C9.88 31.0398 9.88 32.0998 9.88 33.1998ZM29.92 16.5198C36.64 16.5198 43.26 16.5198 49.92 16.5198C49.92 15.9398 49.92 15.3798 49.92 14.8398C49.92 14.2998 49.96 13.7598 49.9 13.2398C43.2 13.2398 36.56 13.2398 29.92 13.2398C29.92 14.3398 29.92 15.3998 29.92 16.5198ZM24.86 16.5198C24.86 15.3598 24.86 14.2998 24.86 13.2398C21.4 13.0998 10.78 13.1598 9.92 13.2998C9.92 14.3798 9.92 15.4398 9.92 16.5198C14.9 16.5198 19.86 16.5198 24.86 16.5198ZM49.9 29.9398C46.52 29.9398 43.22 29.9398 39.9 29.9398C39.9 30.5198 39.9 31.0798 39.9 31.6198C39.92 32.1598 39.86 32.6998 39.92 33.1998C43.3 33.1998 46.58 33.1998 49.88 33.1998C49.9 32.0998 49.9 31.0398 49.9 29.9398ZM14.86 21.5798C13.16 21.5798 11.54 21.5798 9.88 21.5798C9.88 22.1598 9.88 22.7198 9.88 23.2598C9.88 23.7998 9.84 24.3398 9.9 24.8398C11.6 24.8398 13.22 24.8398 14.86 24.8398C14.86 23.7598 14.86 22.6998 14.86 21.5798Z" fill="white"/>
<path d="M58.3003 96.6398C56.5603 96.6398 54.9403 96.6398 53.2603 96.6398C53.2603 96.3598 53.2603 96.0798 53.2603 95.8198C53.2603 85.1398 53.2603 74.4798 53.2603 63.7998C53.2603 63.1398 53.6603 61.2798 54.0203 60.5598C54.9203 58.7998 56.1803 57.3398 58.0403 56.5598C59.0403 56.1398 60.0803 55.7198 61.1803 55.5598C61.2403 55.5598 61.3003 55.5198 61.3603 55.4998C61.7403 55.3798 61.9403 55.4398 62.0203 55.7398C62.3403 56.8198 62.8003 57.8598 63.1803 58.8998C63.5803 60.0198 64.0603 61.1198 64.4203 62.2398C64.5803 62.7598 64.8003 63.2798 65.0003 63.7798C65.5203 65.1998 67.0403 65.2798 67.9003 64.3998C68.7803 63.4998 69.6603 62.6198 70.5603 61.7398C70.7003 61.5998 70.8403 61.4598 71.0403 61.2998C71.6003 62.0798 71.4803 62.8798 71.3603 63.6598C71.3403 63.7598 71.2403 63.8198 71.2403 63.9198C71.1603 64.6798 71.1003 65.4598 71.0203 66.2398C70.9803 66.5998 70.8803 66.9398 70.8203 67.2998C70.7403 67.6598 70.9803 68.0598 70.6403 68.3798C70.6003 68.4198 70.6203 68.4998 70.6203 68.5798C70.5603 69.3798 70.5003 70.1998 70.4003 70.9998C70.3603 71.3598 70.2603 71.6998 70.2003 72.0598C70.1403 72.3798 70.3203 72.7598 70.0003 73.0198C69.9603 73.0398 70.0003 73.1598 70.0003 73.2198C69.9403 74.0198 69.8803 74.8398 69.7803 75.6398C69.7403 75.9998 69.6203 76.3398 69.5803 76.6998C69.5403 77.0198 69.6403 77.3798 69.3603 77.6598C69.5203 78.3398 69.1203 78.9798 69.1603 79.6598C69.1803 80.0998 69.1203 80.5198 68.9603 80.9398C68.8203 81.3398 69.1403 81.8398 68.7403 82.1998C68.7003 82.2398 68.7403 82.3398 68.7403 82.3998C68.6803 83.1998 68.7203 84.0398 68.5003 84.7998C68.3403 85.3998 68.5203 86.0598 68.2603 86.5598C67.9603 87.1398 68.3803 87.7998 67.9203 88.2998C67.8803 88.3398 67.9203 88.4398 67.9203 88.4998C67.8803 88.9998 67.9403 89.4798 67.7403 89.9998C67.5603 90.4398 67.6603 90.9598 67.5403 91.4798C67.3403 92.2598 67.3803 93.0798 67.3003 93.8798C67.2603 94.2398 67.1403 94.5798 67.1003 94.9398C67.0603 95.2998 67.1403 95.6598 66.9003 96.0198C66.8003 96.1598 66.8803 96.4198 66.8803 96.6398C65.1403 96.6398 63.4403 96.6398 61.6803 96.6398C61.6803 87.7598 61.6803 78.8798 61.6803 69.9798C60.5403 69.9798 59.4803 69.9798 58.3603 69.9798C58.3003 78.8398 58.3003 87.6998 58.3003 96.6398Z" fill="#B2B2B2"/>
<path d="M78.92 61.2998C79.5 61.8798 80.04 62.4198 80.58 62.9598C81.08 63.4598 81.56 63.9398 82.06 64.4398C82.94 65.3198 84.46 65.1998 84.96 63.7998C85.18 63.1998 85.48 62.6198 85.64 61.9798C85.78 61.3798 86.06 60.8398 86.24 60.2598C86.42 59.6398 86.7 59.0598 86.92 58.4598C87.26 57.5198 87.64 56.5998 87.96 55.6598C88 55.5398 88.12 55.4398 88.22 55.3198C89.34 55.6998 90.4 56.1198 91.5 56.3998C92.16 56.5598 92.74 56.8998 93.2 57.2798C94.06 57.9798 94.92 58.7198 95.46 59.7398C95.8 60.3798 96.18 60.9598 96.28 61.6998C96.3 61.8198 96.46 61.9198 96.48 62.0398C96.56 62.6398 96.68 63.2398 96.68 63.8198C96.7 74.0398 96.68 84.2598 96.68 94.4798C96.68 95.1798 96.68 95.8598 96.68 96.6198C95.02 96.6198 93.38 96.6198 91.7 96.6198C91.7 87.7598 91.7 78.9198 91.7 70.0198C90.58 70.0198 89.48 70.0198 88.36 70.0198C88.36 78.8798 88.36 87.7398 88.36 96.6398C86.64 96.6398 84.94 96.6398 83.18 96.6398C83.16 96.0398 82.94 95.4198 82.88 94.7398C82.82 94.1798 82.82 93.5998 82.68 93.0598C82.56 92.5198 82.62 91.9598 82.46 91.4798C82.28 90.9598 82.44 90.4398 82.26 89.9998C82.04 89.4998 82.14 88.9998 82.08 88.4998C82.04 88.1398 81.92 87.7998 81.88 87.4398C81.84 87.1198 81.96 86.7598 81.66 86.4798C81.8 85.7598 81.36 85.0798 81.46 84.3798C81.52 83.8998 81.28 83.5398 81.22 83.0998C81.18 82.6998 81.4 82.2598 81.02 81.9198C80.98 81.8798 81.02 81.7798 81.02 81.7198C80.96 80.9198 80.9 80.0998 80.8 79.2998C80.76 78.9398 80.64 78.5998 80.6 78.2398C80.56 77.9198 80.68 77.5598 80.38 77.2798C80.52 76.5598 80.08 75.8798 80.18 75.1798C80.24 74.6998 79.98 74.3398 79.94 73.8998C79.9 73.4998 80.12 73.0598 79.74 72.7198C79.7 72.6798 79.74 72.5798 79.74 72.5198C79.68 71.7198 79.62 70.8998 79.52 70.0998C79.48 69.7398 79.36 69.3998 79.32 69.0398C79.28 68.7198 79.38 68.3598 79.12 68.0798C79.08 68.0398 79.12 67.9398 79.12 67.8798C79.08 67.3798 79.16 66.8998 78.94 66.3798C78.76 65.9398 78.9 65.4198 78.74 64.8998C78.52 64.1798 78.56 63.3598 78.5 62.5998C78.46 62.1998 78.54 61.7798 78.92 61.2998Z" fill="#B2B2B2"/>
<path d="M86.64 14.8798C85.98 14.8798 85.4 14.8798 84.8 14.8798C79.06 14.8798 73.34 14.8798 67.6 14.8798C66.32 14.8798 65.12 14.5998 63.92 14.1798C62.1 13.5398 60.56 12.4398 59.3 10.9998C58.76 10.3798 58.34 9.67982 57.9 8.97982C57.36 8.11982 57.12 7.13982 56.84 6.19982C56.56 5.27982 56.62 4.25982 56.52 3.19982C56.9 3.19982 57.2 3.19982 57.5 3.19982C64.52 3.19982 71.54 3.17982 78.56 3.21982C80.3 3.23982 81.84 3.85982 83.28 4.91982C84.54 5.83982 85.28 7.07982 86.04 8.35982C86.28 8.75982 86.04 9.23982 86.42 9.55982C86.38 10.1598 86.7 10.7198 86.66 11.3398C86.6 12.4798 86.64 13.6198 86.64 14.8798Z" fill="#B2B2B2"/>
<path d="M64.9199 53.98C65.0399 53.94 65.1199 53.94 65.1599 53.9C65.8199 53.18 66.5399 53.54 67.2399 53.82C68.2199 54.2 69.2199 54.58 70.1999 54.96C70.7399 55.16 71.2799 55.38 71.7799 55.58C70.2399 57.12 68.7399 58.62 67.2199 60.14C66.4799 58.12 65.7199 56.08 64.9199 53.98Z" fill="#B2B2B2"/>
<path d="M85.0002 53.9799C84.2002 56.0799 83.4402 58.1199 82.6802 60.1399C81.1402 58.5999 79.6602 57.1199 78.1602 55.6199C78.3802 55.2399 78.9002 55.2999 79.2802 55.1399C80.5202 54.6199 81.8002 54.1999 83.0402 53.6799C83.6802 53.4199 84.2402 53.3799 84.7602 53.8999C84.8002 53.9199 84.8802 53.9399 85.0002 53.9799Z" fill="#B2B2B2"/>
<path d="M33.2802 84.9799C34.2802 84.9799 35.2602 84.9799 36.2202 84.9799C36.5602 84.9799 36.8802 85.1199 37.1802 85.1399C38.0802 85.2599 38.0602 85.9599 38.2202 86.5199C38.3602 86.9599 37.8802 87.9399 37.5002 88.0799C37.1402 88.2199 36.7402 88.2999 36.3402 88.2999C34.7802 88.3199 33.2202 88.2999 31.5602 88.2999C31.5602 88.8399 31.5602 89.3799 31.5602 89.9399C31.5602 90.4999 31.5602 91.0399 31.5602 91.6399C32.6402 91.6399 33.6802 91.6399 34.7202 91.6399C35.4002 91.6399 35.9002 91.9599 36.3402 92.5199C36.6602 92.9399 36.6202 93.2999 36.4802 93.7399C36.3202 94.2199 36.2202 94.6399 35.6002 94.8199C35.2002 94.9199 34.8202 94.9999 34.4202 94.9999C28.1602 94.9999 21.9002 94.9999 15.6202 94.9999C14.7402 94.1199 13.8202 93.2199 12.9202 92.2999C12.5002 91.8599 12.0402 91.6199 11.4002 91.6599C10.9202 91.6999 10.4402 91.6599 9.92017 91.6599C9.92017 86.0999 9.92017 80.5599 9.92017 74.9599C11.0202 74.9599 12.0802 74.9399 13.1602 74.9599C13.7002 74.9799 14.1202 74.7799 14.5002 74.3999C15.5602 73.3399 16.6202 72.2799 17.6802 71.2199C18.0202 70.8799 18.2202 70.4999 18.2602 69.9999C18.2802 69.4799 18.5602 68.9599 18.4602 68.4199C18.9602 68.0199 18.3802 67.3199 18.8802 66.9199C18.8602 66.3799 18.9402 65.8599 19.0802 65.3399C19.2202 64.7999 19.2202 64.2199 19.3002 63.6599C19.4402 62.8199 20.5402 61.6799 21.3802 61.6199C22.4202 61.5199 23.3202 61.7199 23.9402 62.7599C24.1802 63.1599 24.3802 63.5599 24.5002 63.9799C24.6802 64.5999 24.9602 65.1999 24.9402 65.8999C24.8802 67.2199 24.9202 68.5399 24.9202 69.8599C24.9202 70.9999 25.5602 71.6199 26.7402 71.6199C30.9802 71.6199 35.2202 71.6199 39.4602 71.6199C39.9802 71.6199 40.4202 71.6799 40.8802 71.9999C41.3602 72.3399 41.7202 72.7399 41.6202 73.3399C41.5402 73.7399 41.5002 74.1999 41.1602 74.4999C40.8002 74.7999 40.3402 74.9399 39.9002 74.9399C38.0602 74.9599 36.2202 74.9399 34.3802 74.9399C34.0402 74.9399 33.7002 74.9399 33.3402 74.9399C33.3402 76.0599 33.3402 77.1399 33.3402 78.2799C34.7202 78.2799 36.1002 78.2799 37.4802 78.2799C37.8002 78.2799 38.1202 78.1999 38.4202 78.2999C38.9202 78.4599 39.5802 78.4599 39.7802 79.1199C39.8802 79.4199 40.0002 79.7599 39.9802 80.0799C39.9602 80.3799 39.8602 80.7399 39.6802 80.9799C39.3202 81.4799 38.7602 81.6199 38.1802 81.6199C36.7802 81.6399 35.4002 81.6199 34.0002 81.6199C33.8002 81.6199 33.6002 81.6199 33.3602 81.6199C33.2802 82.7399 33.2802 83.7999 33.2802 84.9799Z" fill="#B2B2B2"/>
<path d="M9.88013 41.54C9.88013 40.42 9.88013 39.36 9.88013 38.26C23.2001 38.26 36.5001 38.26 49.9201 38.26C49.9201 39.32 49.9201 40.42 49.9201 41.54C36.5801 41.54 23.2801 41.54 9.88013 41.54Z" fill="#3A3A3A"/>
<path d="M19.9001 24.8599C19.9001 23.7599 19.9001 22.6999 19.9001 21.5999C29.9001 21.5999 39.9001 21.5999 49.9001 21.5999C49.9001 22.6999 49.9001 23.7599 49.9001 24.8599C39.9201 24.8599 29.9601 24.8599 19.9001 24.8599Z" fill="#3A3A3A"/>
<path d="M9.88013 33.1999C9.88013 32.0999 9.88013 31.0399 9.88013 29.9199C18.2001 29.9199 26.5001 29.9199 34.8801 29.9199C34.9201 30.4199 34.8801 30.9599 34.9001 31.4999C34.9001 32.0599 34.9001 32.5999 34.9001 33.1799C26.5601 33.1999 18.2801 33.1999 9.88013 33.1999Z" fill="#3A3A3A"/>
<path d="M29.9199 16.52C29.9199 15.42 29.9199 14.34 29.9199 13.24C36.5599 13.24 43.1999 13.24 49.8999 13.24C49.9599 13.74 49.9199 14.28 49.9199 14.84C49.9199 15.4 49.9199 15.94 49.9199 16.52C43.2599 16.52 36.6399 16.52 29.9199 16.52Z" fill="#3A3A3A"/>
<path d="M24.8602 16.5198C19.8602 16.5198 14.9002 16.5198 9.92017 16.5198C9.92017 15.4398 9.92017 14.3798 9.92017 13.2998C10.7802 13.1598 21.4202 13.0998 24.8602 13.2398C24.8602 14.2998 24.8602 15.3798 24.8602 16.5198Z" fill="#3A3A3A"/>
<path d="M49.9003 29.9399C49.9003 31.0399 49.9003 32.1199 49.9003 33.2199C46.6003 33.2199 43.3003 33.2199 39.9403 33.2199C39.8803 32.7199 39.9203 32.1799 39.9203 31.6399C39.9003 31.0799 39.9203 30.5399 39.9203 29.9599C43.2403 29.9399 46.5203 29.9399 49.9003 29.9399Z" fill="#3A3A3A"/>
<path d="M14.86 21.5798C14.86 22.6798 14.86 23.7598 14.86 24.8598C13.22 24.8598 11.6 24.8598 9.9 24.8598C9.84 24.3598 9.88 23.8198 9.88 23.2798C9.88 22.7198 9.88 22.1798 9.88 21.5998C11.52 21.5798 13.14 21.5798 14.86 21.5798Z" fill="#3A3A3A"/>
<path d="M68.2402 34.9199C69.4202 34.9199 70.4802 34.9199 71.5802 34.9199C71.8402 35.6199 72.4002 35.9799 73.0602 36.2599C73.9602 36.6199 75.0202 36.6799 76.0802 36.3999C76.3402 36.3399 76.6002 36.3199 76.8402 36.2399C77.5202 36.0199 78.0802 35.6199 78.3202 34.9399C79.4202 34.9399 80.5002 34.9399 81.6202 34.9399C81.6602 35.8599 81.3202 36.5799 80.8402 37.3199C80.1602 38.3399 79.1802 38.8799 78.1402 39.3399C77.7202 39.5399 77.2802 39.6199 76.8402 39.7399C76.1002 39.9399 75.3602 39.9199 74.6402 39.9199C73.3002 39.8999 72.0602 39.6199 70.9002 38.8999C70.2602 38.4999 69.4802 38.0199 69.3402 37.6999C69.0602 37.1199 68.5202 36.6999 68.4002 35.9999C68.3402 35.6599 68.3602 35.3399 68.2402 34.9199Z" fill="#3A3A3A"/>
<path d="M71.6201 25.6799C71.6201 25.9999 71.6201 26.2999 71.6201 26.6199C71.6001 27.5599 70.9201 28.2199 69.9601 28.2199C69.0001 28.2199 68.3001 27.5599 68.2801 26.6399C68.2601 26.0199 68.2601 25.3799 68.2801 24.7599C68.3001 23.8799 69.0001 23.2199 69.8801 23.2199C70.8601 23.1999 71.5801 23.8399 71.6001 24.7599C71.6401 25.0599 71.6201 25.3799 71.6201 25.6799Z" fill="#3A3A3A"/>
<path d="M78.2999 25.7199C78.2999 25.3999 78.2999 25.0999 78.2999 24.7799C78.3199 23.8999 79.0199 23.2399 79.8999 23.2199C80.8799 23.1999 81.5999 23.8399 81.6399 24.7399C81.6599 25.3999 81.6599 26.0599 81.6399 26.7199C81.6199 27.5799 80.8999 28.1799 79.9999 28.2399C79.1599 28.2799 78.3799 27.5799 78.3199 26.7599C78.2799 26.4199 78.2999 26.0599 78.2999 25.7199Z" fill="#3A3A3A"/>
</g>
<defs>
<clipPath id="clip0_226_636">
<rect width="100" height="100" fill="white"/>
</clipPath>
</defs>
</svg>
