<svg width="100" height="92" viewBox="0 0 100 92" fill="none" xmlns="http://www.w3.org/2000/svg">
<path d="M37.84 51.72C37.76 51.02 37.94 50.36 37.6 49.76C37.72 48.66 37.46 47.6 37.38 46.5C37.34 45.86 37.46 45.24 37.2 44.6C37.02 44.14 37.2 43.56 37.16 43.04C37.12 42.52 36.98 41.98 36.96 41.46C36.92 40.4 36.6 39.24 36.14 38.04C35.72 36.98 34.96 36.26 34.2 35.5C32.78 34.06 31 33.5 29.04 33.36C28.7 33.34 28.34 33.32 28 33.36C27.64 33.4 27.3 33.54 26.94 33.56C26.46 33.58 26.04 33.74 25.64 33.94C24.4 34.52 23.28 35.24 22.36 36.34C21.58 37.28 21.02 38.3 20.74 39.42C20.36 40.84 20 42.28 19.88 43.76C19.52 44.12 19.74 44.6 19.62 45C19.4 45.74 19.16 46.5 19.08 47.28C18.96 48.44 18.42 49.4 17.7 50.26C16.96 51.16 16.06 51.88 14.9 52.32C14.9 51.36 14.9 50.44 14.9 49.52C14.7 48.9 14.18 48.66 13.68 48.4C9.64001 48.4 5.62001 48.4 1.58001 48.4C0.920014 48.4 0.420014 48.66 0.0800138 49.22C0.0200138 49.32 -0.0399862 49.46 -0.139986 49.64C-0.139986 49.64 -0.139986 49.76 -0.139986 49.86C-0.139986 63.2 -0.139986 76.56 -0.139986 89.9C-0.139986 90 -0.139986 90.1 -0.139986 90.22C-0.159986 90.68 0.0400138 91.06 0.380014 91.36C0.580014 91.52 0.820014 91.64 1.04001 91.8C5.28001 91.8 9.52001 91.8 13.66 91.8C14.64 91.4 15 90.72 14.9 89.78C14.88 89.56 14.92 89.32 14.94 88.98C15.9 89.2 16.76 89.4 17.62 89.62C18.88 89.92 20.14 90.24 21.4 90.56C22.38 90.8 23.34 91.08 24.32 91.3C25.32 91.52 26.28 91.84 27.34 91.82C31.52 91.78 35.68 91.8 39.86 91.82C40.98 91.82 42.04 91.64 43.14 91.42C45.3 90.96 47.38 89.72 48.66 88.62C50.26 87.26 51.4 85.56 52.26 83.66C52.86 82.3 53.24 80.86 53.28 79.4C53.36 76.62 53.3 73.84 53.3 71.06C53.3 69.7 53.32 68.34 53.3 67C53.28 65.64 53.44 64.26 53.1 62.92C52.98 62.44 53 61.92 52.84 61.46C52.24 59.66 51.42 57.96 50.18 56.52C49.08 55.24 47.76 54.22 46.26 53.4C44.38 52.38 42.38 51.86 40.24 51.8C39.46 51.7 38.68 51.72 37.84 51.72ZM88.3 43.38C90.14 43.38 91.88 43.34 93.62 43.4C94.62 43.42 95.54 43.1 96.34 42.68C97.38 42.14 98.34 41.38 98.94 40.28C99.56 39.14 99.98 37.98 99.98 36.64C99.96 26.6 99.96 16.56 99.98 6.52C99.98 5.48 99.58 4.6 99.3 3.66C99.08 2.96 97.72 1.54 96.98 1.1C95.88 0.46 94.7 0 93.38 0C78.82 0.02 64.26 0.02 49.7 0C48.68 0 47.72 0.3 46.88 0.72C45.84 1.26 44.88 2 44.28 3.12C43.66 4.28 43.24 5.42 43.24 6.76C43.26 16.8 43.26 26.84 43.24 36.88C43.24 37.92 43.62 38.82 43.92 39.74C44.1 40.28 44.54 40.76 44.94 41.18C45.32 41.6 45.76 42 46.26 42.28C47.36 42.92 48.52 43.4 49.86 43.4C56.94 43.38 64.04 43.38 71.02 43.38C71.84 44.08 72.6 44.72 73.32 45.38C74.3 46.28 75.28 47.2 76.26 48.1C76.32 48.14 76.36 48.22 76.4 48.24C77.42 48.86 78.2 49.78 79.08 50.56C79.92 51.3 80.72 52 81.78 52.38C81.86 52.42 81.94 52.5 81.98 52.54C82.54 52.54 83.06 52.5 83.58 52.54C84.06 52.58 84.52 52.48 84.94 52.3C85.8 51.96 86.66 51.52 87.22 50.76C87.94 49.76 88.36 48.64 88.32 47.36C88.26 46.08 88.3 44.76 88.3 43.38ZM69.32 75.02C69.28 75.76 69.42 76.52 69.82 77.1C70.64 78.26 71.84 78.88 73.28 79.04C73.9 79.1 74.5 79.28 75.08 79.46C75.7 79.62 76.26 79.92 76.66 80.44C77.1 81.02 77.32 81.7 77.46 82.4C77.62 83.2 77.82 83.98 78.02 84.76C78.24 85.64 78.86 86.12 79.4 86.7C79.76 87.08 80.82 87.38 81.62 87.38C82.02 87.38 82.4 87.28 82.78 87.2C83.96 86.96 84.78 86.28 85.28 85.26C85.56 84.7 85.66 84.02 85.78 83.38C86 82.34 86.22 81.3 86.68 80.3C86.98 79.64 87.56 79.36 88.12 79.26C88.9 79.12 89.66 78.94 90.44 78.8C91.24 78.66 92 78.3 92.66 77.86C93.58 77.24 93.82 76.2 93.92 75.18C94.02 74.26 93.7 73 92.78 72.32C92.7 72.26 92.62 72.18 92.56 72.1C92.26 71.78 91.88 71.64 91.46 71.48C90.62 71.2 89.76 71.02 88.9 70.86C88.1 70.7 87.3 70.46 86.74 69.8C86.2 69.2 85.96 68.46 85.82 67.68C85.7 67.04 85.6 66.4 85.4 65.76C85.06 64.64 84.56 63.88 83.7 63.24C83.52 63.1 83.3 62.98 83.1 62.96C82.26 62.86 81.46 62.66 80.56 62.9C79.38 63.2 78.7 63.98 78.2 64.9C77.92 65.44 77.7 66.08 77.66 66.76C77.64 67.34 77.42 67.9 77.26 68.46C77.06 69.14 76.78 69.82 76.16 70.18C75.56 70.52 74.9 70.82 74.16 70.9C73.52 70.96 72.86 71.12 72.24 71.3C70.36 71.92 69.34 73.24 69.32 75.02ZM9.64001 16.76C10.24 17.42 10.58 18.02 11.08 18.3C11.96 18.76 12.94 19.06 13.96 19.14C14.38 19.16 14.76 19.3 15.12 19.4C16.54 19.82 17.14 20.94 17.4 22.32C17.54 23.12 17.76 23.9 17.96 24.68C18.18 25.56 18.8 26.04 19.34 26.62C19.7 27 20.78 27.26 21.56 27.32C22.02 27.36 22.4 27.14 22.82 27.08C24.08 26.92 24.78 26.04 25.32 25C25.56 24.54 25.66 24 25.72 23.5C25.82 22.58 26.12 21.72 26.4 20.84C26.64 20.1 26.92 19.32 27.94 19.34C28.62 18.9 29.44 18.92 30.2 18.76C30.98 18.58 31.66 18.32 32.36 17.92C33.36 17.32 33.62 16.38 33.88 15.4C34.06 14.7 33.78 14 33.6 13.34C33.46 12.84 33 12.54 32.66 12.16C32.62 12.12 32.56 12.06 32.52 12.02C32.22 11.7 31.84 11.56 31.42 11.4C30.54 11.1 29.64 10.96 28.76 10.78C27.44 10.48 26.34 9.86 25.96 8.36C25.78 7.68 25.8 7 25.56 6.34C25.22 5.38 25.08 4.34 24.18 3.68C23.96 3.52 23.78 3.3 23.58 3.08C23.48 3.08 23.38 3.1 23.28 3.08C22.4 2.78 21.56 2.5 20.6 2.84C20.04 3.04 19.5 3.22 19.04 3.64C18.16 4.44 17.84 5.48 17.58 6.58C17.4 7.34 17.42 8.1 17.02 8.84C16.46 9.84 16.22 10.24 15.14 10.58C14.82 10.68 14.54 10.8 14.18 10.8C13.82 10.8 13.48 10.98 13.12 10.98C12.52 11 11.96 11.26 11.44 11.48C10.84 11.74 10.3 12.26 9.92001 12.78C9.52001 13.32 9.38001 14.02 9.28001 14.7C9.24001 15 9.20001 15.34 9.42001 15.68C9.60001 16.06 9.58001 16.54 9.64001 16.76Z" fill="white"/>
<path d="M37.84 51.7199C38.68 51.7199 39.44 51.6999 40.2 51.7199C42.34 51.7799 44.32 52.2999 46.22 53.3199C47.72 54.1399 49.04 55.1599 50.14 56.4399C51.38 57.8799 52.2 59.5799 52.8 61.3799C52.96 61.8399 52.94 62.3599 53.06 62.8399C53.4 64.1999 53.22 65.5599 53.26 66.9199C53.28 68.2799 53.26 69.6399 53.26 70.9799C53.26 73.7599 53.32 76.5399 53.24 79.3199C53.2 80.7799 52.84 82.2199 52.22 83.5799C51.36 85.4799 50.22 87.1799 48.62 88.5399C47.34 89.6199 45.26 90.8799 43.1 91.3399C42.02 91.5599 40.94 91.7599 39.82 91.7399C35.64 91.7199 31.48 91.6999 27.3 91.7399C26.24 91.7599 25.28 91.4399 24.28 91.2199C23.3 90.9999 22.34 90.7199 21.36 90.4799C20.1 90.1599 18.84 89.8399 17.58 89.5399C16.72 89.3199 15.86 89.1399 14.9 88.8999C14.88 89.2399 14.84 89.4799 14.86 89.6999C14.96 90.6399 14.6 91.3199 13.62 91.7199C9.47997 91.7199 5.23997 91.7199 0.999975 91.7199C0.779975 91.5799 0.539975 91.4599 0.339975 91.2799C-2.52277e-05 90.9799 -0.200025 90.5999 -0.180025 90.1399C-0.180025 90.0399 -0.180025 89.9399 -0.180025 89.8199C-0.180025 76.4799 -0.180025 63.1199 -0.180025 49.7799C-0.180025 49.6799 -0.180025 49.5799 -0.180025 49.5599C-0.0800252 49.3599 -0.0400252 49.2399 0.0399748 49.1399C0.379975 48.5799 0.879975 48.3199 1.53997 48.3199C5.57998 48.3399 9.59997 48.3199 13.64 48.3199C14.14 48.5799 14.66 48.8199 14.86 49.4399C14.86 50.3599 14.86 51.2999 14.86 52.2399C16.02 51.8199 16.9 51.0799 17.66 50.1799C18.38 49.3199 18.92 48.3799 19.04 47.1999C19.12 46.4399 19.36 45.6799 19.58 44.9199C19.7 44.4999 19.48 44.0199 19.84 43.6799C19.98 42.1999 20.32 40.7599 20.7 39.3399C21 38.2199 21.54 37.1799 22.32 36.2599C23.24 35.1599 24.36 34.4599 25.6 33.8599C26.02 33.6599 26.42 33.4999 26.9 33.4799C27.26 33.4599 27.6 33.3199 27.96 33.2799C28.3 33.2399 28.66 33.2599 29 33.2799C30.96 33.4199 32.74 33.9799 34.16 35.4199C34.92 36.1799 35.68 36.8999 36.1 37.9599C36.56 39.1599 36.9 40.3199 36.92 41.3799C36.94 41.8999 37.08 42.4399 37.12 42.9599C37.16 43.4799 36.98 44.0599 37.16 44.5199C37.4 45.1599 37.3 45.7999 37.34 46.4199C37.4 47.4999 37.68 48.5799 37.56 49.6799C37.94 50.3599 37.78 51.0199 37.84 51.7199ZM14.88 85.4399C15.26 85.5399 15.56 85.6599 15.88 85.7199C16.86 85.8599 17.74 86.3599 18.74 86.3599C18.96 86.7799 19.42 86.4399 19.76 86.6999C20.04 86.9199 20.5 86.8999 20.88 86.9799C21.24 87.0599 21.6 87.0999 21.94 87.1999C22.88 87.4599 23.8 87.7999 24.74 87.9599C25.54 88.0999 26.3 88.4599 27.16 88.4599C31.58 88.4399 35.98 88.4599 40.4 88.4399C41.04 88.4399 41.72 88.4399 42.28 88.2199C43.08 87.8999 43.9 87.6199 44.7 87.2399C45.28 86.9599 45.76 86.5399 46.22 86.1799C47.46 85.1799 48.46 83.9599 49.08 82.4799C49.56 81.3399 49.9 80.1199 49.92 78.8599C49.96 74.6199 49.9 70.3799 49.94 66.1399C49.96 64.8199 49.82 63.5199 49.5 62.2399C49.28 61.3199 48.86 60.4599 48.36 59.6999C47.78 58.8599 47.06 58.0999 46.3 57.4399C45.82 57.0199 45.3 56.5999 44.7 56.3199C43.62 55.8399 42.6 55.2399 41.38 55.2999C40.36 54.8599 39.32 55.1999 38.26 55.0999C38.26 55.7399 38.24 56.2999 38.26 56.8399C38.28 57.2799 38.1 57.5999 37.82 57.9199C37.66 58.0999 37.48 58.2799 37.36 58.4199C36.82 58.4199 36.34 58.4199 35.86 58.4199C35.66 58.2199 35.44 58.0399 35.28 57.8199C35.14 57.6199 35 57.3799 34.94 57.1199C34.88 56.8199 34.96 56.4999 34.92 56.1799C34.88 55.8599 34.74 55.5399 34.72 55.2199C34.68 54.4199 34.68 53.6199 34.54 52.7999C34.38 51.8799 34.52 50.9199 34.32 49.9599C34.16 49.2199 34.44 48.3999 34.08 47.6599C34.24 46.4199 33.8 45.2199 33.88 43.9999C33.94 42.9799 33.54 41.9999 33.66 40.9599C33.7 40.6199 33.58 40.2399 33.42 39.9199C32.9 38.8399 32.22 37.8999 31.1 37.3599C30.56 37.0999 29.98 36.8599 29.38 36.7399C28.62 36.5999 27.82 36.7399 27.08 36.9599C25.46 37.4799 24.02 39.3799 23.86 41.0799C23.82 41.5399 23.76 42.0399 23.62 42.4399C23.32 43.1799 23.32 43.9599 23.06 44.6999C22.9 45.1999 23.02 45.7999 22.8 46.2599C22.58 46.7599 22.78 47.3399 22.42 47.7599C22.24 49.1399 21.7 50.3799 20.96 51.5399C19.98 53.0799 18.62 54.1799 17.04 55.0399C16.34 55.4399 15.6 55.7599 14.92 56.0799C14.9 56.2199 14.9 56.2599 14.9 56.2799C14.88 65.9799 14.88 75.6799 14.88 85.4399ZM3.21997 88.3999C6.03998 88.3999 8.77997 88.3999 11.52 88.3999C11.66 84.7399 11.6 52.6599 11.46 51.7599C8.71997 51.7599 5.97998 51.7599 3.23997 51.7599C3.21997 63.9799 3.21997 76.1599 3.21997 88.3999Z" fill="#3A3A3A"/>
<path d="M88.3 43.38C88.3 44.76 88.26 46.08 88.32 47.4C88.36 48.68 87.96 49.8 87.22 50.8C86.66 51.56 85.8 51.98 84.94 52.34C84.52 52.52 84.06 52.62 83.58 52.58C83.06 52.54 82.54 52.58 81.98 52.58C81.92 52.54 81.86 52.44 81.78 52.42C80.72 52.04 79.92 51.34 79.08 50.6C78.2 49.82 77.42 48.9 76.4 48.28C76.34 48.24 76.3 48.18 76.26 48.14C75.28 47.24 74.32 46.32 73.32 45.42C72.58 44.76 71.82 44.12 71.02 43.42C64.04 43.42 56.96 43.4 49.86 43.44C48.52 43.44 47.36 42.96 46.26 42.32C45.78 42.04 45.34 41.64 44.94 41.22C44.54 40.78 44.1 40.3 43.92 39.78C43.62 38.86 43.24 37.96 43.24 36.92C43.26 26.88 43.26 16.84 43.24 6.80004C43.24 5.46004 43.66 4.30004 44.28 3.16004C44.88 2.04004 45.84 1.30004 46.88 0.760039C47.72 0.320039 48.68 0.0400391 49.7 0.0400391C64.26 0.0600391 78.82 0.0600391 93.38 0.0400391C94.72 0.0400391 95.88 0.500039 96.98 1.14004C97.74 1.58004 99.1 3.00004 99.3 3.70004C99.58 4.64004 99.98 5.52004 99.98 6.56004C99.96 16.6 99.96 26.64 99.98 36.68C99.98 38.02 99.56 39.18 98.94 40.32C98.34 41.42 97.38 42.18 96.34 42.72C95.52 43.14 94.6 43.46 93.62 43.44C91.88 43.34 90.14 43.38 88.3 43.38ZM86.18 40.04C88.54 40.04 90.96 40.04 93.4 40.04C93.66 40.04 93.9 40.02 94.18 39.94C95.66 39.48 96.66 37.98 96.66 36.5C96.62 26.64 96.64 16.76 96.64 6.90004C96.64 6.72004 96.66 6.54004 96.64 6.38004C96.58 6.02004 96.6 5.62004 96.42 5.34004C95.68 4.16004 94.72 3.34004 93.2 3.34004C78.84 3.36004 64.5 3.36004 50.14 3.34004C49.34 3.34004 48.64 3.52004 48 3.98004C47.14 4.58004 46.6 5.42004 46.58 6.48004C46.56 16.62 46.56 26.78 46.58 36.92C46.58 37.14 46.62 37.36 46.7 37.6C47.16 39.1 48.68 40.1 50.14 40.08C57.48 40.04 64.8 40.06 72.1 40.06C72.32 40.2 72.54 40.28 72.72 40.42C73.56 41.18 74.38 41.94 75.22 42.7C75.34 42.82 75.46 42.96 75.6 43.06C76.68 43.78 77.54 44.76 78.52 45.58C79.44 46.36 80.28 47.22 81.18 48C81.7 48.46 82.28 48.84 82.78 49.22C83.2 49.22 83.54 49.22 83.88 49.22C84.46 49.02 84.76 48.54 85 48.02C85 45.94 85 43.84 85 41.76C85 41.1 85.26 40.6 85.82 40.26C85.88 40.18 86 40.14 86.18 40.04Z" fill="#3A3A3A"/>
<path d="M69.3201 75.0201C69.3401 73.2201 70.3601 71.9201 72.2201 71.3201C72.8401 71.1201 73.4801 70.9601 74.1401 70.9201C74.8801 70.8601 75.5401 70.5601 76.1401 70.2001C76.7601 69.8401 77.0601 69.1601 77.2401 68.4801C77.4001 67.9201 77.6201 67.3401 77.6401 66.7801C77.6601 66.1001 77.9001 65.4401 78.1801 64.9201C78.6801 64.0001 79.3601 63.2201 80.5401 62.9201C81.4601 62.6801 82.2401 62.8801 83.0801 62.9801C83.3001 63.0001 83.5001 63.1401 83.6801 63.2601C84.5401 63.9001 85.0401 64.6601 85.3801 65.7801C85.5801 66.4001 85.6601 67.0601 85.8001 67.7001C85.9601 68.4801 86.1801 69.2201 86.7201 69.8201C87.3001 70.4601 88.0801 70.7201 88.8801 70.8801C89.7401 71.0401 90.6001 71.2201 91.4401 71.5001C91.8601 71.6401 92.2401 71.8001 92.5401 72.1201C92.6201 72.2001 92.6801 72.2801 92.7601 72.3401C93.6801 73.0001 94.0001 74.2601 93.9001 75.2001C93.8001 76.2201 93.5601 77.2801 92.6401 77.8801C91.9801 78.3201 91.2401 78.6801 90.4201 78.8201C89.6401 78.9601 88.8801 79.1401 88.1001 79.2801C87.5401 79.3801 86.9601 79.6601 86.6601 80.3201C86.2001 81.3001 85.9801 82.3401 85.7601 83.4001C85.6201 84.0401 85.5401 84.7001 85.2601 85.2801C84.7601 86.3001 83.9201 86.9801 82.7601 87.2201C82.3801 87.3001 82.0001 87.4201 81.6001 87.4001C80.8001 87.4001 79.7601 87.1001 79.3801 86.7201C78.8401 86.1401 78.2201 85.6801 78.0001 84.7801C77.8001 84.0001 77.6001 83.2001 77.4401 82.4201C77.3001 81.7201 77.0801 81.0401 76.6401 80.4601C76.2401 79.9401 75.6801 79.6601 75.0601 79.4801C74.4601 79.3201 73.8601 79.1401 73.2601 79.0601C71.8201 78.9001 70.6201 78.2801 69.8001 77.1201C69.4201 76.5201 69.2801 75.7801 69.3201 75.0201ZM72.5201 75.0801C72.7401 75.2601 72.8801 75.4401 73.0401 75.5001C73.6001 75.6801 74.1401 75.9401 74.7401 75.9401C75.5001 75.9401 76.2001 76.2201 76.9001 76.5001C77.7601 76.8601 78.4401 77.4001 79.0601 78.0601C80.1201 79.1801 80.6801 80.5001 80.7801 82.0401C80.8001 82.5001 80.9201 82.9401 81.0601 83.3801C81.1401 83.6201 81.3201 83.8401 81.5001 84.0201C81.6001 84.1001 81.8201 84.0401 81.9801 84.0601C82.1601 83.7601 82.3001 83.5001 82.4401 83.2601C82.4001 82.5201 82.7001 81.8401 82.8201 81.1201C82.9601 80.4001 83.2601 79.7601 83.5201 79.1201C83.8201 78.4001 84.3201 77.8201 84.9201 77.3001C85.9801 76.3601 87.2201 75.7801 88.6401 75.7401C89.3601 75.7201 89.9801 75.5201 90.6801 75.1201C90.4801 74.9601 90.3401 74.7801 90.1401 74.6801C89.5801 74.4001 88.9801 74.2401 88.3401 74.2601C87.6601 74.2801 87.0601 74.0401 86.4601 73.7801C85.5601 73.4001 84.8001 72.8201 84.1401 72.1001C83.1201 70.9801 82.5801 69.7001 82.4601 68.2001C82.4201 67.7401 82.3601 67.2801 82.2201 66.8401C82.1201 66.5601 81.8801 66.3201 81.6201 65.9801C81.4401 66.2201 81.2801 66.3601 81.2201 66.5401C80.9801 67.1201 80.7801 67.7001 80.8001 68.3401C80.8001 69.0001 80.5801 69.6201 80.3401 70.2401C79.9401 71.1801 79.3401 71.9601 78.5801 72.6401C77.4801 73.6001 76.2401 74.1601 74.7601 74.2801C74.3001 74.3201 73.8201 74.3601 73.4001 74.5001C73.1001 74.5601 72.8601 74.8201 72.5201 75.0801Z" fill="#3A3A3A"/>
<path d="M9.63998 16.76C9.59998 16.54 9.61998 16.06 9.39998 15.72C9.19998 15.38 9.21998 15.04 9.25998 14.74C9.35998 14.08 9.49998 13.36 9.89998 12.82C10.3 12.3 10.84 11.76 11.42 11.52C11.94 11.3 12.48 11.04 13.1 11.02C13.46 11.02 13.8 10.84 14.16 10.84C14.52 10.84 14.8 10.72 15.12 10.62C16.18 10.28 16.44 9.88 17 8.88C17.42 8.14 17.38 7.36 17.56 6.62C17.82 5.5 18.14 4.46 19.02 3.68C19.46 3.28 20 3.1 20.58 2.88C21.54 2.54 22.38 2.82 23.26 3.12C23.36 3.16 23.46 3.12 23.56 3.12C23.76 3.32 23.94 3.56 24.16 3.72C25.06 4.38 25.2 5.44 25.54 6.38C25.78 7.04 25.76 7.74 25.94 8.4C26.32 9.88 27.4 10.52 28.74 10.82C29.64 11.02 30.54 11.14 31.4 11.44C31.82 11.58 32.2 11.74 32.5 12.06C32.54 12.12 32.6 12.16 32.64 12.2C33 12.56 33.46 12.86 33.58 13.38C33.76 14.06 34.04 14.74 33.86 15.44C33.62 16.42 33.36 17.36 32.34 17.96C31.64 18.38 30.96 18.64 30.18 18.8C29.44 18.96 28.6 18.94 27.92 19.38C26.9 19.34 26.6 20.14 26.38 20.88C26.1 21.74 25.8 22.6 25.7 23.54C25.64 24.02 25.54 24.58 25.3 25.04C24.76 26.08 24.06 26.94 22.8 27.12C22.38 27.18 22 27.4 21.54 27.36C20.76 27.28 19.7 27.04 19.32 26.66C18.78 26.08 18.16 25.6 17.94 24.72C17.74 23.94 17.54 23.14 17.38 22.36C17.12 20.98 16.52 19.86 15.1 19.44C14.74 19.34 14.36 19.2 13.94 19.18C12.94 19.1 11.94 18.8 11.06 18.34C10.56 18.04 10.22 17.42 9.63998 16.76ZM12.8 15.38C13.34 15.48 13.78 15.86 14.36 15.84C15.82 15.78 17.04 16.46 18.16 17.22C19.44 18.08 20.14 19.46 20.54 21C20.7 21.68 20.74 22.36 20.92 23.02C21.12 23.74 21.24 23.92 21.98 23.94C22.1 23.68 22.34 23.4 22.36 23.1C22.46 22.14 22.74 21.26 23 20.34C23.5 18.56 24.5 17.2 26.16 16.38C27.02 15.96 27.92 15.68 28.88 15.66C29.5 15.64 30.04 15.4 30.62 15.08C30.28 14.64 29.92 14.46 29.48 14.42C29.16 14.38 28.84 14.22 28.52 14.24C28.18 14.24 27.88 14.1 27.56 14.02C26.42 13.76 25.18 13.06 24.38 12.38C23.62 11.72 23.3 10.82 22.86 9.98C22.56 9.42 22.34 8.76 22.38 8.1C22.42 7.52 22.18 7 21.94 6.5C21.86 6.32 21.66 6.18 21.52 6C21 6.62 20.72 7.36 20.72 8.14C20.72 8.68 20.48 9.16 20.36 9.66C20.06 10.96 19.26 11.92 18.28 12.76C17.26 13.62 16.04 14.08 14.72 14.2C14.02 14.26 13.4 14.48 12.78 14.7C12.8 14.92 12.8 15.14 12.8 15.38Z" fill="#3A3A3A"/>
<path d="M3.21997 88.4C3.21997 76.18 3.21997 63.98 3.21997 51.76C5.97997 51.76 8.69997 51.76 11.44 51.76C11.6 52.66 11.66 84.74 11.5 88.4C8.77997 88.4 6.03997 88.4 3.21997 88.4Z" fill="#B2B2B2"/>
<path d="M86.1799 40.0401C85.9999 40.1401 85.8799 40.1801 85.7599 40.2401C85.1999 40.5801 84.9399 41.0601 84.9399 41.7401C84.9599 43.8201 84.9399 45.9201 84.9399 48.0001C84.6999 48.5201 84.4199 49.0001 83.8199 49.2001C83.4799 49.2001 83.1399 49.2001 82.7199 49.2001C82.2199 48.8201 81.6399 48.4401 81.1199 47.9801C80.2199 47.2001 79.3799 46.3401 78.4599 45.5601C77.4799 44.7401 76.6199 43.7601 75.5399 43.0401C75.3999 42.9401 75.2999 42.8001 75.1599 42.6801C74.3399 41.9201 73.4999 41.1601 72.6599 40.4001C72.4999 40.2601 72.2799 40.1601 72.0399 40.0401C64.7399 40.0401 57.4199 40.0201 50.0799 40.0601C48.6199 40.0601 47.0999 39.0801 46.6399 37.5801C46.5599 37.3401 46.5199 37.1201 46.5199 36.9001C46.5199 26.7601 46.4999 16.6001 46.5199 6.46007C46.5199 5.40007 47.0799 4.58007 47.9399 3.96007C48.5799 3.50007 49.2799 3.32007 50.0799 3.32007C64.4399 3.34007 78.7799 3.34007 93.1399 3.32007C94.6599 3.32007 95.6199 4.14007 96.3599 5.32007C96.5399 5.60007 96.5399 6.02007 96.5799 6.36007C96.5999 6.52007 96.5799 6.70007 96.5799 6.88007C96.5799 16.7401 96.5599 26.6201 96.5999 36.4801C96.5999 37.9401 95.5999 39.4601 94.1199 39.9201C93.8399 40.0001 93.5999 40.0201 93.3399 40.0201C90.9799 40.0401 88.5399 40.0401 86.1799 40.0401ZM77.9199 12.9001C77.3599 13.1801 76.6999 13.3601 76.3599 13.9201C75.7199 14.9801 74.6599 15.6601 73.9799 16.6801C73.4799 17.4001 72.7999 18.0001 72.1999 18.6401C70.9199 20.0601 69.6199 21.4401 68.3999 22.9001C67.7999 23.6001 67.1199 24.2001 66.5399 24.9401C65.8399 25.8601 64.9999 26.6801 64.1999 27.5201C63.6999 28.0401 63.3399 28.5601 63.5199 29.4201C63.7399 29.6801 63.9799 30.0401 64.2999 30.3201C64.5999 30.5801 65.0199 30.8201 65.3999 30.6401C66.0199 30.3401 66.6999 30.1201 67.0399 29.4201C67.1199 29.2801 67.2199 29.1401 67.3199 29.0201C67.9399 28.3401 68.5599 27.6801 69.1799 27.0001C70.4599 25.5801 71.7599 24.1801 72.9799 22.7401C73.5599 22.0601 74.2199 21.5001 74.7599 20.7801C75.3199 20.0201 76.0799 19.4001 76.6799 18.6601C77.5599 17.5601 78.5799 16.5801 79.4599 15.6401C79.5799 15.2801 79.7199 15.0001 79.7199 14.7201C79.7199 14.4401 79.5599 14.1601 79.4799 13.9201C79.2399 13.6401 79.0199 13.4001 78.8799 13.2401C78.4799 13.0801 78.1999 13.0001 77.9199 12.9001ZM59.9399 16.7801C59.7999 17.8201 60.2999 18.6801 60.7599 19.5601C61.1799 20.3401 61.8799 20.8001 62.5799 21.2401C63.2799 21.6801 64.1399 21.8801 64.8999 21.8401C66.1599 21.7801 67.3999 21.4201 68.3599 20.4401C69.3199 19.4601 69.8999 18.3401 69.9399 16.9201C69.9599 15.9601 69.7399 15.0801 69.2799 14.2801C68.7999 13.4401 68.1199 12.7601 67.2399 12.2801C66.4599 11.8601 65.5799 11.9601 64.7999 11.6601C64.0399 11.9601 63.1599 11.8801 62.4799 12.3401C61.8199 12.8001 61.1399 13.2401 60.7399 13.9801C60.2999 14.8801 59.8199 15.7401 59.9399 16.7801ZM78.3999 21.7401C77.9999 21.8201 77.7799 21.8801 77.5599 21.8801C76.2599 21.8801 74.6199 23.1401 74.0999 24.0601C73.5399 25.0401 73.2199 26.0201 73.2799 27.1601C73.3199 28.1801 73.7599 29.0601 74.3199 29.8601C74.7599 30.4801 75.3999 30.9201 76.0799 31.3001C76.7399 31.6801 77.4999 31.5401 78.1199 31.8801C78.1999 31.9201 78.3599 31.9001 78.3999 31.8601C78.6199 31.5801 78.8999 31.6801 79.1599 31.6801C79.7399 31.6801 80.2799 31.4801 80.7199 31.1801C81.9399 30.3801 82.9599 29.4001 83.0799 27.8201C83.5199 27.1601 83.1999 26.4201 83.2799 25.7201C82.8199 24.6201 82.3799 23.4801 81.3599 22.7801C80.6199 22.2601 79.8199 21.7801 78.8199 21.8601C78.6599 21.9001 78.4799 21.7601 78.3999 21.7401Z" fill="#B2B2B2"/>
<path d="M72.52 75.08C72.86 74.84 73.1 74.58 73.38 74.48C73.82 74.34 74.28 74.3 74.74 74.26C76.2 74.16 77.46 73.6 78.56 72.62C79.32 71.94 79.92 71.16 80.32 70.22C80.58 69.62 80.8 69 80.78 68.32C80.78 67.68 80.96 67.1 81.2 66.52C81.28 66.36 81.42 66.22 81.6 65.96C81.84 66.3 82.1 66.54 82.2 66.82C82.34 67.26 82.4 67.72 82.44 68.18C82.56 69.68 83.1 70.96 84.12 72.08C84.78 72.8 85.54 73.38 86.44 73.76C87.04 74.02 87.66 74.26 88.32 74.24C88.96 74.22 89.56 74.4 90.12 74.66C90.3 74.74 90.46 74.92 90.66 75.1C89.96 75.5 89.34 75.68 88.62 75.72C87.2 75.78 85.96 76.34 84.9 77.28C84.32 77.8 83.8 78.38 83.5 79.1C83.22 79.76 82.92 80.38 82.8 81.1C82.66 81.8 82.36 82.48 82.42 83.24C82.28 83.48 82.12 83.74 81.96 84.04C81.8 84.04 81.58 84.08 81.48 84C81.3 83.82 81.12 83.6 81.04 83.36C80.9 82.92 80.8 82.46 80.76 82.02C80.66 80.48 80.1 79.16 79.04 78.04C78.42 77.38 77.74 76.84 76.88 76.48C76.18 76.18 75.48 75.9 74.72 75.92C74.12 75.92 73.58 75.66 73.02 75.48C72.88 75.44 72.74 75.26 72.52 75.08Z" fill="#B2B2B2"/>
<path d="M12.8 15.38C12.8 15.12 12.8 14.92 12.8 14.66C13.42 14.44 14.04 14.24 14.74 14.16C16.06 14.02 17.28 13.58 18.3 12.72C19.26 11.9 20.08 10.92 20.38 9.61996C20.5 9.11996 20.74 8.63996 20.74 8.09996C20.74 7.31996 21.04 6.57996 21.54 5.95996C21.7 6.11996 21.88 6.25996 21.96 6.45996C22.2 6.95996 22.42 7.45996 22.4 8.05996C22.36 8.73996 22.58 9.37996 22.88 9.93996C23.32 10.78 23.64 11.68 24.4 12.34C25.2 13.02 26.44 13.72 27.58 13.98C27.9 14.06 28.18 14.2 28.54 14.2C28.86 14.2 29.18 14.34 29.5 14.38C29.94 14.44 30.3 14.6 30.64 15.04C30.06 15.36 29.52 15.62 28.9 15.62C27.94 15.64 27.04 15.92 26.18 16.34C24.52 17.16 23.52 18.52 23.02 20.3C22.76 21.22 22.48 22.1 22.38 23.06C22.36 23.36 22.12 23.64 22 23.9C21.26 23.88 21.14 23.72 20.94 22.98C20.76 22.32 20.74 21.62 20.56 20.96C20.18 19.42 19.46 18.04 18.18 17.18C17.08 16.44 15.84 15.74 14.38 15.8C13.78 15.88 13.34 15.48 12.8 15.38Z" fill="#B2B2B2"/>
<path d="M77.92 12.8999C78.2 12.9999 78.48 13.0799 78.9 13.2199C79.04 13.3599 79.26 13.6199 79.5 13.8999C79.58 14.1399 79.74 14.4199 79.74 14.6999C79.74 14.9799 79.58 15.2599 79.48 15.6199C78.6 16.5799 77.58 17.5599 76.7 18.6399C76.1 19.3999 75.34 19.9999 74.78 20.7599C74.24 21.4799 73.58 22.0599 73 22.7199C71.76 24.1599 70.46 25.5599 69.2 26.9799C68.58 27.6599 67.96 28.3399 67.34 28.9999C67.22 29.1199 67.12 29.2599 67.06 29.3999C66.72 30.0999 66.04 30.3199 65.42 30.6199C65.04 30.7999 64.62 30.5599 64.32 30.2999C64 30.0199 63.74 29.6599 63.54 29.3999C63.36 28.5399 63.72 28.0199 64.22 27.4999C65.04 26.6799 65.86 25.8399 66.56 24.9199C67.12 24.1799 67.82 23.5799 68.42 22.8799C69.66 21.4199 70.96 20.0399 72.22 18.6199C72.82 17.9599 73.5 17.3799 74 16.6599C74.7 15.6399 75.76 14.9599 76.38 13.8999C76.7 13.3599 77.36 13.1799 77.92 12.8999Z" fill="#3A3A3A"/>
<path d="M59.94 16.7799C59.8 15.7399 60.28 14.8799 60.76 13.9999C61.16 13.2599 61.84 12.8199 62.5 12.3599C63.18 11.8799 64.06 11.9599 64.82 11.6799C65.62 11.9799 66.5 11.8799 67.26 12.2999C68.14 12.7799 68.82 13.4599 69.3 14.2999C69.76 15.0999 69.98 15.9999 69.96 16.9399C69.92 18.3399 69.34 19.4599 68.38 20.4599C67.42 21.4399 66.18 21.7799 64.92 21.8599C64.16 21.8999 63.28 21.6999 62.6 21.2599C61.9 20.8199 61.2 20.3399 60.78 19.5799C60.3 18.6799 59.8 17.8199 59.94 16.7799ZM64.94 18.5399C65.18 18.4599 65.42 18.3599 65.78 18.2199C66.28 17.7999 66.76 17.2199 66.56 16.2199C66.3 15.9199 66 15.5399 65.8 15.3199C65.36 15.1599 65.12 15.0799 64.98 15.0199C64.66 15.1199 64.42 15.1799 64.1 15.2799C63.86 15.5999 63.56 15.9599 63.3 16.2799C63.3 16.7199 63.3 17.0799 63.3 17.4199C63.62 17.7399 63.92 18.0399 64.1 18.2199C64.46 18.3799 64.7 18.4599 64.94 18.5399Z" fill="#3A3A3A"/>
<path d="M78.3999 21.74C78.4799 21.76 78.6599 21.9 78.8399 21.88C79.8399 21.8 80.6199 22.28 81.3799 22.8C82.3999 23.5 82.8399 24.64 83.2999 25.74C83.1999 26.44 83.5399 27.18 83.0999 27.84C82.9799 29.42 81.9599 30.4 80.7399 31.2C80.2999 31.5 79.7599 31.7 79.1799 31.7C78.9199 31.7 78.6199 31.6 78.4199 31.88C78.3799 31.94 78.1999 31.94 78.1399 31.9C77.4999 31.54 76.7599 31.7 76.0999 31.32C75.4199 30.92 74.7599 30.5 74.3399 29.88C73.7999 29.08 73.3599 28.22 73.2999 27.18C73.2399 26.04 73.5599 25.06 74.1199 24.08C74.6399 23.16 76.2799 21.9 77.5799 21.9C77.7799 21.88 77.9999 21.82 78.3999 21.74ZM78.2999 25.02C78.0599 25.1 77.8199 25.2 77.4599 25.32C76.8599 25.78 76.4399 26.48 76.6399 27.32C76.9799 27.68 77.2999 28.02 77.5199 28.24C77.8599 28.36 78.0999 28.44 78.2599 28.5C78.5799 28.4 78.8199 28.34 79.1399 28.24C79.3799 27.92 79.6799 27.56 79.8999 27.3C80.1599 26.3 79.6199 25.72 79.1399 25.3C78.7599 25.2 78.5199 25.12 78.2999 25.02Z" fill="#3A3A3A"/>
</svg>
